%TF.GenerationSoftware,KiCad,Pcbnew,7.0.9*%
%TF.CreationDate,2024-05-05T23:46:52+02:00*%
%TF.ProjectId,esp32_c3_custom_board,65737033-325f-4633-935f-637573746f6d,rev?*%
%TF.SameCoordinates,Original*%
%TF.FileFunction,Drillmap*%
%TF.FilePolarity,Positive*%
%FSLAX45Y45*%
G04 Gerber Fmt 4.5, Leading zero omitted, Abs format (unit mm)*
G04 Created by KiCad (PCBNEW 7.0.9) date 2024-05-05 23:46:52*
%MOMM*%
%LPD*%
G01*
G04 APERTURE LIST*
%ADD10C,0.100000*%
%ADD11C,0.200000*%
G04 APERTURE END LIST*
D10*
X11054080Y-13111480D02*
X15859760Y-13111480D01*
X15859760Y-15651480D01*
X11054080Y-15651480D01*
X11054080Y-13111480D01*
D11*
D10*
X12019600Y-14127800D02*
X12059600Y-14167800D01*
X12059600Y-14127800D02*
X12019600Y-14167800D01*
X12070400Y-14336080D02*
X12110400Y-14376080D01*
X12110400Y-14336080D02*
X12070400Y-14376080D01*
X12121200Y-13863640D02*
X12161200Y-13903640D01*
X12161200Y-13863640D02*
X12121200Y-13903640D01*
X12420920Y-13299760D02*
X12460920Y-13339760D01*
X12460920Y-13299760D02*
X12420920Y-13339760D01*
X12492040Y-14198920D02*
X12532040Y-14238920D01*
X12532040Y-14198920D02*
X12492040Y-14238920D01*
X12527600Y-13538520D02*
X12567600Y-13578520D01*
X12567600Y-13538520D02*
X12527600Y-13578520D01*
X12566830Y-14576250D02*
X12606830Y-14616250D01*
X12606830Y-14576250D02*
X12566830Y-14616250D01*
X12629200Y-13782360D02*
X12669200Y-13822360D01*
X12669200Y-13782360D02*
X12629200Y-13822360D01*
X12667880Y-14574840D02*
X12707880Y-14614840D01*
X12707880Y-14574840D02*
X12667880Y-14614840D01*
X12740960Y-13782360D02*
X12780960Y-13822360D01*
X12780960Y-13782360D02*
X12740960Y-13822360D01*
X12827320Y-14585000D02*
X12867320Y-14625000D01*
X12867320Y-14585000D02*
X12827320Y-14625000D01*
X12903520Y-13604560D02*
X12943520Y-13644560D01*
X12943520Y-13604560D02*
X12903520Y-13644560D01*
X12913680Y-13777280D02*
X12953680Y-13817280D01*
X12953680Y-13777280D02*
X12913680Y-13817280D01*
X12979720Y-13309920D02*
X13019720Y-13349920D01*
X13019720Y-13309920D02*
X12979720Y-13349920D01*
X13055920Y-14280200D02*
X13095920Y-14320200D01*
X13095920Y-14280200D02*
X13055920Y-14320200D01*
X13057006Y-13866680D02*
X13097006Y-13906680D01*
X13097006Y-13866680D02*
X13057006Y-13906680D01*
X13121530Y-14147690D02*
X13161530Y-14187690D01*
X13161530Y-14147690D02*
X13121530Y-14187690D01*
X13201130Y-14466050D02*
X13241130Y-14506050D01*
X13241130Y-14466050D02*
X13201130Y-14506050D01*
X13299760Y-13828080D02*
X13339760Y-13868080D01*
X13339760Y-13828080D02*
X13299760Y-13868080D01*
X13574080Y-14930440D02*
X13614080Y-14970440D01*
X13614080Y-14930440D02*
X13574080Y-14970440D01*
X13701080Y-14752640D02*
X13741080Y-14792640D01*
X13741080Y-14752640D02*
X13701080Y-14792640D01*
X13716320Y-14463080D02*
X13756320Y-14503080D01*
X13756320Y-14463080D02*
X13716320Y-14503080D01*
X13741720Y-13823000D02*
X13781720Y-13863000D01*
X13781720Y-13823000D02*
X13741720Y-13863000D01*
X13777280Y-15143800D02*
X13817280Y-15183800D01*
X13817280Y-15143800D02*
X13777280Y-15183800D01*
X13853480Y-14767880D02*
X13893480Y-14807880D01*
X13893480Y-14767880D02*
X13853480Y-14807880D01*
X13924600Y-15382560D02*
X13964600Y-15422560D01*
X13964600Y-15382560D02*
X13924600Y-15422560D01*
X14005880Y-14209080D02*
X14045880Y-14249080D01*
X14045880Y-14209080D02*
X14005880Y-14249080D01*
X14066840Y-14320840D02*
X14106840Y-14360840D01*
X14106840Y-14320840D02*
X14066840Y-14360840D01*
X14483400Y-13868720D02*
X14523400Y-13908720D01*
X14523400Y-13868720D02*
X14483400Y-13908720D01*
X14529120Y-14712000D02*
X14569120Y-14752000D01*
X14569120Y-14712000D02*
X14529120Y-14752000D01*
X14681520Y-15136970D02*
X14721520Y-15176970D01*
X14721520Y-15136970D02*
X14681520Y-15176970D01*
X14701840Y-14945680D02*
X14741840Y-14985680D01*
X14741840Y-14945680D02*
X14701840Y-14985680D01*
X14772960Y-15423200D02*
X14812960Y-15463200D01*
X14812960Y-15423200D02*
X14772960Y-15463200D01*
X14839000Y-14706920D02*
X14879000Y-14746920D01*
X14879000Y-14706920D02*
X14839000Y-14746920D01*
X14859320Y-15174280D02*
X14899320Y-15214280D01*
X14899320Y-15174280D02*
X14859320Y-15214280D01*
X15153960Y-14976160D02*
X15193960Y-15016160D01*
X15193960Y-14976160D02*
X15153960Y-15016160D01*
X15528760Y-13441680D02*
G75*
G03*
X15528760Y-13441680I-50000J0D01*
G01*
X15528760Y-13641680D02*
G75*
G03*
X15528760Y-13641680I-50000J0D01*
G01*
D11*
X11309857Y-15967964D02*
X11309857Y-15767964D01*
X11309857Y-15767964D02*
X11357476Y-15767964D01*
X11357476Y-15767964D02*
X11386047Y-15777488D01*
X11386047Y-15777488D02*
X11405095Y-15796535D01*
X11405095Y-15796535D02*
X11414619Y-15815583D01*
X11414619Y-15815583D02*
X11424142Y-15853678D01*
X11424142Y-15853678D02*
X11424142Y-15882249D01*
X11424142Y-15882249D02*
X11414619Y-15920345D01*
X11414619Y-15920345D02*
X11405095Y-15939392D01*
X11405095Y-15939392D02*
X11386047Y-15958440D01*
X11386047Y-15958440D02*
X11357476Y-15967964D01*
X11357476Y-15967964D02*
X11309857Y-15967964D01*
X11509857Y-15967964D02*
X11509857Y-15834630D01*
X11509857Y-15872726D02*
X11519381Y-15853678D01*
X11519381Y-15853678D02*
X11528904Y-15844154D01*
X11528904Y-15844154D02*
X11547952Y-15834630D01*
X11547952Y-15834630D02*
X11567000Y-15834630D01*
X11633666Y-15967964D02*
X11633666Y-15834630D01*
X11633666Y-15767964D02*
X11624142Y-15777488D01*
X11624142Y-15777488D02*
X11633666Y-15787011D01*
X11633666Y-15787011D02*
X11643190Y-15777488D01*
X11643190Y-15777488D02*
X11633666Y-15767964D01*
X11633666Y-15767964D02*
X11633666Y-15787011D01*
X11757476Y-15967964D02*
X11738428Y-15958440D01*
X11738428Y-15958440D02*
X11728904Y-15939392D01*
X11728904Y-15939392D02*
X11728904Y-15767964D01*
X11862238Y-15967964D02*
X11843190Y-15958440D01*
X11843190Y-15958440D02*
X11833666Y-15939392D01*
X11833666Y-15939392D02*
X11833666Y-15767964D01*
X12090809Y-15967964D02*
X12090809Y-15767964D01*
X12090809Y-15767964D02*
X12157476Y-15910821D01*
X12157476Y-15910821D02*
X12224142Y-15767964D01*
X12224142Y-15767964D02*
X12224142Y-15967964D01*
X12405095Y-15967964D02*
X12405095Y-15863202D01*
X12405095Y-15863202D02*
X12395571Y-15844154D01*
X12395571Y-15844154D02*
X12376523Y-15834630D01*
X12376523Y-15834630D02*
X12338428Y-15834630D01*
X12338428Y-15834630D02*
X12319381Y-15844154D01*
X12405095Y-15958440D02*
X12386047Y-15967964D01*
X12386047Y-15967964D02*
X12338428Y-15967964D01*
X12338428Y-15967964D02*
X12319381Y-15958440D01*
X12319381Y-15958440D02*
X12309857Y-15939392D01*
X12309857Y-15939392D02*
X12309857Y-15920345D01*
X12309857Y-15920345D02*
X12319381Y-15901297D01*
X12319381Y-15901297D02*
X12338428Y-15891773D01*
X12338428Y-15891773D02*
X12386047Y-15891773D01*
X12386047Y-15891773D02*
X12405095Y-15882249D01*
X12500333Y-15834630D02*
X12500333Y-16034630D01*
X12500333Y-15844154D02*
X12519381Y-15834630D01*
X12519381Y-15834630D02*
X12557476Y-15834630D01*
X12557476Y-15834630D02*
X12576523Y-15844154D01*
X12576523Y-15844154D02*
X12586047Y-15853678D01*
X12586047Y-15853678D02*
X12595571Y-15872726D01*
X12595571Y-15872726D02*
X12595571Y-15929868D01*
X12595571Y-15929868D02*
X12586047Y-15948916D01*
X12586047Y-15948916D02*
X12576523Y-15958440D01*
X12576523Y-15958440D02*
X12557476Y-15967964D01*
X12557476Y-15967964D02*
X12519381Y-15967964D01*
X12519381Y-15967964D02*
X12500333Y-15958440D01*
X12681285Y-15948916D02*
X12690809Y-15958440D01*
X12690809Y-15958440D02*
X12681285Y-15967964D01*
X12681285Y-15967964D02*
X12671762Y-15958440D01*
X12671762Y-15958440D02*
X12681285Y-15948916D01*
X12681285Y-15948916D02*
X12681285Y-15967964D01*
X12681285Y-15844154D02*
X12690809Y-15853678D01*
X12690809Y-15853678D02*
X12681285Y-15863202D01*
X12681285Y-15863202D02*
X12671762Y-15853678D01*
X12671762Y-15853678D02*
X12681285Y-15844154D01*
X12681285Y-15844154D02*
X12681285Y-15863202D01*
D10*
X11009080Y-16276480D02*
X11049080Y-16316480D01*
X11049080Y-16276480D02*
X11009080Y-16316480D01*
D11*
X11347952Y-16187964D02*
X11367000Y-16187964D01*
X11367000Y-16187964D02*
X11386047Y-16197488D01*
X11386047Y-16197488D02*
X11395571Y-16207011D01*
X11395571Y-16207011D02*
X11405095Y-16226059D01*
X11405095Y-16226059D02*
X11414619Y-16264154D01*
X11414619Y-16264154D02*
X11414619Y-16311773D01*
X11414619Y-16311773D02*
X11405095Y-16349868D01*
X11405095Y-16349868D02*
X11395571Y-16368916D01*
X11395571Y-16368916D02*
X11386047Y-16378440D01*
X11386047Y-16378440D02*
X11367000Y-16387964D01*
X11367000Y-16387964D02*
X11347952Y-16387964D01*
X11347952Y-16387964D02*
X11328904Y-16378440D01*
X11328904Y-16378440D02*
X11319381Y-16368916D01*
X11319381Y-16368916D02*
X11309857Y-16349868D01*
X11309857Y-16349868D02*
X11300333Y-16311773D01*
X11300333Y-16311773D02*
X11300333Y-16264154D01*
X11300333Y-16264154D02*
X11309857Y-16226059D01*
X11309857Y-16226059D02*
X11319381Y-16207011D01*
X11319381Y-16207011D02*
X11328904Y-16197488D01*
X11328904Y-16197488D02*
X11347952Y-16187964D01*
X11500333Y-16368916D02*
X11509857Y-16378440D01*
X11509857Y-16378440D02*
X11500333Y-16387964D01*
X11500333Y-16387964D02*
X11490809Y-16378440D01*
X11490809Y-16378440D02*
X11500333Y-16368916D01*
X11500333Y-16368916D02*
X11500333Y-16387964D01*
X11681285Y-16254630D02*
X11681285Y-16387964D01*
X11633666Y-16178440D02*
X11586047Y-16321297D01*
X11586047Y-16321297D02*
X11709857Y-16321297D01*
X11824142Y-16187964D02*
X11843190Y-16187964D01*
X11843190Y-16187964D02*
X11862238Y-16197488D01*
X11862238Y-16197488D02*
X11871762Y-16207011D01*
X11871762Y-16207011D02*
X11881285Y-16226059D01*
X11881285Y-16226059D02*
X11890809Y-16264154D01*
X11890809Y-16264154D02*
X11890809Y-16311773D01*
X11890809Y-16311773D02*
X11881285Y-16349868D01*
X11881285Y-16349868D02*
X11871762Y-16368916D01*
X11871762Y-16368916D02*
X11862238Y-16378440D01*
X11862238Y-16378440D02*
X11843190Y-16387964D01*
X11843190Y-16387964D02*
X11824142Y-16387964D01*
X11824142Y-16387964D02*
X11805095Y-16378440D01*
X11805095Y-16378440D02*
X11795571Y-16368916D01*
X11795571Y-16368916D02*
X11786047Y-16349868D01*
X11786047Y-16349868D02*
X11776523Y-16311773D01*
X11776523Y-16311773D02*
X11776523Y-16264154D01*
X11776523Y-16264154D02*
X11786047Y-16226059D01*
X11786047Y-16226059D02*
X11795571Y-16207011D01*
X11795571Y-16207011D02*
X11805095Y-16197488D01*
X11805095Y-16197488D02*
X11824142Y-16187964D01*
X12014619Y-16187964D02*
X12033666Y-16187964D01*
X12033666Y-16187964D02*
X12052714Y-16197488D01*
X12052714Y-16197488D02*
X12062238Y-16207011D01*
X12062238Y-16207011D02*
X12071762Y-16226059D01*
X12071762Y-16226059D02*
X12081285Y-16264154D01*
X12081285Y-16264154D02*
X12081285Y-16311773D01*
X12081285Y-16311773D02*
X12071762Y-16349868D01*
X12071762Y-16349868D02*
X12062238Y-16368916D01*
X12062238Y-16368916D02*
X12052714Y-16378440D01*
X12052714Y-16378440D02*
X12033666Y-16387964D01*
X12033666Y-16387964D02*
X12014619Y-16387964D01*
X12014619Y-16387964D02*
X11995571Y-16378440D01*
X11995571Y-16378440D02*
X11986047Y-16368916D01*
X11986047Y-16368916D02*
X11976523Y-16349868D01*
X11976523Y-16349868D02*
X11967000Y-16311773D01*
X11967000Y-16311773D02*
X11967000Y-16264154D01*
X11967000Y-16264154D02*
X11976523Y-16226059D01*
X11976523Y-16226059D02*
X11986047Y-16207011D01*
X11986047Y-16207011D02*
X11995571Y-16197488D01*
X11995571Y-16197488D02*
X12014619Y-16187964D01*
X12167000Y-16387964D02*
X12167000Y-16254630D01*
X12167000Y-16273678D02*
X12176523Y-16264154D01*
X12176523Y-16264154D02*
X12195571Y-16254630D01*
X12195571Y-16254630D02*
X12224143Y-16254630D01*
X12224143Y-16254630D02*
X12243190Y-16264154D01*
X12243190Y-16264154D02*
X12252714Y-16283202D01*
X12252714Y-16283202D02*
X12252714Y-16387964D01*
X12252714Y-16283202D02*
X12262238Y-16264154D01*
X12262238Y-16264154D02*
X12281285Y-16254630D01*
X12281285Y-16254630D02*
X12309857Y-16254630D01*
X12309857Y-16254630D02*
X12328904Y-16264154D01*
X12328904Y-16264154D02*
X12338428Y-16283202D01*
X12338428Y-16283202D02*
X12338428Y-16387964D01*
X12433666Y-16387964D02*
X12433666Y-16254630D01*
X12433666Y-16273678D02*
X12443190Y-16264154D01*
X12443190Y-16264154D02*
X12462238Y-16254630D01*
X12462238Y-16254630D02*
X12490809Y-16254630D01*
X12490809Y-16254630D02*
X12509857Y-16264154D01*
X12509857Y-16264154D02*
X12519381Y-16283202D01*
X12519381Y-16283202D02*
X12519381Y-16387964D01*
X12519381Y-16283202D02*
X12528904Y-16264154D01*
X12528904Y-16264154D02*
X12547952Y-16254630D01*
X12547952Y-16254630D02*
X12576523Y-16254630D01*
X12576523Y-16254630D02*
X12595571Y-16264154D01*
X12595571Y-16264154D02*
X12605095Y-16283202D01*
X12605095Y-16283202D02*
X12605095Y-16387964D01*
X12995571Y-16178440D02*
X12824143Y-16435583D01*
X13252714Y-16187964D02*
X13271762Y-16187964D01*
X13271762Y-16187964D02*
X13290809Y-16197488D01*
X13290809Y-16197488D02*
X13300333Y-16207011D01*
X13300333Y-16207011D02*
X13309857Y-16226059D01*
X13309857Y-16226059D02*
X13319381Y-16264154D01*
X13319381Y-16264154D02*
X13319381Y-16311773D01*
X13319381Y-16311773D02*
X13309857Y-16349868D01*
X13309857Y-16349868D02*
X13300333Y-16368916D01*
X13300333Y-16368916D02*
X13290809Y-16378440D01*
X13290809Y-16378440D02*
X13271762Y-16387964D01*
X13271762Y-16387964D02*
X13252714Y-16387964D01*
X13252714Y-16387964D02*
X13233666Y-16378440D01*
X13233666Y-16378440D02*
X13224143Y-16368916D01*
X13224143Y-16368916D02*
X13214619Y-16349868D01*
X13214619Y-16349868D02*
X13205095Y-16311773D01*
X13205095Y-16311773D02*
X13205095Y-16264154D01*
X13205095Y-16264154D02*
X13214619Y-16226059D01*
X13214619Y-16226059D02*
X13224143Y-16207011D01*
X13224143Y-16207011D02*
X13233666Y-16197488D01*
X13233666Y-16197488D02*
X13252714Y-16187964D01*
X13405095Y-16368916D02*
X13414619Y-16378440D01*
X13414619Y-16378440D02*
X13405095Y-16387964D01*
X13405095Y-16387964D02*
X13395571Y-16378440D01*
X13395571Y-16378440D02*
X13405095Y-16368916D01*
X13405095Y-16368916D02*
X13405095Y-16387964D01*
X13538428Y-16187964D02*
X13557476Y-16187964D01*
X13557476Y-16187964D02*
X13576524Y-16197488D01*
X13576524Y-16197488D02*
X13586047Y-16207011D01*
X13586047Y-16207011D02*
X13595571Y-16226059D01*
X13595571Y-16226059D02*
X13605095Y-16264154D01*
X13605095Y-16264154D02*
X13605095Y-16311773D01*
X13605095Y-16311773D02*
X13595571Y-16349868D01*
X13595571Y-16349868D02*
X13586047Y-16368916D01*
X13586047Y-16368916D02*
X13576524Y-16378440D01*
X13576524Y-16378440D02*
X13557476Y-16387964D01*
X13557476Y-16387964D02*
X13538428Y-16387964D01*
X13538428Y-16387964D02*
X13519381Y-16378440D01*
X13519381Y-16378440D02*
X13509857Y-16368916D01*
X13509857Y-16368916D02*
X13500333Y-16349868D01*
X13500333Y-16349868D02*
X13490809Y-16311773D01*
X13490809Y-16311773D02*
X13490809Y-16264154D01*
X13490809Y-16264154D02*
X13500333Y-16226059D01*
X13500333Y-16226059D02*
X13509857Y-16207011D01*
X13509857Y-16207011D02*
X13519381Y-16197488D01*
X13519381Y-16197488D02*
X13538428Y-16187964D01*
X13795571Y-16387964D02*
X13681286Y-16387964D01*
X13738428Y-16387964D02*
X13738428Y-16187964D01*
X13738428Y-16187964D02*
X13719381Y-16216535D01*
X13719381Y-16216535D02*
X13700333Y-16235583D01*
X13700333Y-16235583D02*
X13681286Y-16245107D01*
X13976524Y-16187964D02*
X13881286Y-16187964D01*
X13881286Y-16187964D02*
X13871762Y-16283202D01*
X13871762Y-16283202D02*
X13881286Y-16273678D01*
X13881286Y-16273678D02*
X13900333Y-16264154D01*
X13900333Y-16264154D02*
X13947952Y-16264154D01*
X13947952Y-16264154D02*
X13967000Y-16273678D01*
X13967000Y-16273678D02*
X13976524Y-16283202D01*
X13976524Y-16283202D02*
X13986047Y-16302249D01*
X13986047Y-16302249D02*
X13986047Y-16349868D01*
X13986047Y-16349868D02*
X13976524Y-16368916D01*
X13976524Y-16368916D02*
X13967000Y-16378440D01*
X13967000Y-16378440D02*
X13947952Y-16387964D01*
X13947952Y-16387964D02*
X13900333Y-16387964D01*
X13900333Y-16387964D02*
X13881286Y-16378440D01*
X13881286Y-16378440D02*
X13871762Y-16368916D01*
X14052714Y-16187964D02*
X14186047Y-16187964D01*
X14186047Y-16187964D02*
X14100333Y-16387964D01*
X14252714Y-16187964D02*
X14252714Y-16226059D01*
X14328905Y-16187964D02*
X14328905Y-16226059D01*
X14624143Y-16464154D02*
X14614619Y-16454630D01*
X14614619Y-16454630D02*
X14595571Y-16426059D01*
X14595571Y-16426059D02*
X14586048Y-16407011D01*
X14586048Y-16407011D02*
X14576524Y-16378440D01*
X14576524Y-16378440D02*
X14567000Y-16330821D01*
X14567000Y-16330821D02*
X14567000Y-16292726D01*
X14567000Y-16292726D02*
X14576524Y-16245107D01*
X14576524Y-16245107D02*
X14586048Y-16216535D01*
X14586048Y-16216535D02*
X14595571Y-16197488D01*
X14595571Y-16197488D02*
X14614619Y-16168916D01*
X14614619Y-16168916D02*
X14624143Y-16159392D01*
X14681286Y-16187964D02*
X14805095Y-16187964D01*
X14805095Y-16187964D02*
X14738428Y-16264154D01*
X14738428Y-16264154D02*
X14767000Y-16264154D01*
X14767000Y-16264154D02*
X14786048Y-16273678D01*
X14786048Y-16273678D02*
X14795571Y-16283202D01*
X14795571Y-16283202D02*
X14805095Y-16302249D01*
X14805095Y-16302249D02*
X14805095Y-16349868D01*
X14805095Y-16349868D02*
X14795571Y-16368916D01*
X14795571Y-16368916D02*
X14786048Y-16378440D01*
X14786048Y-16378440D02*
X14767000Y-16387964D01*
X14767000Y-16387964D02*
X14709857Y-16387964D01*
X14709857Y-16387964D02*
X14690809Y-16378440D01*
X14690809Y-16378440D02*
X14681286Y-16368916D01*
X14976524Y-16187964D02*
X14938428Y-16187964D01*
X14938428Y-16187964D02*
X14919381Y-16197488D01*
X14919381Y-16197488D02*
X14909857Y-16207011D01*
X14909857Y-16207011D02*
X14890809Y-16235583D01*
X14890809Y-16235583D02*
X14881286Y-16273678D01*
X14881286Y-16273678D02*
X14881286Y-16349868D01*
X14881286Y-16349868D02*
X14890809Y-16368916D01*
X14890809Y-16368916D02*
X14900333Y-16378440D01*
X14900333Y-16378440D02*
X14919381Y-16387964D01*
X14919381Y-16387964D02*
X14957476Y-16387964D01*
X14957476Y-16387964D02*
X14976524Y-16378440D01*
X14976524Y-16378440D02*
X14986048Y-16368916D01*
X14986048Y-16368916D02*
X14995571Y-16349868D01*
X14995571Y-16349868D02*
X14995571Y-16302249D01*
X14995571Y-16302249D02*
X14986048Y-16283202D01*
X14986048Y-16283202D02*
X14976524Y-16273678D01*
X14976524Y-16273678D02*
X14957476Y-16264154D01*
X14957476Y-16264154D02*
X14919381Y-16264154D01*
X14919381Y-16264154D02*
X14900333Y-16273678D01*
X14900333Y-16273678D02*
X14890809Y-16283202D01*
X14890809Y-16283202D02*
X14881286Y-16302249D01*
X15233667Y-16387964D02*
X15233667Y-16187964D01*
X15319381Y-16387964D02*
X15319381Y-16283202D01*
X15319381Y-16283202D02*
X15309857Y-16264154D01*
X15309857Y-16264154D02*
X15290810Y-16254630D01*
X15290810Y-16254630D02*
X15262238Y-16254630D01*
X15262238Y-16254630D02*
X15243190Y-16264154D01*
X15243190Y-16264154D02*
X15233667Y-16273678D01*
X15443190Y-16387964D02*
X15424143Y-16378440D01*
X15424143Y-16378440D02*
X15414619Y-16368916D01*
X15414619Y-16368916D02*
X15405095Y-16349868D01*
X15405095Y-16349868D02*
X15405095Y-16292726D01*
X15405095Y-16292726D02*
X15414619Y-16273678D01*
X15414619Y-16273678D02*
X15424143Y-16264154D01*
X15424143Y-16264154D02*
X15443190Y-16254630D01*
X15443190Y-16254630D02*
X15471762Y-16254630D01*
X15471762Y-16254630D02*
X15490810Y-16264154D01*
X15490810Y-16264154D02*
X15500333Y-16273678D01*
X15500333Y-16273678D02*
X15509857Y-16292726D01*
X15509857Y-16292726D02*
X15509857Y-16349868D01*
X15509857Y-16349868D02*
X15500333Y-16368916D01*
X15500333Y-16368916D02*
X15490810Y-16378440D01*
X15490810Y-16378440D02*
X15471762Y-16387964D01*
X15471762Y-16387964D02*
X15443190Y-16387964D01*
X15624143Y-16387964D02*
X15605095Y-16378440D01*
X15605095Y-16378440D02*
X15595571Y-16359392D01*
X15595571Y-16359392D02*
X15595571Y-16187964D01*
X15776524Y-16378440D02*
X15757476Y-16387964D01*
X15757476Y-16387964D02*
X15719381Y-16387964D01*
X15719381Y-16387964D02*
X15700333Y-16378440D01*
X15700333Y-16378440D02*
X15690810Y-16359392D01*
X15690810Y-16359392D02*
X15690810Y-16283202D01*
X15690810Y-16283202D02*
X15700333Y-16264154D01*
X15700333Y-16264154D02*
X15719381Y-16254630D01*
X15719381Y-16254630D02*
X15757476Y-16254630D01*
X15757476Y-16254630D02*
X15776524Y-16264154D01*
X15776524Y-16264154D02*
X15786048Y-16283202D01*
X15786048Y-16283202D02*
X15786048Y-16302249D01*
X15786048Y-16302249D02*
X15690810Y-16321297D01*
X15862238Y-16378440D02*
X15881286Y-16387964D01*
X15881286Y-16387964D02*
X15919381Y-16387964D01*
X15919381Y-16387964D02*
X15938429Y-16378440D01*
X15938429Y-16378440D02*
X15947952Y-16359392D01*
X15947952Y-16359392D02*
X15947952Y-16349868D01*
X15947952Y-16349868D02*
X15938429Y-16330821D01*
X15938429Y-16330821D02*
X15919381Y-16321297D01*
X15919381Y-16321297D02*
X15890810Y-16321297D01*
X15890810Y-16321297D02*
X15871762Y-16311773D01*
X15871762Y-16311773D02*
X15862238Y-16292726D01*
X15862238Y-16292726D02*
X15862238Y-16283202D01*
X15862238Y-16283202D02*
X15871762Y-16264154D01*
X15871762Y-16264154D02*
X15890810Y-16254630D01*
X15890810Y-16254630D02*
X15919381Y-16254630D01*
X15919381Y-16254630D02*
X15938429Y-16264154D01*
X16014619Y-16464154D02*
X16024143Y-16454630D01*
X16024143Y-16454630D02*
X16043191Y-16426059D01*
X16043191Y-16426059D02*
X16052714Y-16407011D01*
X16052714Y-16407011D02*
X16062238Y-16378440D01*
X16062238Y-16378440D02*
X16071762Y-16330821D01*
X16071762Y-16330821D02*
X16071762Y-16292726D01*
X16071762Y-16292726D02*
X16062238Y-16245107D01*
X16062238Y-16245107D02*
X16052714Y-16216535D01*
X16052714Y-16216535D02*
X16043191Y-16197488D01*
X16043191Y-16197488D02*
X16024143Y-16168916D01*
X16024143Y-16168916D02*
X16014619Y-16159392D01*
D10*
X11049080Y-16560480D02*
G75*
G03*
X11049080Y-16560480I-50000J0D01*
G01*
D11*
X11414619Y-16651964D02*
X11300333Y-16651964D01*
X11357476Y-16651964D02*
X11357476Y-16451964D01*
X11357476Y-16451964D02*
X11338428Y-16480535D01*
X11338428Y-16480535D02*
X11319381Y-16499583D01*
X11319381Y-16499583D02*
X11300333Y-16509107D01*
X11500333Y-16632916D02*
X11509857Y-16642440D01*
X11509857Y-16642440D02*
X11500333Y-16651964D01*
X11500333Y-16651964D02*
X11490809Y-16642440D01*
X11490809Y-16642440D02*
X11500333Y-16632916D01*
X11500333Y-16632916D02*
X11500333Y-16651964D01*
X11633666Y-16451964D02*
X11652714Y-16451964D01*
X11652714Y-16451964D02*
X11671762Y-16461488D01*
X11671762Y-16461488D02*
X11681285Y-16471011D01*
X11681285Y-16471011D02*
X11690809Y-16490059D01*
X11690809Y-16490059D02*
X11700333Y-16528154D01*
X11700333Y-16528154D02*
X11700333Y-16575773D01*
X11700333Y-16575773D02*
X11690809Y-16613868D01*
X11690809Y-16613868D02*
X11681285Y-16632916D01*
X11681285Y-16632916D02*
X11671762Y-16642440D01*
X11671762Y-16642440D02*
X11652714Y-16651964D01*
X11652714Y-16651964D02*
X11633666Y-16651964D01*
X11633666Y-16651964D02*
X11614619Y-16642440D01*
X11614619Y-16642440D02*
X11605095Y-16632916D01*
X11605095Y-16632916D02*
X11595571Y-16613868D01*
X11595571Y-16613868D02*
X11586047Y-16575773D01*
X11586047Y-16575773D02*
X11586047Y-16528154D01*
X11586047Y-16528154D02*
X11595571Y-16490059D01*
X11595571Y-16490059D02*
X11605095Y-16471011D01*
X11605095Y-16471011D02*
X11614619Y-16461488D01*
X11614619Y-16461488D02*
X11633666Y-16451964D01*
X11824142Y-16451964D02*
X11843190Y-16451964D01*
X11843190Y-16451964D02*
X11862238Y-16461488D01*
X11862238Y-16461488D02*
X11871762Y-16471011D01*
X11871762Y-16471011D02*
X11881285Y-16490059D01*
X11881285Y-16490059D02*
X11890809Y-16528154D01*
X11890809Y-16528154D02*
X11890809Y-16575773D01*
X11890809Y-16575773D02*
X11881285Y-16613868D01*
X11881285Y-16613868D02*
X11871762Y-16632916D01*
X11871762Y-16632916D02*
X11862238Y-16642440D01*
X11862238Y-16642440D02*
X11843190Y-16651964D01*
X11843190Y-16651964D02*
X11824142Y-16651964D01*
X11824142Y-16651964D02*
X11805095Y-16642440D01*
X11805095Y-16642440D02*
X11795571Y-16632916D01*
X11795571Y-16632916D02*
X11786047Y-16613868D01*
X11786047Y-16613868D02*
X11776523Y-16575773D01*
X11776523Y-16575773D02*
X11776523Y-16528154D01*
X11776523Y-16528154D02*
X11786047Y-16490059D01*
X11786047Y-16490059D02*
X11795571Y-16471011D01*
X11795571Y-16471011D02*
X11805095Y-16461488D01*
X11805095Y-16461488D02*
X11824142Y-16451964D01*
X12014619Y-16451964D02*
X12033666Y-16451964D01*
X12033666Y-16451964D02*
X12052714Y-16461488D01*
X12052714Y-16461488D02*
X12062238Y-16471011D01*
X12062238Y-16471011D02*
X12071762Y-16490059D01*
X12071762Y-16490059D02*
X12081285Y-16528154D01*
X12081285Y-16528154D02*
X12081285Y-16575773D01*
X12081285Y-16575773D02*
X12071762Y-16613868D01*
X12071762Y-16613868D02*
X12062238Y-16632916D01*
X12062238Y-16632916D02*
X12052714Y-16642440D01*
X12052714Y-16642440D02*
X12033666Y-16651964D01*
X12033666Y-16651964D02*
X12014619Y-16651964D01*
X12014619Y-16651964D02*
X11995571Y-16642440D01*
X11995571Y-16642440D02*
X11986047Y-16632916D01*
X11986047Y-16632916D02*
X11976523Y-16613868D01*
X11976523Y-16613868D02*
X11967000Y-16575773D01*
X11967000Y-16575773D02*
X11967000Y-16528154D01*
X11967000Y-16528154D02*
X11976523Y-16490059D01*
X11976523Y-16490059D02*
X11986047Y-16471011D01*
X11986047Y-16471011D02*
X11995571Y-16461488D01*
X11995571Y-16461488D02*
X12014619Y-16451964D01*
X12167000Y-16651964D02*
X12167000Y-16518630D01*
X12167000Y-16537678D02*
X12176523Y-16528154D01*
X12176523Y-16528154D02*
X12195571Y-16518630D01*
X12195571Y-16518630D02*
X12224143Y-16518630D01*
X12224143Y-16518630D02*
X12243190Y-16528154D01*
X12243190Y-16528154D02*
X12252714Y-16547202D01*
X12252714Y-16547202D02*
X12252714Y-16651964D01*
X12252714Y-16547202D02*
X12262238Y-16528154D01*
X12262238Y-16528154D02*
X12281285Y-16518630D01*
X12281285Y-16518630D02*
X12309857Y-16518630D01*
X12309857Y-16518630D02*
X12328904Y-16528154D01*
X12328904Y-16528154D02*
X12338428Y-16547202D01*
X12338428Y-16547202D02*
X12338428Y-16651964D01*
X12433666Y-16651964D02*
X12433666Y-16518630D01*
X12433666Y-16537678D02*
X12443190Y-16528154D01*
X12443190Y-16528154D02*
X12462238Y-16518630D01*
X12462238Y-16518630D02*
X12490809Y-16518630D01*
X12490809Y-16518630D02*
X12509857Y-16528154D01*
X12509857Y-16528154D02*
X12519381Y-16547202D01*
X12519381Y-16547202D02*
X12519381Y-16651964D01*
X12519381Y-16547202D02*
X12528904Y-16528154D01*
X12528904Y-16528154D02*
X12547952Y-16518630D01*
X12547952Y-16518630D02*
X12576523Y-16518630D01*
X12576523Y-16518630D02*
X12595571Y-16528154D01*
X12595571Y-16528154D02*
X12605095Y-16547202D01*
X12605095Y-16547202D02*
X12605095Y-16651964D01*
X12995571Y-16442440D02*
X12824143Y-16699583D01*
X13252714Y-16451964D02*
X13271762Y-16451964D01*
X13271762Y-16451964D02*
X13290809Y-16461488D01*
X13290809Y-16461488D02*
X13300333Y-16471011D01*
X13300333Y-16471011D02*
X13309857Y-16490059D01*
X13309857Y-16490059D02*
X13319381Y-16528154D01*
X13319381Y-16528154D02*
X13319381Y-16575773D01*
X13319381Y-16575773D02*
X13309857Y-16613868D01*
X13309857Y-16613868D02*
X13300333Y-16632916D01*
X13300333Y-16632916D02*
X13290809Y-16642440D01*
X13290809Y-16642440D02*
X13271762Y-16651964D01*
X13271762Y-16651964D02*
X13252714Y-16651964D01*
X13252714Y-16651964D02*
X13233666Y-16642440D01*
X13233666Y-16642440D02*
X13224143Y-16632916D01*
X13224143Y-16632916D02*
X13214619Y-16613868D01*
X13214619Y-16613868D02*
X13205095Y-16575773D01*
X13205095Y-16575773D02*
X13205095Y-16528154D01*
X13205095Y-16528154D02*
X13214619Y-16490059D01*
X13214619Y-16490059D02*
X13224143Y-16471011D01*
X13224143Y-16471011D02*
X13233666Y-16461488D01*
X13233666Y-16461488D02*
X13252714Y-16451964D01*
X13405095Y-16632916D02*
X13414619Y-16642440D01*
X13414619Y-16642440D02*
X13405095Y-16651964D01*
X13405095Y-16651964D02*
X13395571Y-16642440D01*
X13395571Y-16642440D02*
X13405095Y-16632916D01*
X13405095Y-16632916D02*
X13405095Y-16651964D01*
X13538428Y-16451964D02*
X13557476Y-16451964D01*
X13557476Y-16451964D02*
X13576524Y-16461488D01*
X13576524Y-16461488D02*
X13586047Y-16471011D01*
X13586047Y-16471011D02*
X13595571Y-16490059D01*
X13595571Y-16490059D02*
X13605095Y-16528154D01*
X13605095Y-16528154D02*
X13605095Y-16575773D01*
X13605095Y-16575773D02*
X13595571Y-16613868D01*
X13595571Y-16613868D02*
X13586047Y-16632916D01*
X13586047Y-16632916D02*
X13576524Y-16642440D01*
X13576524Y-16642440D02*
X13557476Y-16651964D01*
X13557476Y-16651964D02*
X13538428Y-16651964D01*
X13538428Y-16651964D02*
X13519381Y-16642440D01*
X13519381Y-16642440D02*
X13509857Y-16632916D01*
X13509857Y-16632916D02*
X13500333Y-16613868D01*
X13500333Y-16613868D02*
X13490809Y-16575773D01*
X13490809Y-16575773D02*
X13490809Y-16528154D01*
X13490809Y-16528154D02*
X13500333Y-16490059D01*
X13500333Y-16490059D02*
X13509857Y-16471011D01*
X13509857Y-16471011D02*
X13519381Y-16461488D01*
X13519381Y-16461488D02*
X13538428Y-16451964D01*
X13671762Y-16451964D02*
X13795571Y-16451964D01*
X13795571Y-16451964D02*
X13728905Y-16528154D01*
X13728905Y-16528154D02*
X13757476Y-16528154D01*
X13757476Y-16528154D02*
X13776524Y-16537678D01*
X13776524Y-16537678D02*
X13786047Y-16547202D01*
X13786047Y-16547202D02*
X13795571Y-16566249D01*
X13795571Y-16566249D02*
X13795571Y-16613868D01*
X13795571Y-16613868D02*
X13786047Y-16632916D01*
X13786047Y-16632916D02*
X13776524Y-16642440D01*
X13776524Y-16642440D02*
X13757476Y-16651964D01*
X13757476Y-16651964D02*
X13700333Y-16651964D01*
X13700333Y-16651964D02*
X13681286Y-16642440D01*
X13681286Y-16642440D02*
X13671762Y-16632916D01*
X13890809Y-16651964D02*
X13928905Y-16651964D01*
X13928905Y-16651964D02*
X13947952Y-16642440D01*
X13947952Y-16642440D02*
X13957476Y-16632916D01*
X13957476Y-16632916D02*
X13976524Y-16604345D01*
X13976524Y-16604345D02*
X13986047Y-16566249D01*
X13986047Y-16566249D02*
X13986047Y-16490059D01*
X13986047Y-16490059D02*
X13976524Y-16471011D01*
X13976524Y-16471011D02*
X13967000Y-16461488D01*
X13967000Y-16461488D02*
X13947952Y-16451964D01*
X13947952Y-16451964D02*
X13909857Y-16451964D01*
X13909857Y-16451964D02*
X13890809Y-16461488D01*
X13890809Y-16461488D02*
X13881286Y-16471011D01*
X13881286Y-16471011D02*
X13871762Y-16490059D01*
X13871762Y-16490059D02*
X13871762Y-16537678D01*
X13871762Y-16537678D02*
X13881286Y-16556726D01*
X13881286Y-16556726D02*
X13890809Y-16566249D01*
X13890809Y-16566249D02*
X13909857Y-16575773D01*
X13909857Y-16575773D02*
X13947952Y-16575773D01*
X13947952Y-16575773D02*
X13967000Y-16566249D01*
X13967000Y-16566249D02*
X13976524Y-16556726D01*
X13976524Y-16556726D02*
X13986047Y-16537678D01*
X14157476Y-16518630D02*
X14157476Y-16651964D01*
X14109857Y-16442440D02*
X14062238Y-16585297D01*
X14062238Y-16585297D02*
X14186047Y-16585297D01*
X14252714Y-16451964D02*
X14252714Y-16490059D01*
X14328905Y-16451964D02*
X14328905Y-16490059D01*
X14624143Y-16728154D02*
X14614619Y-16718630D01*
X14614619Y-16718630D02*
X14595571Y-16690059D01*
X14595571Y-16690059D02*
X14586048Y-16671011D01*
X14586048Y-16671011D02*
X14576524Y-16642440D01*
X14576524Y-16642440D02*
X14567000Y-16594821D01*
X14567000Y-16594821D02*
X14567000Y-16556726D01*
X14567000Y-16556726D02*
X14576524Y-16509107D01*
X14576524Y-16509107D02*
X14586048Y-16480535D01*
X14586048Y-16480535D02*
X14595571Y-16461488D01*
X14595571Y-16461488D02*
X14614619Y-16432916D01*
X14614619Y-16432916D02*
X14624143Y-16423392D01*
X14690809Y-16471011D02*
X14700333Y-16461488D01*
X14700333Y-16461488D02*
X14719381Y-16451964D01*
X14719381Y-16451964D02*
X14767000Y-16451964D01*
X14767000Y-16451964D02*
X14786048Y-16461488D01*
X14786048Y-16461488D02*
X14795571Y-16471011D01*
X14795571Y-16471011D02*
X14805095Y-16490059D01*
X14805095Y-16490059D02*
X14805095Y-16509107D01*
X14805095Y-16509107D02*
X14795571Y-16537678D01*
X14795571Y-16537678D02*
X14681286Y-16651964D01*
X14681286Y-16651964D02*
X14805095Y-16651964D01*
X15043190Y-16651964D02*
X15043190Y-16451964D01*
X15128905Y-16651964D02*
X15128905Y-16547202D01*
X15128905Y-16547202D02*
X15119381Y-16528154D01*
X15119381Y-16528154D02*
X15100333Y-16518630D01*
X15100333Y-16518630D02*
X15071762Y-16518630D01*
X15071762Y-16518630D02*
X15052714Y-16528154D01*
X15052714Y-16528154D02*
X15043190Y-16537678D01*
X15252714Y-16651964D02*
X15233667Y-16642440D01*
X15233667Y-16642440D02*
X15224143Y-16632916D01*
X15224143Y-16632916D02*
X15214619Y-16613868D01*
X15214619Y-16613868D02*
X15214619Y-16556726D01*
X15214619Y-16556726D02*
X15224143Y-16537678D01*
X15224143Y-16537678D02*
X15233667Y-16528154D01*
X15233667Y-16528154D02*
X15252714Y-16518630D01*
X15252714Y-16518630D02*
X15281286Y-16518630D01*
X15281286Y-16518630D02*
X15300333Y-16528154D01*
X15300333Y-16528154D02*
X15309857Y-16537678D01*
X15309857Y-16537678D02*
X15319381Y-16556726D01*
X15319381Y-16556726D02*
X15319381Y-16613868D01*
X15319381Y-16613868D02*
X15309857Y-16632916D01*
X15309857Y-16632916D02*
X15300333Y-16642440D01*
X15300333Y-16642440D02*
X15281286Y-16651964D01*
X15281286Y-16651964D02*
X15252714Y-16651964D01*
X15433667Y-16651964D02*
X15414619Y-16642440D01*
X15414619Y-16642440D02*
X15405095Y-16623392D01*
X15405095Y-16623392D02*
X15405095Y-16451964D01*
X15586048Y-16642440D02*
X15567000Y-16651964D01*
X15567000Y-16651964D02*
X15528905Y-16651964D01*
X15528905Y-16651964D02*
X15509857Y-16642440D01*
X15509857Y-16642440D02*
X15500333Y-16623392D01*
X15500333Y-16623392D02*
X15500333Y-16547202D01*
X15500333Y-16547202D02*
X15509857Y-16528154D01*
X15509857Y-16528154D02*
X15528905Y-16518630D01*
X15528905Y-16518630D02*
X15567000Y-16518630D01*
X15567000Y-16518630D02*
X15586048Y-16528154D01*
X15586048Y-16528154D02*
X15595571Y-16547202D01*
X15595571Y-16547202D02*
X15595571Y-16566249D01*
X15595571Y-16566249D02*
X15500333Y-16585297D01*
X15671762Y-16642440D02*
X15690810Y-16651964D01*
X15690810Y-16651964D02*
X15728905Y-16651964D01*
X15728905Y-16651964D02*
X15747952Y-16642440D01*
X15747952Y-16642440D02*
X15757476Y-16623392D01*
X15757476Y-16623392D02*
X15757476Y-16613868D01*
X15757476Y-16613868D02*
X15747952Y-16594821D01*
X15747952Y-16594821D02*
X15728905Y-16585297D01*
X15728905Y-16585297D02*
X15700333Y-16585297D01*
X15700333Y-16585297D02*
X15681286Y-16575773D01*
X15681286Y-16575773D02*
X15671762Y-16556726D01*
X15671762Y-16556726D02*
X15671762Y-16547202D01*
X15671762Y-16547202D02*
X15681286Y-16528154D01*
X15681286Y-16528154D02*
X15700333Y-16518630D01*
X15700333Y-16518630D02*
X15728905Y-16518630D01*
X15728905Y-16518630D02*
X15747952Y-16528154D01*
X15824143Y-16728154D02*
X15833667Y-16718630D01*
X15833667Y-16718630D02*
X15852714Y-16690059D01*
X15852714Y-16690059D02*
X15862238Y-16671011D01*
X15862238Y-16671011D02*
X15871762Y-16642440D01*
X15871762Y-16642440D02*
X15881286Y-16594821D01*
X15881286Y-16594821D02*
X15881286Y-16556726D01*
X15881286Y-16556726D02*
X15871762Y-16509107D01*
X15871762Y-16509107D02*
X15862238Y-16480535D01*
X15862238Y-16480535D02*
X15852714Y-16461488D01*
X15852714Y-16461488D02*
X15833667Y-16432916D01*
X15833667Y-16432916D02*
X15824143Y-16423392D01*
M02*
