%TF.GenerationSoftware,KiCad,Pcbnew,7.0.9*%
%TF.CreationDate,2024-05-05T23:45:12+02:00*%
%TF.ProjectId,esp32_c3_custom_board,65737033-325f-4633-935f-637573746f6d,rev?*%
%TF.SameCoordinates,Original*%
%TF.FileFunction,Paste,Top*%
%TF.FilePolarity,Positive*%
%FSLAX46Y46*%
G04 Gerber Fmt 4.6, Leading zero omitted, Abs format (unit mm)*
G04 Created by KiCad (PCBNEW 7.0.9) date 2024-05-05 23:45:12*
%MOMM*%
%LPD*%
G01*
G04 APERTURE LIST*
G04 Aperture macros list*
%AMRoundRect*
0 Rectangle with rounded corners*
0 $1 Rounding radius*
0 $2 $3 $4 $5 $6 $7 $8 $9 X,Y pos of 4 corners*
0 Add a 4 corners polygon primitive as box body*
4,1,4,$2,$3,$4,$5,$6,$7,$8,$9,$2,$3,0*
0 Add four circle primitives for the rounded corners*
1,1,$1+$1,$2,$3*
1,1,$1+$1,$4,$5*
1,1,$1+$1,$6,$7*
1,1,$1+$1,$8,$9*
0 Add four rect primitives between the rounded corners*
20,1,$1+$1,$2,$3,$4,$5,0*
20,1,$1+$1,$4,$5,$6,$7,0*
20,1,$1+$1,$6,$7,$8,$9,0*
20,1,$1+$1,$8,$9,$2,$3,0*%
G04 Aperture macros list end*
%ADD10RoundRect,0.079500X-0.100500X0.079500X-0.100500X-0.079500X0.100500X-0.079500X0.100500X0.079500X0*%
%ADD11RoundRect,0.079500X-0.079500X-0.100500X0.079500X-0.100500X0.079500X0.100500X-0.079500X0.100500X0*%
%ADD12R,1.300000X0.500000*%
%ADD13R,0.870000X0.500000*%
%ADD14R,0.500000X0.500000*%
%ADD15R,0.900000X0.500000*%
%ADD16RoundRect,0.079500X0.100500X-0.079500X0.100500X0.079500X-0.100500X0.079500X-0.100500X-0.079500X0*%
%ADD17R,1.750000X1.200000*%
%ADD18RoundRect,0.079500X0.079500X0.100500X-0.079500X0.100500X-0.079500X-0.100500X0.079500X-0.100500X0*%
%ADD19R,0.500000X0.350000*%
%ADD20R,1.150000X0.600000*%
%ADD21R,0.600000X1.200000*%
%ADD22R,0.800000X0.300000*%
%ADD23R,0.300000X0.800000*%
%ADD24R,3.750000X3.750000*%
%ADD25R,1.000000X0.900000*%
%ADD26R,0.500000X1.300000*%
%ADD27R,0.500000X0.870000*%
%ADD28R,1.200000X0.600000*%
%ADD29R,1.150000X0.300000*%
%ADD30R,1.500000X1.500000*%
%ADD31R,1.525000X0.650000*%
G04 APERTURE END LIST*
D10*
%TO.C,C3*%
X118059200Y-140660600D03*
X118059200Y-141350600D03*
%TD*%
D11*
%TO.C,C4*%
X117343400Y-142463600D03*
X118033400Y-142463600D03*
%TD*%
%TO.C,R12*%
X130018400Y-134924800D03*
X130708400Y-134924800D03*
%TD*%
D12*
%TO.C,D1*%
X145039800Y-141376400D03*
D13*
X146354800Y-141376400D03*
%TD*%
D14*
%TO.C,MonoAnt1*%
X122766400Y-150977600D03*
D15*
X124866400Y-150977600D03*
%TD*%
D11*
%TO.C,C7*%
X146431400Y-144068800D03*
X147121400Y-144068800D03*
%TD*%
%TO.C,R7*%
X140563600Y-152755600D03*
X141253600Y-152755600D03*
%TD*%
D10*
%TO.C,C9*%
X140650000Y-147569400D03*
X140650000Y-148259400D03*
%TD*%
D11*
%TO.C,R8*%
X140584800Y-154127200D03*
X141274800Y-154127200D03*
%TD*%
D16*
%TO.C,C13*%
X141020800Y-140055600D03*
X141020800Y-139365600D03*
%TD*%
%TO.C,R6*%
X123596400Y-138028200D03*
X123596400Y-137338200D03*
%TD*%
D11*
%TO.C,R1*%
X129256400Y-145288000D03*
X129946400Y-145288000D03*
%TD*%
D17*
%TO.C,S1*%
X133856400Y-134823200D03*
X140106400Y-134823200D03*
%TD*%
D18*
%TO.C,R9*%
X144972600Y-150723600D03*
X144282600Y-150723600D03*
%TD*%
D10*
%TO.C,C5*%
X142341600Y-154091600D03*
X142341600Y-154781600D03*
%TD*%
D18*
%TO.C,L3*%
X147370800Y-137312400D03*
X146680800Y-137312400D03*
%TD*%
D19*
%TO.C,HM1*%
X134264400Y-146568400D03*
X134264400Y-147218400D03*
X134264400Y-147868400D03*
X134264400Y-148518400D03*
X132214400Y-148518400D03*
X132214400Y-147868400D03*
X132214400Y-147218400D03*
X132214400Y-146568400D03*
%TD*%
D11*
%TO.C,R5*%
X129230600Y-140665200D03*
X129920600Y-140665200D03*
%TD*%
D20*
%TO.C,U2*%
X142472600Y-144099200D03*
X142472600Y-145049200D03*
X142472600Y-145999200D03*
X144972600Y-145999200D03*
X144972600Y-144099200D03*
%TD*%
D10*
%TO.C,C10*%
X144256800Y-147421600D03*
X144256800Y-148111600D03*
%TD*%
%TO.C,R14*%
X135991600Y-146747800D03*
X135991600Y-147437800D03*
%TD*%
%TO.C,C17*%
X148386800Y-132863200D03*
X148386800Y-133553200D03*
%TD*%
D11*
%TO.C,R2*%
X129205600Y-139547600D03*
X129895600Y-139547600D03*
%TD*%
D21*
%TO.C,IC3*%
X144759600Y-135645200D03*
X145709600Y-135645200D03*
X146659600Y-135645200D03*
X146659600Y-133045200D03*
X144759600Y-133045200D03*
%TD*%
D22*
%TO.C,IC1*%
X122620400Y-140490000D03*
X122620400Y-140990000D03*
X122620400Y-141490000D03*
X122620400Y-141990000D03*
X122620400Y-142490000D03*
X122620400Y-142990000D03*
X122620400Y-143490000D03*
X122620400Y-143990000D03*
D23*
X123370400Y-144740000D03*
X123870400Y-144740000D03*
X124370400Y-144740000D03*
X124870400Y-144740000D03*
X125370400Y-144740000D03*
X125870400Y-144740000D03*
X126370400Y-144740000D03*
X126870400Y-144740000D03*
D22*
X127620400Y-143990000D03*
X127620400Y-143490000D03*
X127620400Y-142990000D03*
X127620400Y-142490000D03*
X127620400Y-141990000D03*
X127620400Y-141490000D03*
X127620400Y-140990000D03*
X127620400Y-140490000D03*
D23*
X126870400Y-139740000D03*
X126370400Y-139740000D03*
X125870400Y-139740000D03*
X125370400Y-139740000D03*
X124870400Y-139740000D03*
X124370400Y-139740000D03*
X123870400Y-139740000D03*
X123370400Y-139740000D03*
D24*
X125120400Y-142240000D03*
%TD*%
D11*
%TO.C,R3*%
X129992600Y-144373600D03*
X130682600Y-144373600D03*
%TD*%
D10*
%TO.C,C16*%
X129590800Y-147743400D03*
X129590800Y-148433400D03*
%TD*%
D11*
%TO.C,C8*%
X146426800Y-146100800D03*
X147116800Y-146100800D03*
%TD*%
%TO.C,C18*%
X148991800Y-137312400D03*
X149681800Y-137312400D03*
%TD*%
D18*
%TO.C,L2*%
X143230200Y-147574000D03*
X142540200Y-147574000D03*
%TD*%
D10*
%TO.C,C11*%
X141630400Y-147549000D03*
X141630400Y-148239000D03*
%TD*%
D11*
%TO.C,R10*%
X144231800Y-149606000D03*
X144921800Y-149606000D03*
%TD*%
D25*
%TO.C,Y1*%
X121387600Y-134416800D03*
X123037600Y-134416800D03*
X123037600Y-133190800D03*
X121387600Y-133190800D03*
%TD*%
D10*
%TO.C,C15*%
X130708400Y-147717600D03*
X130708400Y-148407600D03*
%TD*%
D11*
%TO.C,R4*%
X129510400Y-141681200D03*
X130200400Y-141681200D03*
%TD*%
D10*
%TO.C,C14*%
X130708400Y-136144000D03*
X130708400Y-136834000D03*
%TD*%
D16*
%TO.C,C6*%
X142280000Y-152800400D03*
X142280000Y-152110400D03*
%TD*%
D26*
%TO.C,D2*%
X135331200Y-154223000D03*
D27*
X135331200Y-152908000D03*
%TD*%
D11*
%TO.C,C1*%
X125471400Y-136652000D03*
X126161400Y-136652000D03*
%TD*%
%TO.C,R11*%
X142058000Y-142290800D03*
X142748000Y-142290800D03*
%TD*%
D28*
%TO.C,U1*%
X143905600Y-152466000D03*
X143905600Y-153416000D03*
X143905600Y-154366000D03*
X146405600Y-154366000D03*
X146405600Y-153416000D03*
X146405600Y-152466000D03*
%TD*%
D10*
%TO.C,R15*%
X137617200Y-148814400D03*
X137617200Y-149504400D03*
%TD*%
%TO.C,R17*%
X143357600Y-132766200D03*
X143357600Y-133456200D03*
%TD*%
%TO.C,R13*%
X133299200Y-154605600D03*
X133299200Y-155295600D03*
%TD*%
D11*
%TO.C,R16*%
X144242400Y-137312400D03*
X144932400Y-137312400D03*
%TD*%
%TO.C,C2*%
X120594600Y-137312400D03*
X121284600Y-137312400D03*
%TD*%
D20*
%TO.C,J1*%
X150130200Y-152795200D03*
X150130200Y-151995200D03*
D29*
X150130200Y-150845200D03*
X150130200Y-149845200D03*
X150130200Y-149345200D03*
X150130200Y-148345200D03*
D20*
X150130200Y-147195200D03*
X150130200Y-146395200D03*
D29*
X150130200Y-147845200D03*
X150130200Y-148845200D03*
X150130200Y-150345200D03*
X150130200Y-151345200D03*
D30*
X150705200Y-154715200D03*
X150705200Y-144475200D03*
X154635200Y-154715200D03*
X154635200Y-144475200D03*
%TD*%
D16*
%TO.C,L1*%
X116992400Y-141401400D03*
X116992400Y-140711400D03*
%TD*%
D31*
%TO.C,IC2*%
X133666400Y-139750800D03*
X133666400Y-141020800D03*
X133666400Y-142290800D03*
X133666400Y-143560800D03*
X139090400Y-143560800D03*
X139090400Y-142290800D03*
X139090400Y-141020800D03*
X139090400Y-139750800D03*
%TD*%
D10*
%TO.C,C12*%
X142087600Y-139365600D03*
X142087600Y-140055600D03*
%TD*%
M02*
