%TF.GenerationSoftware,KiCad,Pcbnew,7.0.9*%
%TF.CreationDate,2024-06-27T19:07:32+02:00*%
%TF.ProjectId,esp32_c3_custom_board,65737033-325f-4633-935f-637573746f6d,rev?*%
%TF.SameCoordinates,Original*%
%TF.FileFunction,Copper,L2,Bot*%
%TF.FilePolarity,Positive*%
%FSLAX46Y46*%
G04 Gerber Fmt 4.6, Leading zero omitted, Abs format (unit mm)*
G04 Created by KiCad (PCBNEW 7.0.9) date 2024-06-27 19:07:32*
%MOMM*%
%LPD*%
G01*
G04 APERTURE LIST*
%TA.AperFunction,ComponentPad*%
%ADD10C,1.200000*%
%TD*%
%TA.AperFunction,ComponentPad*%
%ADD11R,0.500000X0.900000*%
%TD*%
%TA.AperFunction,ViaPad*%
%ADD12C,0.800000*%
%TD*%
%TA.AperFunction,Conductor*%
%ADD13C,0.250000*%
%TD*%
%TA.AperFunction,Conductor*%
%ADD14C,0.200000*%
%TD*%
G04 APERTURE END LIST*
D10*
%TO.P,I2C1,1,V+*%
%TO.N,/SDA*%
X129524000Y-147701000D03*
%TO.P,I2C1,2,V-*%
%TO.N,/SCL*%
X127524000Y-147701000D03*
%TD*%
%TO.P,UART1,1,V+*%
%TO.N,/UART_RX*%
X146844000Y-125984000D03*
%TO.P,UART1,2,V-*%
%TO.N,/UART_TX*%
X148844000Y-125984000D03*
%TD*%
D11*
%TO.P,MonoAnt1,2,Gnd*%
%TO.N,GND*%
X118449000Y-143810000D03*
%TD*%
D10*
%TO.P,VppExt1,1,V+*%
%TO.N,Net-(EX-Vpp1-EN)*%
X171196000Y-125381000D03*
%TO.P,VppExt1,2,V-*%
%TO.N,GND*%
X171196000Y-127381000D03*
%TD*%
D12*
%TO.N,GND*%
X153416000Y-133477000D03*
X154559000Y-125603000D03*
X128524000Y-143002000D03*
X151130000Y-148082000D03*
X127635000Y-125222000D03*
X143510000Y-142621000D03*
X124460000Y-146685000D03*
X169672000Y-124587000D03*
X151511000Y-125603000D03*
X169672000Y-126238000D03*
X137287000Y-144272000D03*
X161163000Y-148082000D03*
X167005000Y-126365000D03*
X145034000Y-128778000D03*
X161417000Y-128143000D03*
X164465000Y-146685000D03*
X156337000Y-133477000D03*
X147828000Y-128778000D03*
X126619000Y-145288000D03*
X149479000Y-134747000D03*
X151003000Y-136271000D03*
X158369000Y-146431000D03*
X151384000Y-146431000D03*
X119761000Y-146431000D03*
X140843000Y-142621000D03*
X128778000Y-139700000D03*
X150622000Y-131953000D03*
X152781000Y-137287000D03*
X147701000Y-142494000D03*
X137795000Y-130302000D03*
X159131000Y-133350000D03*
X125603000Y-142748000D03*
X152400000Y-126492000D03*
X158115000Y-133350000D03*
X147955000Y-147955000D03*
X122936000Y-126492000D03*
X166497000Y-124460000D03*
X129921000Y-138684000D03*
X128778000Y-138684000D03*
X132207000Y-142494000D03*
X135509000Y-142621000D03*
X153035000Y-141732000D03*
X139573000Y-128270000D03*
X154940000Y-133477000D03*
X125095000Y-124206000D03*
X151892000Y-141732000D03*
X162814000Y-127000000D03*
X127762000Y-137668000D03*
X128651000Y-131953000D03*
X141859000Y-125476000D03*
X120015000Y-134874000D03*
X127762000Y-138684000D03*
X149479000Y-129159000D03*
X127889000Y-133858000D03*
X129921000Y-137668000D03*
X158369000Y-148082000D03*
X129921000Y-139700000D03*
X156210000Y-130937000D03*
X146050000Y-142748000D03*
X153416000Y-129286000D03*
X136525000Y-131191000D03*
X128778000Y-137668000D03*
X162052000Y-130175000D03*
X144272000Y-132969000D03*
X144272000Y-126111000D03*
X147701000Y-130810000D03*
X163576000Y-147574000D03*
X121920000Y-133604000D03*
X120142000Y-137541000D03*
X163068000Y-129159000D03*
X127762000Y-139700000D03*
X153035000Y-124079000D03*
X144145000Y-131064000D03*
X147828000Y-146304000D03*
X141351000Y-132842000D03*
X121920000Y-130302000D03*
X125222000Y-127508000D03*
X137160000Y-125857000D03*
%TO.N,+3.3V*%
X125222000Y-133604000D03*
X124460000Y-136906000D03*
X133096000Y-129540000D03*
X124968000Y-138938000D03*
%TO.N,/SDA*%
X134366000Y-132207000D03*
X131191000Y-145923000D03*
%TO.N,/SCL*%
X133477000Y-132931500D03*
X125349000Y-148082000D03*
%TO.N,Net-(IC1-CHIP_EN)*%
X124587000Y-140081000D03*
X160274000Y-136271000D03*
%TO.N,VBUS*%
X156210000Y-140843000D03*
X160020000Y-141097000D03*
%TO.N,/GPIO10*%
X134747000Y-147701000D03*
%TO.N,/SPI_CS*%
X139954000Y-136525000D03*
X133709945Y-138621455D03*
%TO.N,/UART_RX*%
X135197636Y-131110424D03*
X146558000Y-127762000D03*
%TO.N,Net-(IC1-SPIHD)*%
X135763000Y-139446000D03*
X145923000Y-136144000D03*
%TO.N,/UART_TX*%
X148844000Y-127762000D03*
X134366000Y-130556000D03*
%TO.N,Net-(IC1-SPICLK)*%
X149225000Y-137795000D03*
X133854148Y-137561091D03*
%TO.N,Net-(IC1-SPID)*%
X132969000Y-136868500D03*
X150622000Y-137795000D03*
%TO.N,Net-(IC1-GPIO18)*%
X132969000Y-134620000D03*
X137668000Y-146177000D03*
%TO.N,Net-(IC1-GPIO19)*%
X139319000Y-143383000D03*
X135001000Y-133731000D03*
%TO.N,/USB_DP_1*%
X146558000Y-144272000D03*
X165481000Y-143256000D03*
%TO.N,/USB_DN_1*%
X165467622Y-144258622D03*
X146812000Y-147193000D03*
%TD*%
D13*
%TO.N,+3.3V*%
X133096000Y-130302000D02*
X133096000Y-129540000D01*
X125984000Y-132842000D02*
X130556000Y-132842000D01*
X130556000Y-132842000D02*
X133096000Y-130302000D01*
X124460000Y-138430000D02*
X124968000Y-138938000D01*
X125222000Y-133604000D02*
X125984000Y-132842000D01*
X124460000Y-136906000D02*
X124460000Y-138430000D01*
%TO.N,/SDA*%
X132588000Y-132207000D02*
X130683000Y-134112000D01*
X130683000Y-134112000D02*
X130683000Y-145415000D01*
X130683000Y-145415000D02*
X131191000Y-145923000D01*
X134366000Y-132207000D02*
X132588000Y-132207000D01*
%TO.N,/SCL*%
X130429000Y-149352000D02*
X126619000Y-149352000D01*
X131191000Y-144399000D02*
X132207000Y-145415000D01*
X131191000Y-134493000D02*
X131191000Y-144399000D01*
X132207000Y-145415000D02*
X132207000Y-147574000D01*
X126619000Y-149352000D02*
X125349000Y-148082000D01*
X132207000Y-147574000D02*
X130429000Y-149352000D01*
X132752500Y-132931500D02*
X131191000Y-134493000D01*
X133477000Y-132931500D02*
X132752500Y-132931500D01*
%TO.N,Net-(IC1-CHIP_EN)*%
X122936000Y-128397000D02*
X122936000Y-138430000D01*
X122936000Y-138430000D02*
X124587000Y-140081000D01*
X151511000Y-124079000D02*
X127254000Y-124079000D01*
X160274000Y-136271000D02*
X160274000Y-132842000D01*
X127254000Y-124079000D02*
X122936000Y-128397000D01*
X160274000Y-132842000D02*
X151511000Y-124079000D01*
%TO.N,VBUS*%
X156464000Y-141097000D02*
X156210000Y-140843000D01*
X160020000Y-141097000D02*
X156464000Y-141097000D01*
%TO.N,/SPI_CS*%
X133920545Y-138621455D02*
X136525000Y-136017000D01*
X136525000Y-136017000D02*
X139446000Y-136017000D01*
X139446000Y-136017000D02*
X139954000Y-136525000D01*
X133709945Y-138621455D02*
X133920545Y-138621455D01*
%TO.N,/UART_RX*%
X143858299Y-127359000D02*
X146155000Y-127359000D01*
X143753299Y-127254000D02*
X143858299Y-127359000D01*
X135208576Y-131110424D02*
X139065000Y-127254000D01*
X139065000Y-127254000D02*
X143753299Y-127254000D01*
X135197636Y-131110424D02*
X135208576Y-131110424D01*
X146155000Y-127359000D02*
X146558000Y-127762000D01*
%TO.N,Net-(IC1-SPIHD)*%
X139573000Y-139446000D02*
X135763000Y-139446000D01*
X142875000Y-136144000D02*
X139573000Y-139446000D01*
X145923000Y-136144000D02*
X142875000Y-136144000D01*
%TO.N,/UART_TX*%
X143881695Y-126746000D02*
X144044695Y-126909000D01*
X144044695Y-126909000D02*
X147991000Y-126909000D01*
X138176000Y-126746000D02*
X143881695Y-126746000D01*
X134366000Y-130556000D02*
X138176000Y-126746000D01*
X147991000Y-126909000D02*
X148844000Y-127762000D01*
%TO.N,Net-(IC1-SPICLK)*%
X134091909Y-137561091D02*
X136525000Y-135128000D01*
X146558000Y-135128000D02*
X149225000Y-137795000D01*
X133854148Y-137561091D02*
X134091909Y-137561091D01*
X136525000Y-135128000D02*
X146558000Y-135128000D01*
%TO.N,Net-(IC1-SPID)*%
X132969000Y-136868500D02*
X133641500Y-136868500D01*
X133641500Y-136868500D02*
X136144000Y-134366000D01*
X147193000Y-134366000D02*
X150622000Y-137795000D01*
X136144000Y-134366000D02*
X147193000Y-134366000D01*
%TO.N,Net-(IC1-GPIO18)*%
X137668000Y-146177000D02*
X131794000Y-140303000D01*
X131794000Y-135795000D02*
X132969000Y-134620000D01*
X131794000Y-140303000D02*
X131794000Y-135795000D01*
%TO.N,Net-(IC1-GPIO19)*%
X132244000Y-138180815D02*
X132244000Y-136488000D01*
X139319000Y-143383000D02*
X137446185Y-143383000D01*
X132244000Y-136488000D02*
X135001000Y-133731000D01*
X137446185Y-143383000D02*
X132244000Y-138180815D01*
D14*
%TO.N,/USB_DP_1*%
X165481000Y-143256000D02*
X164465000Y-144272000D01*
X164465000Y-144272000D02*
X146558000Y-144272000D01*
%TO.N,/USB_DN_1*%
X165467622Y-144285378D02*
X162560000Y-147193000D01*
X162560000Y-147193000D02*
X146812000Y-147193000D01*
X165467622Y-144258622D02*
X165467622Y-144285378D01*
%TD*%
%TA.AperFunction,Conductor*%
%TO.N,GND*%
G36*
X127022293Y-123510185D02*
G01*
X127068048Y-123562989D01*
X127077992Y-123632147D01*
X127048967Y-123695703D01*
X127011551Y-123724983D01*
X127000783Y-123730469D01*
X127000779Y-123730472D01*
X126905470Y-123825782D01*
X122665339Y-128065912D01*
X122587472Y-128143778D01*
X122576510Y-128165293D01*
X122566346Y-128181878D01*
X122552152Y-128201414D01*
X122552151Y-128201417D01*
X122544688Y-128224385D01*
X122537243Y-128242358D01*
X122526280Y-128263873D01*
X122522503Y-128287722D01*
X122517962Y-128306639D01*
X122510500Y-128329604D01*
X122510500Y-138497394D01*
X122517962Y-138520358D01*
X122522503Y-138539273D01*
X122525470Y-138558010D01*
X122526281Y-138563127D01*
X122537243Y-138584641D01*
X122544688Y-138602615D01*
X122552150Y-138625580D01*
X122566340Y-138645110D01*
X122576508Y-138661703D01*
X122587470Y-138683218D01*
X123849911Y-139945659D01*
X123883396Y-140006982D01*
X123885326Y-140048283D01*
X123881355Y-140080995D01*
X123881355Y-140080999D01*
X123901859Y-140249869D01*
X123901860Y-140249874D01*
X123962182Y-140408931D01*
X123981702Y-140437210D01*
X124058817Y-140548929D01*
X124164505Y-140642560D01*
X124186150Y-140661736D01*
X124310973Y-140727248D01*
X124336775Y-140740790D01*
X124501944Y-140781500D01*
X124672056Y-140781500D01*
X124837225Y-140740790D01*
X124964234Y-140674130D01*
X124987849Y-140661736D01*
X124987850Y-140661734D01*
X124987852Y-140661734D01*
X125115183Y-140548929D01*
X125211818Y-140408930D01*
X125272140Y-140249872D01*
X125292645Y-140081000D01*
X125272140Y-139912128D01*
X125211818Y-139753070D01*
X125211817Y-139753068D01*
X125208331Y-139746426D01*
X125210562Y-139745254D01*
X125192470Y-139690377D01*
X125209941Y-139622727D01*
X125258775Y-139576507D01*
X125368852Y-139518734D01*
X125496183Y-139405929D01*
X125592818Y-139265930D01*
X125653140Y-139106872D01*
X125673645Y-138938000D01*
X125653140Y-138769128D01*
X125592818Y-138610070D01*
X125581267Y-138593336D01*
X125558476Y-138560318D01*
X125496183Y-138470071D01*
X125400568Y-138385364D01*
X125368849Y-138357263D01*
X125218226Y-138278210D01*
X125053056Y-138237500D01*
X125009500Y-138237500D01*
X124942461Y-138217815D01*
X124896706Y-138165011D01*
X124885500Y-138113500D01*
X124885500Y-137520705D01*
X124905185Y-137453666D01*
X124927274Y-137427889D01*
X124988182Y-137373930D01*
X125084817Y-137233931D01*
X125084816Y-137233931D01*
X125084818Y-137233930D01*
X125145140Y-137074872D01*
X125165645Y-136906000D01*
X125145140Y-136737128D01*
X125140440Y-136724736D01*
X125095773Y-136606957D01*
X125084818Y-136578070D01*
X124988183Y-136438071D01*
X124860852Y-136325266D01*
X124860849Y-136325263D01*
X124710226Y-136246210D01*
X124545056Y-136205500D01*
X124374944Y-136205500D01*
X124209773Y-136246210D01*
X124059150Y-136325263D01*
X123931816Y-136438072D01*
X123835182Y-136578068D01*
X123774860Y-136737125D01*
X123774859Y-136737130D01*
X123754355Y-136906000D01*
X123774859Y-137074869D01*
X123774860Y-137074874D01*
X123835182Y-137233931D01*
X123931817Y-137373930D01*
X123992726Y-137427889D01*
X124029853Y-137487078D01*
X124034500Y-137520705D01*
X124034500Y-138497394D01*
X124041962Y-138520358D01*
X124046503Y-138539273D01*
X124049470Y-138558010D01*
X124050281Y-138563127D01*
X124061243Y-138584641D01*
X124068688Y-138602615D01*
X124076150Y-138625582D01*
X124076859Y-138626972D01*
X124077210Y-138628841D01*
X124079166Y-138634861D01*
X124078387Y-138635113D01*
X124089753Y-138695641D01*
X124063473Y-138760381D01*
X124006365Y-138800635D01*
X123936560Y-138803625D01*
X123878691Y-138770943D01*
X123397819Y-138290071D01*
X123364334Y-138228748D01*
X123361500Y-138202390D01*
X123361500Y-133604000D01*
X124516355Y-133604000D01*
X124536859Y-133772869D01*
X124536860Y-133772874D01*
X124597182Y-133931931D01*
X124647047Y-134004172D01*
X124693817Y-134071929D01*
X124784279Y-134152071D01*
X124821150Y-134184736D01*
X124971773Y-134263789D01*
X124971775Y-134263790D01*
X125136944Y-134304500D01*
X125307056Y-134304500D01*
X125472225Y-134263790D01*
X125595806Y-134198929D01*
X125622849Y-134184736D01*
X125622850Y-134184734D01*
X125622852Y-134184734D01*
X125750183Y-134071929D01*
X125846818Y-133931930D01*
X125907140Y-133772872D01*
X125927645Y-133604000D01*
X125923672Y-133571285D01*
X125935131Y-133502365D01*
X125959081Y-133468665D01*
X126123930Y-133303816D01*
X126185253Y-133270334D01*
X126211610Y-133267500D01*
X130626390Y-133267500D01*
X130693429Y-133287185D01*
X130739184Y-133339989D01*
X130749128Y-133409147D01*
X130720103Y-133472703D01*
X130714071Y-133479181D01*
X130429780Y-133763472D01*
X130334471Y-133858780D01*
X130323510Y-133880293D01*
X130313346Y-133896878D01*
X130299152Y-133916414D01*
X130299151Y-133916417D01*
X130291688Y-133939385D01*
X130284243Y-133957358D01*
X130273280Y-133978873D01*
X130269503Y-134002722D01*
X130264962Y-134021639D01*
X130257500Y-134044604D01*
X130257500Y-145482394D01*
X130264962Y-145505358D01*
X130269503Y-145524273D01*
X130272470Y-145543010D01*
X130273281Y-145548127D01*
X130284243Y-145569641D01*
X130291688Y-145587615D01*
X130299150Y-145610580D01*
X130313340Y-145630110D01*
X130323508Y-145646703D01*
X130334470Y-145668218D01*
X130453911Y-145787659D01*
X130487396Y-145848982D01*
X130489326Y-145890283D01*
X130485355Y-145922995D01*
X130485355Y-145922999D01*
X130505859Y-146091869D01*
X130505860Y-146091874D01*
X130566182Y-146250931D01*
X130600499Y-146300647D01*
X130662817Y-146390929D01*
X130768505Y-146484560D01*
X130790150Y-146503736D01*
X130940773Y-146582789D01*
X130940775Y-146582790D01*
X131105944Y-146623500D01*
X131276056Y-146623500D01*
X131441225Y-146582790D01*
X131535691Y-146533210D01*
X131598493Y-146500249D01*
X131599848Y-146502831D01*
X131653368Y-146485160D01*
X131721026Y-146502600D01*
X131768515Y-146553850D01*
X131781500Y-146609091D01*
X131781500Y-147346390D01*
X131761815Y-147413429D01*
X131745181Y-147434071D01*
X130289071Y-148890181D01*
X130227748Y-148923666D01*
X130201390Y-148926500D01*
X126846610Y-148926500D01*
X126779571Y-148906815D01*
X126758929Y-148890181D01*
X126086087Y-148217339D01*
X126052602Y-148156016D01*
X126050672Y-148114715D01*
X126054645Y-148082000D01*
X126034140Y-147913128D01*
X125973818Y-147754070D01*
X125937186Y-147701000D01*
X126618540Y-147701000D01*
X126638326Y-147889256D01*
X126638327Y-147889259D01*
X126696818Y-148069277D01*
X126696821Y-148069284D01*
X126791467Y-148233216D01*
X126918129Y-148373888D01*
X127071265Y-148485148D01*
X127071270Y-148485151D01*
X127244192Y-148562142D01*
X127244197Y-148562144D01*
X127429354Y-148601500D01*
X127429355Y-148601500D01*
X127618644Y-148601500D01*
X127618646Y-148601500D01*
X127803803Y-148562144D01*
X127976730Y-148485151D01*
X128129871Y-148373888D01*
X128256533Y-148233216D01*
X128351179Y-148069284D01*
X128406069Y-147900351D01*
X128445506Y-147842675D01*
X128509865Y-147815477D01*
X128578711Y-147827392D01*
X128630187Y-147874636D01*
X128641931Y-147900351D01*
X128696818Y-148069277D01*
X128696821Y-148069284D01*
X128791467Y-148233216D01*
X128918129Y-148373888D01*
X129071265Y-148485148D01*
X129071270Y-148485151D01*
X129244192Y-148562142D01*
X129244197Y-148562144D01*
X129429354Y-148601500D01*
X129429355Y-148601500D01*
X129618644Y-148601500D01*
X129618646Y-148601500D01*
X129803803Y-148562144D01*
X129976730Y-148485151D01*
X130129871Y-148373888D01*
X130256533Y-148233216D01*
X130351179Y-148069284D01*
X130409674Y-147889256D01*
X130429460Y-147701000D01*
X130409674Y-147512744D01*
X130351179Y-147332716D01*
X130256533Y-147168784D01*
X130129871Y-147028112D01*
X130129870Y-147028111D01*
X129976734Y-146916851D01*
X129976729Y-146916848D01*
X129803807Y-146839857D01*
X129803802Y-146839855D01*
X129658001Y-146808865D01*
X129618646Y-146800500D01*
X129429354Y-146800500D01*
X129396897Y-146807398D01*
X129244197Y-146839855D01*
X129244192Y-146839857D01*
X129071270Y-146916848D01*
X129071265Y-146916851D01*
X128918129Y-147028111D01*
X128791466Y-147168785D01*
X128696821Y-147332715D01*
X128696818Y-147332722D01*
X128641931Y-147501648D01*
X128602493Y-147559324D01*
X128538135Y-147586522D01*
X128469288Y-147574607D01*
X128417813Y-147527363D01*
X128406069Y-147501648D01*
X128351181Y-147332722D01*
X128351180Y-147332721D01*
X128351179Y-147332716D01*
X128256533Y-147168784D01*
X128129871Y-147028112D01*
X128129870Y-147028111D01*
X127976734Y-146916851D01*
X127976729Y-146916848D01*
X127803807Y-146839857D01*
X127803802Y-146839855D01*
X127658001Y-146808865D01*
X127618646Y-146800500D01*
X127429354Y-146800500D01*
X127396897Y-146807398D01*
X127244197Y-146839855D01*
X127244192Y-146839857D01*
X127071270Y-146916848D01*
X127071265Y-146916851D01*
X126918129Y-147028111D01*
X126791466Y-147168785D01*
X126696821Y-147332715D01*
X126696818Y-147332722D01*
X126642056Y-147501263D01*
X126638326Y-147512744D01*
X126618540Y-147701000D01*
X125937186Y-147701000D01*
X125877183Y-147614071D01*
X125754690Y-147505552D01*
X125749849Y-147501263D01*
X125599226Y-147422210D01*
X125434056Y-147381500D01*
X125263944Y-147381500D01*
X125098773Y-147422210D01*
X124948150Y-147501263D01*
X124820816Y-147614072D01*
X124724182Y-147754068D01*
X124663860Y-147913125D01*
X124663859Y-147913130D01*
X124643355Y-148082000D01*
X124663859Y-148250869D01*
X124663860Y-148250874D01*
X124724182Y-148409931D01*
X124776104Y-148485151D01*
X124820817Y-148549929D01*
X124879029Y-148601500D01*
X124948150Y-148662736D01*
X125098773Y-148741789D01*
X125098775Y-148741790D01*
X125263944Y-148782500D01*
X125396390Y-148782500D01*
X125463429Y-148802185D01*
X125484071Y-148818819D01*
X126270472Y-149605220D01*
X126365780Y-149700528D01*
X126387300Y-149711493D01*
X126403875Y-149721649D01*
X126423419Y-149735849D01*
X126446381Y-149743309D01*
X126464354Y-149750753D01*
X126485874Y-149761719D01*
X126509724Y-149765495D01*
X126528645Y-149770039D01*
X126550489Y-149777136D01*
X126551607Y-149777500D01*
X126551608Y-149777500D01*
X130496392Y-149777500D01*
X130496393Y-149777500D01*
X130519360Y-149770036D01*
X130538276Y-149765495D01*
X130562126Y-149761719D01*
X130583636Y-149750757D01*
X130601614Y-149743310D01*
X130624581Y-149735849D01*
X130644118Y-149721653D01*
X130660706Y-149711488D01*
X130682220Y-149700528D01*
X130777528Y-149605220D01*
X132531554Y-147851194D01*
X132555528Y-147827220D01*
X132566490Y-147805705D01*
X132576652Y-147789121D01*
X132590850Y-147769581D01*
X132598311Y-147746614D01*
X132605760Y-147728633D01*
X132616718Y-147707129D01*
X132616718Y-147707128D01*
X132616718Y-147707127D01*
X132616719Y-147707126D01*
X132617689Y-147701000D01*
X134041355Y-147701000D01*
X134061859Y-147869869D01*
X134061860Y-147869874D01*
X134122182Y-148028931D01*
X134158814Y-148082000D01*
X134218817Y-148168929D01*
X134311312Y-148250872D01*
X134346150Y-148281736D01*
X134496773Y-148360789D01*
X134496775Y-148360790D01*
X134661944Y-148401500D01*
X134832056Y-148401500D01*
X134997225Y-148360790D01*
X135076692Y-148319081D01*
X135147849Y-148281736D01*
X135147850Y-148281734D01*
X135147852Y-148281734D01*
X135275183Y-148168929D01*
X135371818Y-148028930D01*
X135432140Y-147869872D01*
X135452645Y-147701000D01*
X135432140Y-147532128D01*
X135371818Y-147373070D01*
X135364086Y-147361869D01*
X135337476Y-147323318D01*
X135275183Y-147233071D01*
X135147852Y-147120266D01*
X135147849Y-147120263D01*
X134997226Y-147041210D01*
X134832056Y-147000500D01*
X134661944Y-147000500D01*
X134496773Y-147041210D01*
X134346150Y-147120263D01*
X134218816Y-147233072D01*
X134122182Y-147373068D01*
X134061860Y-147532125D01*
X134061859Y-147532130D01*
X134041355Y-147701000D01*
X132617689Y-147701000D01*
X132620496Y-147683273D01*
X132625035Y-147664366D01*
X132632500Y-147641393D01*
X132632500Y-147506607D01*
X132632500Y-145381512D01*
X132632500Y-145347607D01*
X132632136Y-145346489D01*
X132625039Y-145324645D01*
X132620495Y-145305721D01*
X132618845Y-145295301D01*
X132616719Y-145281874D01*
X132605753Y-145260354D01*
X132598308Y-145242378D01*
X132590849Y-145219420D01*
X132590849Y-145219419D01*
X132576651Y-145199878D01*
X132566492Y-145183299D01*
X132555528Y-145161780D01*
X132460220Y-145066472D01*
X131652819Y-144259071D01*
X131619334Y-144197748D01*
X131616500Y-144171390D01*
X131616500Y-141026610D01*
X131636185Y-140959571D01*
X131688989Y-140913816D01*
X131758147Y-140903872D01*
X131821703Y-140932897D01*
X131828181Y-140938929D01*
X136930911Y-146041659D01*
X136964396Y-146102982D01*
X136966326Y-146144283D01*
X136962355Y-146176995D01*
X136962355Y-146176999D01*
X136982859Y-146345869D01*
X136982860Y-146345874D01*
X137043182Y-146504931D01*
X137096925Y-146582790D01*
X137139817Y-146644929D01*
X137183300Y-146683451D01*
X137267150Y-146757736D01*
X137411861Y-146833686D01*
X137417775Y-146836790D01*
X137582944Y-146877500D01*
X137753056Y-146877500D01*
X137918225Y-146836790D01*
X138040118Y-146772815D01*
X138068849Y-146757736D01*
X138068850Y-146757734D01*
X138068852Y-146757734D01*
X138196183Y-146644929D01*
X138292818Y-146504930D01*
X138353140Y-146345872D01*
X138373645Y-146177000D01*
X138353140Y-146008128D01*
X138292818Y-145849070D01*
X138292757Y-145848982D01*
X138238448Y-145770302D01*
X138196183Y-145709071D01*
X138101316Y-145625026D01*
X138068849Y-145596263D01*
X137918226Y-145517210D01*
X137753056Y-145476500D01*
X137620610Y-145476500D01*
X137553571Y-145456815D01*
X137532929Y-145440181D01*
X136364748Y-144272000D01*
X145852355Y-144272000D01*
X145872859Y-144440869D01*
X145872860Y-144440874D01*
X145933182Y-144599931D01*
X145995475Y-144690177D01*
X146029817Y-144739929D01*
X146113592Y-144814147D01*
X146157150Y-144852736D01*
X146307773Y-144931789D01*
X146307775Y-144931790D01*
X146472944Y-144972500D01*
X146643056Y-144972500D01*
X146808225Y-144931790D01*
X146887692Y-144890081D01*
X146958849Y-144852736D01*
X146958850Y-144852734D01*
X146958852Y-144852734D01*
X147086183Y-144739929D01*
X147095756Y-144726059D01*
X147150039Y-144682070D01*
X147197806Y-144672500D01*
X164214746Y-144672500D01*
X164281785Y-144692185D01*
X164327540Y-144744989D01*
X164337484Y-144814147D01*
X164308459Y-144877703D01*
X164302428Y-144884179D01*
X163356255Y-145830352D01*
X162430426Y-146756181D01*
X162369103Y-146789666D01*
X162342745Y-146792500D01*
X147451806Y-146792500D01*
X147384767Y-146772815D01*
X147349756Y-146738940D01*
X147340183Y-146725071D01*
X147212849Y-146612263D01*
X147062226Y-146533210D01*
X146897056Y-146492500D01*
X146726944Y-146492500D01*
X146561773Y-146533210D01*
X146411150Y-146612263D01*
X146283816Y-146725072D01*
X146187182Y-146865068D01*
X146126860Y-147024125D01*
X146126859Y-147024130D01*
X146106355Y-147193000D01*
X146126859Y-147361869D01*
X146126860Y-147361874D01*
X146187182Y-147520931D01*
X146249475Y-147611177D01*
X146283817Y-147660929D01*
X146380548Y-147746625D01*
X146411150Y-147773736D01*
X146558734Y-147851194D01*
X146561775Y-147852790D01*
X146726944Y-147893500D01*
X146897056Y-147893500D01*
X147062225Y-147852790D01*
X147168498Y-147797013D01*
X147212849Y-147773736D01*
X147212850Y-147773734D01*
X147212852Y-147773734D01*
X147340183Y-147660929D01*
X147349756Y-147647059D01*
X147404039Y-147603070D01*
X147451806Y-147593500D01*
X162623431Y-147593500D01*
X162623433Y-147593500D01*
X162644501Y-147586654D01*
X162663417Y-147582112D01*
X162685304Y-147578646D01*
X162705044Y-147568586D01*
X162723011Y-147561144D01*
X162744090Y-147554296D01*
X162762026Y-147541263D01*
X162778588Y-147531114D01*
X162798342Y-147521050D01*
X162813834Y-147505557D01*
X162813841Y-147505552D01*
X163402545Y-146916848D01*
X164046392Y-146273000D01*
X168173534Y-146273000D01*
X168193312Y-146423234D01*
X168193313Y-146423236D01*
X168226656Y-146503734D01*
X168251302Y-146563233D01*
X168343549Y-146683451D01*
X168463767Y-146775698D01*
X168603764Y-146833687D01*
X168716280Y-146848500D01*
X168716287Y-146848500D01*
X168791713Y-146848500D01*
X168791720Y-146848500D01*
X168904236Y-146833687D01*
X169044233Y-146775698D01*
X169164451Y-146683451D01*
X169256698Y-146563233D01*
X169314687Y-146423236D01*
X169334466Y-146273000D01*
X169331560Y-146250930D01*
X169314687Y-146122765D01*
X169314687Y-146122764D01*
X169256698Y-145982767D01*
X169164451Y-145862549D01*
X169044233Y-145770302D01*
X169044229Y-145770300D01*
X168980801Y-145744027D01*
X168904236Y-145712313D01*
X168890171Y-145710461D01*
X168791727Y-145697500D01*
X168791720Y-145697500D01*
X168716280Y-145697500D01*
X168716272Y-145697500D01*
X168603764Y-145712313D01*
X168603763Y-145712313D01*
X168463770Y-145770300D01*
X168343549Y-145862549D01*
X168251300Y-145982770D01*
X168193313Y-146122763D01*
X168193312Y-146122765D01*
X168173534Y-146272999D01*
X168173534Y-146273000D01*
X164046392Y-146273000D01*
X165323950Y-144995440D01*
X165385273Y-144961956D01*
X165411631Y-144959122D01*
X165552678Y-144959122D01*
X165717847Y-144918412D01*
X165842985Y-144852734D01*
X165868471Y-144839358D01*
X165868472Y-144839356D01*
X165868474Y-144839356D01*
X165995805Y-144726551D01*
X166092440Y-144586552D01*
X166152762Y-144427494D01*
X166173267Y-144258622D01*
X166152762Y-144089750D01*
X166092440Y-143930692D01*
X166092439Y-143930690D01*
X166092438Y-143930688D01*
X166028074Y-143837443D01*
X166006190Y-143771089D01*
X166023655Y-143703437D01*
X166028060Y-143696579D01*
X166105818Y-143583930D01*
X166166140Y-143424872D01*
X166186645Y-143256000D01*
X166166140Y-143087128D01*
X166105818Y-142928070D01*
X166097536Y-142916072D01*
X166018979Y-142802263D01*
X166009183Y-142788071D01*
X165881852Y-142675266D01*
X165881849Y-142675263D01*
X165731226Y-142596210D01*
X165566056Y-142555500D01*
X165395944Y-142555500D01*
X165230773Y-142596210D01*
X165080150Y-142675263D01*
X164952816Y-142788072D01*
X164856182Y-142928068D01*
X164795860Y-143087125D01*
X164795859Y-143087130D01*
X164775355Y-143256000D01*
X164775355Y-143256001D01*
X164783154Y-143320240D01*
X164771693Y-143389164D01*
X164747739Y-143422866D01*
X164335426Y-143835181D01*
X164274103Y-143868666D01*
X164247745Y-143871500D01*
X147197806Y-143871500D01*
X147130767Y-143851815D01*
X147095756Y-143817940D01*
X147086183Y-143804071D01*
X146958849Y-143691263D01*
X146808226Y-143612210D01*
X146643056Y-143571500D01*
X146472944Y-143571500D01*
X146307773Y-143612210D01*
X146157150Y-143691263D01*
X146075910Y-143763236D01*
X146033240Y-143801039D01*
X146029816Y-143804072D01*
X145933182Y-143944068D01*
X145872860Y-144103125D01*
X145872859Y-144103130D01*
X145852355Y-144272000D01*
X136364748Y-144272000D01*
X132255819Y-140163071D01*
X132222334Y-140101748D01*
X132219500Y-140075390D01*
X132219500Y-139057425D01*
X132239185Y-138990386D01*
X132291989Y-138944631D01*
X132361147Y-138934687D01*
X132424703Y-138963712D01*
X132431181Y-138969744D01*
X137097657Y-143636220D01*
X137192965Y-143731528D01*
X137214479Y-143742490D01*
X137231067Y-143752655D01*
X137250605Y-143766850D01*
X137263651Y-143771089D01*
X137273568Y-143774311D01*
X137291544Y-143781756D01*
X137313059Y-143792719D01*
X137336913Y-143796496D01*
X137355824Y-143801036D01*
X137378792Y-143808500D01*
X137412697Y-143808500D01*
X138697420Y-143808500D01*
X138764459Y-143828185D01*
X138785200Y-143845957D01*
X138785203Y-143845955D01*
X138785372Y-143846105D01*
X138790233Y-143850270D01*
X138790814Y-143850926D01*
X138918150Y-143963736D01*
X139068773Y-144042789D01*
X139068775Y-144042790D01*
X139233944Y-144083500D01*
X139404056Y-144083500D01*
X139569225Y-144042790D01*
X139648692Y-144001081D01*
X139719849Y-143963736D01*
X139719850Y-143963734D01*
X139719852Y-143963734D01*
X139847183Y-143850929D01*
X139943818Y-143710930D01*
X140004140Y-143551872D01*
X140024645Y-143383000D01*
X140004140Y-143214128D01*
X139943818Y-143055070D01*
X139847183Y-142915071D01*
X139719852Y-142802266D01*
X139719849Y-142802263D01*
X139569226Y-142723210D01*
X139404056Y-142682500D01*
X139233944Y-142682500D01*
X139068773Y-142723210D01*
X138918150Y-142802263D01*
X138790814Y-142915073D01*
X138790233Y-142915730D01*
X138789687Y-142916072D01*
X138785203Y-142920045D01*
X138784542Y-142919299D01*
X138731042Y-142952855D01*
X138697420Y-142957500D01*
X137673795Y-142957500D01*
X137606756Y-142937815D01*
X137586114Y-142921181D01*
X135507933Y-140843000D01*
X155504355Y-140843000D01*
X155524859Y-141011869D01*
X155524860Y-141011874D01*
X155585182Y-141170931D01*
X155647475Y-141261177D01*
X155681817Y-141310929D01*
X155787505Y-141404560D01*
X155809150Y-141423736D01*
X155959773Y-141502789D01*
X155959775Y-141502790D01*
X156124944Y-141543500D01*
X156295056Y-141543500D01*
X156365637Y-141526102D01*
X156395313Y-141522500D01*
X156396607Y-141522500D01*
X156430512Y-141522500D01*
X159398420Y-141522500D01*
X159465459Y-141542185D01*
X159486200Y-141559957D01*
X159486203Y-141559955D01*
X159486372Y-141560105D01*
X159491233Y-141564270D01*
X159491814Y-141564926D01*
X159619150Y-141677736D01*
X159769773Y-141756789D01*
X159769775Y-141756790D01*
X159934944Y-141797500D01*
X160105056Y-141797500D01*
X160270225Y-141756790D01*
X160349692Y-141715081D01*
X160420849Y-141677736D01*
X160420850Y-141677734D01*
X160420852Y-141677734D01*
X160548183Y-141564929D01*
X160644818Y-141424930D01*
X160705140Y-141265872D01*
X160725645Y-141097000D01*
X160705140Y-140928128D01*
X160644818Y-140769070D01*
X160548183Y-140629071D01*
X160420852Y-140516266D01*
X160420849Y-140516263D01*
X160376525Y-140493000D01*
X168173534Y-140493000D01*
X168193312Y-140643234D01*
X168193313Y-140643236D01*
X168245434Y-140769068D01*
X168251302Y-140783233D01*
X168343549Y-140903451D01*
X168463767Y-140995698D01*
X168603764Y-141053687D01*
X168716280Y-141068500D01*
X168716287Y-141068500D01*
X168791713Y-141068500D01*
X168791720Y-141068500D01*
X168904236Y-141053687D01*
X169044233Y-140995698D01*
X169164451Y-140903451D01*
X169256698Y-140783233D01*
X169314687Y-140643236D01*
X169334466Y-140493000D01*
X169314687Y-140342764D01*
X169256698Y-140202767D01*
X169164451Y-140082549D01*
X169044233Y-139990302D01*
X169044229Y-139990300D01*
X168980801Y-139964027D01*
X168904236Y-139932313D01*
X168890171Y-139930461D01*
X168791727Y-139917500D01*
X168791720Y-139917500D01*
X168716280Y-139917500D01*
X168716272Y-139917500D01*
X168603764Y-139932313D01*
X168603763Y-139932313D01*
X168463770Y-139990300D01*
X168463767Y-139990301D01*
X168463767Y-139990302D01*
X168343549Y-140082549D01*
X168294478Y-140146500D01*
X168251300Y-140202770D01*
X168193313Y-140342763D01*
X168193312Y-140342765D01*
X168173534Y-140492999D01*
X168173534Y-140493000D01*
X160376525Y-140493000D01*
X160270226Y-140437210D01*
X160105056Y-140396500D01*
X159934944Y-140396500D01*
X159769773Y-140437210D01*
X159619150Y-140516263D01*
X159491814Y-140629073D01*
X159491233Y-140629730D01*
X159490687Y-140630072D01*
X159486203Y-140634045D01*
X159485542Y-140633299D01*
X159432042Y-140666855D01*
X159398420Y-140671500D01*
X156979734Y-140671500D01*
X156912695Y-140651815D01*
X156866940Y-140599011D01*
X156863792Y-140591470D01*
X156847658Y-140548927D01*
X156834818Y-140515070D01*
X156819583Y-140492999D01*
X156752974Y-140396500D01*
X156738183Y-140375071D01*
X156610852Y-140262266D01*
X156610849Y-140262263D01*
X156460226Y-140183210D01*
X156295056Y-140142500D01*
X156124944Y-140142500D01*
X155959773Y-140183210D01*
X155809150Y-140262263D01*
X155681816Y-140375072D01*
X155585182Y-140515068D01*
X155524860Y-140674125D01*
X155524859Y-140674130D01*
X155504355Y-140843000D01*
X135507933Y-140843000D01*
X134070155Y-139405222D01*
X134036670Y-139343899D01*
X134041654Y-139274207D01*
X134083526Y-139218274D01*
X134100206Y-139207747D01*
X134110797Y-139202189D01*
X134238128Y-139089384D01*
X134334763Y-138949385D01*
X134395085Y-138790327D01*
X134395685Y-138785384D01*
X134423303Y-138721208D01*
X134431089Y-138712657D01*
X136664929Y-136478819D01*
X136726252Y-136445334D01*
X136752610Y-136442500D01*
X139128483Y-136442500D01*
X139195522Y-136462185D01*
X139241277Y-136514989D01*
X139251579Y-136551553D01*
X139268859Y-136693869D01*
X139268860Y-136693874D01*
X139329182Y-136852931D01*
X139382925Y-136930790D01*
X139425817Y-136992929D01*
X139518312Y-137074872D01*
X139553150Y-137105736D01*
X139703773Y-137184789D01*
X139703775Y-137184790D01*
X139868944Y-137225500D01*
X140039056Y-137225500D01*
X140204225Y-137184790D01*
X140298691Y-137135210D01*
X140354849Y-137105736D01*
X140354850Y-137105734D01*
X140354852Y-137105734D01*
X140482183Y-136992929D01*
X140578818Y-136852930D01*
X140639140Y-136693872D01*
X140659645Y-136525000D01*
X140639140Y-136356128D01*
X140578818Y-136197070D01*
X140482183Y-136057071D01*
X140354852Y-135944266D01*
X140354849Y-135944263D01*
X140204226Y-135865210D01*
X140039056Y-135824500D01*
X139906610Y-135824500D01*
X139839571Y-135804815D01*
X139818929Y-135788181D01*
X139795929Y-135765181D01*
X139762444Y-135703858D01*
X139767428Y-135634166D01*
X139809300Y-135578233D01*
X139874764Y-135553816D01*
X139883610Y-135553500D01*
X142580179Y-135553500D01*
X142647218Y-135573185D01*
X142692973Y-135625989D01*
X142702917Y-135695147D01*
X142673892Y-135758703D01*
X142636476Y-135787983D01*
X142621783Y-135795469D01*
X142621782Y-135795470D01*
X142533541Y-135883710D01*
X142533538Y-135883713D01*
X142526470Y-135890780D01*
X142526470Y-135890781D01*
X140963586Y-137453666D01*
X139433071Y-138984181D01*
X139371748Y-139017666D01*
X139345390Y-139020500D01*
X136384580Y-139020500D01*
X136317541Y-139000815D01*
X136296799Y-138983042D01*
X136296797Y-138983045D01*
X136296627Y-138982894D01*
X136291767Y-138978730D01*
X136291185Y-138978073D01*
X136163849Y-138865263D01*
X136013226Y-138786210D01*
X135848056Y-138745500D01*
X135677944Y-138745500D01*
X135512773Y-138786210D01*
X135362150Y-138865263D01*
X135234816Y-138978072D01*
X135138182Y-139118068D01*
X135077860Y-139277125D01*
X135077859Y-139277130D01*
X135057355Y-139446000D01*
X135077859Y-139614869D01*
X135077860Y-139614874D01*
X135138182Y-139773931D01*
X135176780Y-139829849D01*
X135234817Y-139913929D01*
X135321025Y-139990302D01*
X135362150Y-140026736D01*
X135468493Y-140082549D01*
X135512775Y-140105790D01*
X135677944Y-140146500D01*
X135848056Y-140146500D01*
X136013225Y-140105790D01*
X136092692Y-140064081D01*
X136163849Y-140026736D01*
X136163850Y-140026734D01*
X136163852Y-140026734D01*
X136291183Y-139913929D01*
X136291185Y-139913925D01*
X136291767Y-139913270D01*
X136292312Y-139912927D01*
X136296797Y-139908955D01*
X136297457Y-139909700D01*
X136350958Y-139876145D01*
X136384580Y-139871500D01*
X139640392Y-139871500D01*
X139640393Y-139871500D01*
X139663360Y-139864036D01*
X139682276Y-139859495D01*
X139706126Y-139855719D01*
X139727636Y-139844757D01*
X139745614Y-139837310D01*
X139768581Y-139829849D01*
X139788118Y-139815653D01*
X139804706Y-139805488D01*
X139826220Y-139794528D01*
X139921528Y-139699220D01*
X139921528Y-139699219D01*
X143014928Y-136605819D01*
X143076251Y-136572334D01*
X143102609Y-136569500D01*
X145301420Y-136569500D01*
X145368459Y-136589185D01*
X145389200Y-136606957D01*
X145389203Y-136606955D01*
X145389372Y-136607105D01*
X145394233Y-136611270D01*
X145394814Y-136611926D01*
X145522150Y-136724736D01*
X145672773Y-136803789D01*
X145672775Y-136803790D01*
X145837944Y-136844500D01*
X146008056Y-136844500D01*
X146173225Y-136803790D01*
X146300234Y-136737130D01*
X146323849Y-136724736D01*
X146323850Y-136724734D01*
X146323852Y-136724734D01*
X146451183Y-136611929D01*
X146547818Y-136471930D01*
X146608140Y-136312872D01*
X146628645Y-136144000D01*
X146624470Y-136109621D01*
X146635929Y-136040701D01*
X146682832Y-135988914D01*
X146750288Y-135970706D01*
X146816879Y-135991857D01*
X146835247Y-136006995D01*
X148487911Y-137659659D01*
X148521396Y-137720982D01*
X148523326Y-137762283D01*
X148519355Y-137794995D01*
X148519355Y-137794999D01*
X148539859Y-137963869D01*
X148539860Y-137963874D01*
X148600182Y-138122931D01*
X148655030Y-138202390D01*
X148696817Y-138262929D01*
X148802505Y-138356560D01*
X148824150Y-138375736D01*
X148974773Y-138454789D01*
X148974775Y-138454790D01*
X149139944Y-138495500D01*
X149310056Y-138495500D01*
X149475225Y-138454790D01*
X149607504Y-138385364D01*
X149625849Y-138375736D01*
X149625850Y-138375734D01*
X149625852Y-138375734D01*
X149753183Y-138262929D01*
X149821451Y-138164025D01*
X149875733Y-138120037D01*
X149945181Y-138112377D01*
X150007746Y-138143480D01*
X150025547Y-138164023D01*
X150026229Y-138165011D01*
X150093816Y-138262928D01*
X150221150Y-138375736D01*
X150371773Y-138454789D01*
X150371775Y-138454790D01*
X150536944Y-138495500D01*
X150707056Y-138495500D01*
X150872225Y-138454790D01*
X151004504Y-138385364D01*
X151022849Y-138375736D01*
X151022850Y-138375734D01*
X151022852Y-138375734D01*
X151150183Y-138262929D01*
X151246818Y-138122930D01*
X151307140Y-137963872D01*
X151327645Y-137795000D01*
X151307140Y-137626128D01*
X151246818Y-137467070D01*
X151150183Y-137327071D01*
X151022852Y-137214266D01*
X151022849Y-137214263D01*
X150872226Y-137135210D01*
X150707056Y-137094500D01*
X150574610Y-137094500D01*
X150507571Y-137074815D01*
X150486929Y-137058181D01*
X147446218Y-134017470D01*
X147424703Y-134006508D01*
X147408110Y-133996340D01*
X147388580Y-133982150D01*
X147365615Y-133974688D01*
X147347641Y-133967243D01*
X147326127Y-133956281D01*
X147321010Y-133955470D01*
X147302273Y-133952503D01*
X147283358Y-133947962D01*
X147260394Y-133940500D01*
X147260393Y-133940500D01*
X147226488Y-133940500D01*
X136211393Y-133940500D01*
X136076607Y-133940500D01*
X136076604Y-133940500D01*
X136053639Y-133947962D01*
X136034722Y-133952503D01*
X136010873Y-133956280D01*
X135989358Y-133967243D01*
X135971386Y-133974688D01*
X135948418Y-133982151D01*
X135948416Y-133982152D01*
X135928884Y-133996343D01*
X135912299Y-134006506D01*
X135890782Y-134017469D01*
X135882890Y-134023205D01*
X135881092Y-134020730D01*
X135833914Y-134046480D01*
X135764223Y-134041481D01*
X135708299Y-133999598D01*
X135683895Y-133934128D01*
X135686179Y-133907431D01*
X135685236Y-133907317D01*
X135686140Y-133899872D01*
X135706645Y-133731000D01*
X135686140Y-133562128D01*
X135625818Y-133403070D01*
X135623303Y-133399427D01*
X135582276Y-133339989D01*
X135529183Y-133263071D01*
X135401852Y-133150266D01*
X135401849Y-133150263D01*
X135251226Y-133071210D01*
X135086056Y-133030500D01*
X134915944Y-133030500D01*
X134915942Y-133030500D01*
X134754276Y-133070346D01*
X134729360Y-133069250D01*
X134704790Y-133095209D01*
X134700024Y-133097846D01*
X134600149Y-133150265D01*
X134472816Y-133263072D01*
X134376182Y-133403068D01*
X134315860Y-133562125D01*
X134315859Y-133562130D01*
X134295355Y-133731000D01*
X134295355Y-133731003D01*
X134299326Y-133763715D01*
X134287864Y-133832638D01*
X134263911Y-133866339D01*
X133796624Y-134333626D01*
X133735301Y-134367111D01*
X133665609Y-134362127D01*
X133609676Y-134320255D01*
X133597714Y-134298492D01*
X133597302Y-134298709D01*
X133593817Y-134292068D01*
X133519730Y-134184736D01*
X133497183Y-134152071D01*
X133375881Y-134044607D01*
X133369849Y-134039263D01*
X133219226Y-133960210D01*
X133054056Y-133919500D01*
X132883944Y-133919500D01*
X132718773Y-133960210D01*
X132612592Y-134015939D01*
X132544084Y-134029665D01*
X132479030Y-134004172D01*
X132438086Y-133947557D01*
X132434250Y-133877792D01*
X132467285Y-133818462D01*
X132554747Y-133731000D01*
X132833141Y-133452605D01*
X132894462Y-133419122D01*
X132964153Y-133424106D01*
X133003047Y-133447472D01*
X133076150Y-133512236D01*
X133226773Y-133591289D01*
X133226775Y-133591290D01*
X133391944Y-133632000D01*
X133562056Y-133632000D01*
X133727225Y-133591290D01*
X133806692Y-133549581D01*
X133877849Y-133512236D01*
X133877850Y-133512234D01*
X133877852Y-133512234D01*
X134005183Y-133399429D01*
X134101818Y-133259430D01*
X134162140Y-133100372D01*
X134170624Y-133030500D01*
X134172318Y-133016553D01*
X134199940Y-132952375D01*
X134257875Y-132913319D01*
X134295414Y-132907500D01*
X134451056Y-132907500D01*
X134612723Y-132867653D01*
X134637638Y-132868748D01*
X134662210Y-132842789D01*
X134666941Y-132840171D01*
X134766852Y-132787734D01*
X134894183Y-132674929D01*
X134990818Y-132534930D01*
X135051140Y-132375872D01*
X135071645Y-132207000D01*
X135051140Y-132038128D01*
X135028675Y-131978894D01*
X135023309Y-131909232D01*
X135056457Y-131847725D01*
X135117595Y-131813904D01*
X135144618Y-131810924D01*
X135282692Y-131810924D01*
X135447861Y-131770214D01*
X135527328Y-131728505D01*
X135598485Y-131691160D01*
X135598486Y-131691158D01*
X135598488Y-131691158D01*
X135725819Y-131578353D01*
X135822454Y-131438354D01*
X135882776Y-131279296D01*
X135903281Y-131110424D01*
X135900493Y-131087465D01*
X135911953Y-131018542D01*
X135935905Y-130984840D01*
X139204928Y-127715819D01*
X139266251Y-127682334D01*
X139292609Y-127679500D01*
X143526211Y-127679500D01*
X143593250Y-127699185D01*
X143599095Y-127703181D01*
X143605074Y-127707525D01*
X143605078Y-127707527D01*
X143605079Y-127707528D01*
X143626599Y-127718493D01*
X143643174Y-127728649D01*
X143662718Y-127742849D01*
X143685680Y-127750309D01*
X143703653Y-127757753D01*
X143725173Y-127768719D01*
X143749023Y-127772495D01*
X143767944Y-127777039D01*
X143789788Y-127784136D01*
X143790906Y-127784500D01*
X143824811Y-127784500D01*
X145745233Y-127784500D01*
X145812272Y-127804185D01*
X145858027Y-127856989D01*
X145868329Y-127893554D01*
X145872859Y-127930868D01*
X145872860Y-127930874D01*
X145933182Y-128089931D01*
X145970351Y-128143778D01*
X146029817Y-128229929D01*
X146116405Y-128306639D01*
X146157150Y-128342736D01*
X146307773Y-128421789D01*
X146307775Y-128421790D01*
X146472944Y-128462500D01*
X146643056Y-128462500D01*
X146808225Y-128421790D01*
X146887692Y-128380081D01*
X146958849Y-128342736D01*
X146958850Y-128342734D01*
X146958852Y-128342734D01*
X147086183Y-128229929D01*
X147182818Y-128089930D01*
X147243140Y-127930872D01*
X147263645Y-127762000D01*
X147243140Y-127593128D01*
X147243138Y-127593122D01*
X147208759Y-127502470D01*
X147203392Y-127432807D01*
X147236540Y-127371301D01*
X147297679Y-127337480D01*
X147324701Y-127334500D01*
X147763390Y-127334500D01*
X147830429Y-127354185D01*
X147851071Y-127370819D01*
X148106911Y-127626659D01*
X148140396Y-127687982D01*
X148142326Y-127729283D01*
X148138355Y-127761995D01*
X148138355Y-127761999D01*
X148158859Y-127930869D01*
X148158860Y-127930874D01*
X148219182Y-128089931D01*
X148256351Y-128143778D01*
X148315817Y-128229929D01*
X148402405Y-128306639D01*
X148443150Y-128342736D01*
X148593773Y-128421789D01*
X148593775Y-128421790D01*
X148758944Y-128462500D01*
X148929056Y-128462500D01*
X149094225Y-128421790D01*
X149173692Y-128380081D01*
X149244849Y-128342736D01*
X149244850Y-128342734D01*
X149244852Y-128342734D01*
X149372183Y-128229929D01*
X149468818Y-128089930D01*
X149529140Y-127930872D01*
X149549645Y-127762000D01*
X149529140Y-127593128D01*
X149468818Y-127434070D01*
X149467946Y-127432807D01*
X149400089Y-127334500D01*
X149372183Y-127294071D01*
X149244852Y-127181266D01*
X149244849Y-127181263D01*
X149094225Y-127102209D01*
X149094222Y-127102208D01*
X149072613Y-127096882D01*
X149012233Y-127061725D01*
X148980445Y-126999505D01*
X148987343Y-126929977D01*
X149030735Y-126875215D01*
X149076505Y-126855197D01*
X149123803Y-126845144D01*
X149296730Y-126768151D01*
X149449871Y-126656888D01*
X149576533Y-126516216D01*
X149671179Y-126352284D01*
X149729674Y-126172256D01*
X149749460Y-125984000D01*
X149729674Y-125795744D01*
X149671179Y-125615716D01*
X149576533Y-125451784D01*
X149449871Y-125311112D01*
X149449870Y-125311111D01*
X149296734Y-125199851D01*
X149296729Y-125199848D01*
X149123807Y-125122857D01*
X149123802Y-125122855D01*
X148978001Y-125091865D01*
X148938646Y-125083500D01*
X148749354Y-125083500D01*
X148716897Y-125090398D01*
X148564197Y-125122855D01*
X148564192Y-125122857D01*
X148391270Y-125199848D01*
X148391265Y-125199851D01*
X148238129Y-125311111D01*
X148111466Y-125451785D01*
X148016821Y-125615715D01*
X148016818Y-125615722D01*
X147961931Y-125784648D01*
X147922493Y-125842324D01*
X147858135Y-125869522D01*
X147789288Y-125857607D01*
X147737813Y-125810363D01*
X147726069Y-125784648D01*
X147671181Y-125615722D01*
X147671180Y-125615721D01*
X147671179Y-125615716D01*
X147576533Y-125451784D01*
X147449871Y-125311112D01*
X147449870Y-125311111D01*
X147296734Y-125199851D01*
X147296729Y-125199848D01*
X147123807Y-125122857D01*
X147123802Y-125122855D01*
X146978001Y-125091865D01*
X146938646Y-125083500D01*
X146749354Y-125083500D01*
X146716897Y-125090398D01*
X146564197Y-125122855D01*
X146564192Y-125122857D01*
X146391270Y-125199848D01*
X146391265Y-125199851D01*
X146238129Y-125311111D01*
X146111466Y-125451785D01*
X146016821Y-125615715D01*
X146016818Y-125615722D01*
X145961931Y-125784648D01*
X145958326Y-125795744D01*
X145938540Y-125984000D01*
X145958326Y-126172256D01*
X145958327Y-126172259D01*
X146006715Y-126321182D01*
X146008710Y-126391023D01*
X145972630Y-126450856D01*
X145909929Y-126481684D01*
X145888784Y-126483500D01*
X144272305Y-126483500D01*
X144205266Y-126463815D01*
X144184624Y-126447181D01*
X144134913Y-126397470D01*
X144113398Y-126386508D01*
X144096805Y-126376340D01*
X144077275Y-126362150D01*
X144054310Y-126354688D01*
X144036336Y-126347243D01*
X144014822Y-126336281D01*
X144009705Y-126335470D01*
X143990968Y-126332503D01*
X143972053Y-126327962D01*
X143949089Y-126320500D01*
X143949088Y-126320500D01*
X143915183Y-126320500D01*
X138243393Y-126320500D01*
X138108607Y-126320500D01*
X138108604Y-126320501D01*
X138085635Y-126327963D01*
X138066722Y-126332503D01*
X138042874Y-126336280D01*
X138021359Y-126347242D01*
X138003389Y-126354685D01*
X137980421Y-126362148D01*
X137980417Y-126362149D01*
X137960880Y-126376344D01*
X137944298Y-126386506D01*
X137922783Y-126397469D01*
X137922780Y-126397471D01*
X137898806Y-126421446D01*
X134501070Y-129819181D01*
X134439747Y-129852666D01*
X134413389Y-129855500D01*
X134280944Y-129855500D01*
X134115773Y-129896210D01*
X133965150Y-129975264D01*
X133965148Y-129975266D01*
X133909955Y-130024163D01*
X133909669Y-130024416D01*
X133846435Y-130054137D01*
X133777172Y-130044953D01*
X133723869Y-129999781D01*
X133703449Y-129932961D01*
X133717645Y-129873975D01*
X133720811Y-129867939D01*
X133720818Y-129867930D01*
X133781140Y-129708872D01*
X133801645Y-129540000D01*
X133781140Y-129371128D01*
X133775716Y-129356827D01*
X133720817Y-129212068D01*
X133675109Y-129145849D01*
X133624183Y-129072071D01*
X133496852Y-128959266D01*
X133496849Y-128959263D01*
X133346226Y-128880210D01*
X133181056Y-128839500D01*
X133010944Y-128839500D01*
X132845773Y-128880210D01*
X132695150Y-128959263D01*
X132567816Y-129072072D01*
X132471182Y-129212068D01*
X132410860Y-129371125D01*
X132410859Y-129371130D01*
X132390355Y-129540000D01*
X132410859Y-129708869D01*
X132410860Y-129708874D01*
X132471182Y-129867931D01*
X132567818Y-130007931D01*
X132586140Y-130024163D01*
X132623266Y-130083353D01*
X132622498Y-130153218D01*
X132591593Y-130204658D01*
X130416071Y-132380181D01*
X130354748Y-132413666D01*
X130328390Y-132416500D01*
X126051393Y-132416500D01*
X125916607Y-132416500D01*
X125916604Y-132416501D01*
X125893635Y-132423963D01*
X125874722Y-132428503D01*
X125850874Y-132432280D01*
X125829359Y-132443242D01*
X125811389Y-132450685D01*
X125788421Y-132458148D01*
X125788417Y-132458149D01*
X125768880Y-132472344D01*
X125752298Y-132482506D01*
X125730783Y-132493469D01*
X125730780Y-132493471D01*
X125706806Y-132517446D01*
X125357070Y-132867181D01*
X125295747Y-132900666D01*
X125269389Y-132903500D01*
X125136944Y-132903500D01*
X124971773Y-132944210D01*
X124821150Y-133023263D01*
X124693816Y-133136072D01*
X124597182Y-133276068D01*
X124536860Y-133435125D01*
X124536859Y-133435130D01*
X124516355Y-133604000D01*
X123361500Y-133604000D01*
X123361500Y-128624609D01*
X123381185Y-128557570D01*
X123397819Y-128536928D01*
X127393928Y-124540819D01*
X127455251Y-124507334D01*
X127481609Y-124504500D01*
X151283390Y-124504500D01*
X151350429Y-124524185D01*
X151371071Y-124540819D01*
X159812181Y-132981929D01*
X159845666Y-133043252D01*
X159848500Y-133069610D01*
X159848500Y-135656294D01*
X159828815Y-135723333D01*
X159806727Y-135749109D01*
X159745818Y-135803069D01*
X159649182Y-135943068D01*
X159588860Y-136102125D01*
X159588859Y-136102130D01*
X159568355Y-136271000D01*
X159588859Y-136439869D01*
X159588860Y-136439874D01*
X159649182Y-136598931D01*
X159711475Y-136689177D01*
X159745817Y-136738929D01*
X159851505Y-136832560D01*
X159873150Y-136851736D01*
X160023773Y-136930789D01*
X160023775Y-136930790D01*
X160188944Y-136971500D01*
X160359056Y-136971500D01*
X160524225Y-136930790D01*
X160603692Y-136889081D01*
X160674849Y-136851736D01*
X160674850Y-136851734D01*
X160674852Y-136851734D01*
X160802183Y-136738929D01*
X160898818Y-136598930D01*
X160959140Y-136439872D01*
X160979645Y-136271000D01*
X160959140Y-136102128D01*
X160898818Y-135943070D01*
X160802183Y-135803071D01*
X160802181Y-135803069D01*
X160741273Y-135749109D01*
X160704146Y-135689920D01*
X160699500Y-135656294D01*
X160699500Y-132774608D01*
X160699499Y-132774604D01*
X160692039Y-132751645D01*
X160687495Y-132732721D01*
X160683719Y-132708874D01*
X160672753Y-132687354D01*
X160665308Y-132669378D01*
X160657849Y-132646420D01*
X160657849Y-132646419D01*
X160643649Y-132626875D01*
X160633493Y-132610300D01*
X160622528Y-132588780D01*
X160527220Y-132493472D01*
X153414748Y-125381000D01*
X170290540Y-125381000D01*
X170310326Y-125569256D01*
X170310327Y-125569259D01*
X170368818Y-125749277D01*
X170368821Y-125749284D01*
X170463467Y-125913216D01*
X170590129Y-126053888D01*
X170743265Y-126165148D01*
X170743270Y-126165151D01*
X170916192Y-126242142D01*
X170916197Y-126242144D01*
X171101354Y-126281500D01*
X171101355Y-126281500D01*
X171290644Y-126281500D01*
X171290646Y-126281500D01*
X171475803Y-126242144D01*
X171648730Y-126165151D01*
X171801871Y-126053888D01*
X171928533Y-125913216D01*
X172023179Y-125749284D01*
X172081674Y-125569256D01*
X172101460Y-125381000D01*
X172081674Y-125192744D01*
X172023179Y-125012716D01*
X171928533Y-124848784D01*
X171801871Y-124708112D01*
X171801870Y-124708111D01*
X171648734Y-124596851D01*
X171648729Y-124596848D01*
X171475807Y-124519857D01*
X171475802Y-124519855D01*
X171330001Y-124488865D01*
X171290646Y-124480500D01*
X171101354Y-124480500D01*
X171068897Y-124487398D01*
X170916197Y-124519855D01*
X170916192Y-124519857D01*
X170743270Y-124596848D01*
X170743265Y-124596851D01*
X170590129Y-124708111D01*
X170463466Y-124848785D01*
X170368821Y-125012715D01*
X170368818Y-125012722D01*
X170310327Y-125192740D01*
X170310326Y-125192744D01*
X170290540Y-125381000D01*
X153414748Y-125381000D01*
X151788194Y-123754446D01*
X151764220Y-123730472D01*
X151764219Y-123730471D01*
X151753453Y-123724986D01*
X151702656Y-123677012D01*
X151685860Y-123609192D01*
X151708396Y-123543056D01*
X151763111Y-123499604D01*
X151809746Y-123490500D01*
X173438500Y-123490500D01*
X173505539Y-123510185D01*
X173551294Y-123562989D01*
X173562500Y-123614500D01*
X173562500Y-150197500D01*
X173542815Y-150264539D01*
X173490011Y-150310294D01*
X173438500Y-150321500D01*
X123671210Y-150321500D01*
X123615756Y-150308409D01*
X119210955Y-148106008D01*
X119159796Y-148058421D01*
X119142411Y-147994546D01*
X119240058Y-126316894D01*
X119260044Y-126249948D01*
X119305761Y-126208014D01*
X124380707Y-123505054D01*
X124438998Y-123490500D01*
X126955254Y-123490500D01*
X127022293Y-123510185D01*
G37*
%TD.AperFunction*%
%TD*%
M02*
