M48
; DRILL file {KiCad 7.0.9} date Sun May  5 23:46:17 2024
; FORMAT={-:-/ absolute / metric / decimal}
; #@! TF.CreationDate,2024-05-05T23:46:17+02:00
; #@! TF.GenerationSoftware,Kicad,Pcbnew,7.0.9
; #@! TF.FileFunction,Plated,1,2,PTH
FMAT,2
METRIC
; #@! TA.AperFunction,Plated,PTH,ViaDrill
T1C0.400
; #@! TA.AperFunction,Plated,PTH,ComponentDrill
T2C1.000
%
G90
G05
T1
X120.396Y-141.478
X120.904Y-143.561
X121.412Y-138.836
X124.409Y-133.198
X125.12Y-142.189
X125.476Y-135.585
X125.868Y-145.962
X126.492Y-138.024
X126.879Y-145.948
X127.61Y-138.024
X128.473Y-146.05
X129.235Y-136.246
X129.337Y-137.973
X129.997Y-133.299
X130.759Y-143.002
X130.77Y-138.867
X131.415Y-141.677
X132.211Y-144.86
X133.198Y-138.481
X135.941Y-149.504
X137.211Y-147.726
X137.363Y-144.831
X137.617Y-138.43
X137.973Y-151.638
X138.735Y-147.879
X139.446Y-154.026
X140.259Y-142.291
X140.868Y-143.408
X145.034Y-138.887
X145.491Y-147.32
X147.015Y-151.57
X147.218Y-149.657
X147.93Y-154.432
X148.59Y-147.269
X148.793Y-151.943
X151.74Y-149.962
T2
X154.788Y-134.417
X154.788Y-136.417
T0
M30
