M48
; DRILL file {KiCad 7.0.9} date Thu Jun 27 19:09:26 2024
; FORMAT={-:-/ absolute / metric / decimal}
; #@! TF.CreationDate,2024-06-27T19:09:26+02:00
; #@! TF.GenerationSoftware,Kicad,Pcbnew,7.0.9
; #@! TF.FileFunction,Plated,1,2,PTH
FMAT,2
METRIC
; #@! TA.AperFunction,Plated,PTH,ComponentDrill
T1C0.300
; #@! TA.AperFunction,Plated,PTH,ViaDrill
T2C0.400
; #@! TA.AperFunction,Plated,PTH,ComponentDrill
T3C1.000
%
G90
G05
T1
X118.449Y-143.81
T2
X119.761Y-146.431
X120.015Y-134.874
X120.142Y-137.541
X121.92Y-130.302
X121.92Y-133.604
X122.936Y-126.492
X124.46Y-136.906
X124.46Y-146.685
X124.587Y-140.081
X124.968Y-138.938
X125.095Y-124.206
X125.222Y-127.508
X125.222Y-133.604
X125.349Y-148.082
X125.603Y-142.748
X126.619Y-145.288
X127.635Y-125.222
X127.762Y-137.668
X127.762Y-138.684
X127.762Y-139.7
X127.889Y-133.858
X128.524Y-143.002
X128.651Y-131.953
X128.778Y-137.668
X128.778Y-138.684
X128.778Y-139.7
X129.921Y-137.668
X129.921Y-138.684
X129.921Y-139.7
X131.191Y-145.923
X132.207Y-142.494
X132.969Y-134.62
X132.969Y-136.868
X133.096Y-129.54
X133.477Y-132.931
X133.71Y-138.621
X133.854Y-137.561
X134.366Y-130.556
X134.366Y-132.207
X134.747Y-147.701
X135.001Y-133.731
X135.198Y-131.11
X135.509Y-142.621
X135.763Y-139.446
X136.525Y-131.191
X137.16Y-125.857
X137.287Y-144.272
X137.668Y-146.177
X137.795Y-130.302
X139.319Y-143.383
X139.573Y-128.27
X139.954Y-136.525
X140.843Y-142.621
X141.351Y-132.842
X141.859Y-125.476
X143.51Y-142.621
X144.145Y-131.064
X144.272Y-126.111
X144.272Y-132.969
X145.034Y-128.778
X145.923Y-136.144
X146.05Y-142.748
X146.558Y-127.762
X146.558Y-144.272
X146.812Y-147.193
X147.701Y-130.81
X147.701Y-142.494
X147.828Y-128.778
X147.828Y-146.304
X147.955Y-147.955
X148.844Y-127.762
X149.225Y-137.795
X149.479Y-129.159
X149.479Y-134.747
X150.622Y-131.953
X150.622Y-137.795
X151.003Y-136.271
X151.13Y-148.082
X151.384Y-146.431
X151.511Y-125.603
X151.892Y-141.732
X152.4Y-126.492
X152.781Y-137.287
X153.035Y-124.079
X153.035Y-141.732
X153.416Y-129.286
X153.416Y-133.477
X154.559Y-125.603
X154.94Y-133.477
X156.21Y-130.937
X156.21Y-140.843
X156.337Y-133.477
X158.115Y-133.35
X158.369Y-146.431
X158.369Y-148.082
X159.131Y-133.35
X160.02Y-141.097
X160.274Y-136.271
X161.163Y-148.082
X161.417Y-128.143
X162.052Y-130.175
X162.814Y-127.0
X163.068Y-129.159
X163.576Y-147.574
X164.465Y-146.685
X165.468Y-144.259
X165.481Y-143.256
X166.497Y-124.46
X167.005Y-126.365
X169.672Y-124.587
X169.672Y-126.238
T3
X127.524Y-147.701
X129.524Y-147.701
X146.844Y-125.984
X148.844Y-125.984
X171.196Y-125.381
X171.196Y-127.381
T0
M30
