%TF.GenerationSoftware,KiCad,Pcbnew,7.0.9*%
%TF.CreationDate,2024-05-05T23:36:38+02:00*%
%TF.ProjectId,esp32_c3_custom_board,65737033-325f-4633-935f-637573746f6d,rev?*%
%TF.SameCoordinates,Original*%
%TF.FileFunction,Copper,L2,Bot*%
%TF.FilePolarity,Positive*%
%FSLAX46Y46*%
G04 Gerber Fmt 4.6, Leading zero omitted, Abs format (unit mm)*
G04 Created by KiCad (PCBNEW 7.0.9) date 2024-05-05 23:36:38*
%MOMM*%
%LPD*%
G01*
G04 APERTURE LIST*
%TA.AperFunction,ComponentPad*%
%ADD10C,1.200000*%
%TD*%
%TA.AperFunction,ViaPad*%
%ADD11C,0.800000*%
%TD*%
%TA.AperFunction,Conductor*%
%ADD12C,0.250000*%
%TD*%
%TA.AperFunction,Conductor*%
%ADD13C,0.200000*%
%TD*%
G04 APERTURE END LIST*
D10*
%TO.P,JST1,1,V+*%
%TO.N,Net-(IC3-EN)*%
X154787600Y-134416800D03*
%TO.P,JST1,2,V-*%
%TO.N,GND*%
X154787600Y-136416800D03*
%TD*%
D11*
%TO.N,+3.3V*%
X121412000Y-138836400D03*
X120396000Y-141478000D03*
%TO.N,/SCL*%
X125868301Y-145962499D03*
X135940800Y-149504400D03*
%TO.N,/SDA*%
X137210800Y-147726400D03*
X126878800Y-145948400D03*
%TO.N,Net-(IC1-GPIO18)*%
X127609600Y-138023600D03*
X139446000Y-154025600D03*
%TO.N,Net-(IC1-GPIO19)*%
X126492000Y-138023600D03*
X137972800Y-151638000D03*
%TO.N,+3.3V*%
X138734800Y-147878800D03*
X129997200Y-133299200D03*
X145034000Y-138887200D03*
%TO.N,Net-(IC1-CHIP_EN)*%
X120904000Y-143560800D03*
X129235200Y-136245600D03*
%TO.N,/SPI_HD*%
X137363200Y-144830800D03*
X132211299Y-144860499D03*
%TO.N,/SPI_D*%
X140868400Y-143408400D03*
X130770061Y-138866805D03*
%TO.N,/SPI_CLK*%
X140258800Y-142290800D03*
X131415301Y-141676901D03*
%TO.N,/VDD_SPI*%
X137617200Y-138430000D03*
X128473200Y-146050000D03*
%TO.N,/SPI_CS*%
X130759200Y-143002000D03*
X133197600Y-138480800D03*
%TO.N,VBUS*%
X145491200Y-147320000D03*
%TO.N,/XTAL_N*%
X124409200Y-133197600D03*
X125476000Y-135585200D03*
%TO.N,GND*%
X129336800Y-137972800D03*
X125120400Y-142189200D03*
%TO.N,/USB_DP_1*%
X147015200Y-151569700D03*
X147218400Y-149656800D03*
%TO.N,/USB_DN_1*%
X151739600Y-149961600D03*
X147929600Y-154432000D03*
%TO.N,VBUS*%
X148590000Y-147269200D03*
X148793200Y-151942800D03*
%TD*%
D12*
%TO.N,+3.3V*%
X138734800Y-148437600D02*
X138734800Y-147878800D01*
X141173200Y-150876000D02*
X138734800Y-148437600D01*
X141173200Y-153873200D02*
X141173200Y-150876000D01*
X139750800Y-155295600D02*
X141173200Y-153873200D01*
X131826000Y-155295600D02*
X139750800Y-155295600D01*
X124053600Y-147523200D02*
X131826000Y-155295600D01*
X123037600Y-147523200D02*
X124053600Y-147523200D01*
X119735600Y-144221200D02*
X123037600Y-147523200D01*
X119735600Y-142290800D02*
X119735600Y-144221200D01*
X120396000Y-141630400D02*
X119735600Y-142290800D01*
X120396000Y-141478000D02*
X120396000Y-141630400D01*
X120396000Y-139852400D02*
X121412000Y-138836400D01*
X120396000Y-141478000D02*
X120396000Y-139852400D01*
%TO.N,/SDA*%
X128656800Y-147726400D02*
X137210800Y-147726400D01*
X126878800Y-145948400D02*
X128656800Y-147726400D01*
%TO.N,/SCL*%
X125868301Y-145962499D02*
X129410202Y-149504400D01*
X129410202Y-149504400D02*
X135940800Y-149504400D01*
%TO.N,GND*%
X125120400Y-142189200D02*
X129336800Y-137972800D01*
%TO.N,+3.3V*%
X142697200Y-141224000D02*
X145034000Y-138887200D01*
X138734800Y-147878800D02*
X142087600Y-147878800D01*
X142697200Y-147269200D02*
X142697200Y-141224000D01*
X142087600Y-147878800D02*
X142697200Y-147269200D01*
%TO.N,Net-(IC1-GPIO18)*%
X124395400Y-141237800D02*
X127609600Y-138023600D01*
X138430000Y-150672800D02*
X129235200Y-150672800D01*
X129235200Y-150672800D02*
X124395400Y-145833000D01*
X124395400Y-145833000D02*
X124395400Y-141237800D01*
X139446000Y-151688800D02*
X138430000Y-150672800D01*
X139446000Y-154025600D02*
X139446000Y-151688800D01*
%TO.N,Net-(IC1-GPIO19)*%
X126492000Y-138277600D02*
X126492000Y-138023600D01*
X123850400Y-140919200D02*
X126492000Y-138277600D01*
X129336800Y-151638000D02*
X123850400Y-146151600D01*
X123850400Y-146151600D02*
X123850400Y-140919200D01*
X137972800Y-151638000D02*
X129336800Y-151638000D01*
%TO.N,Net-(IC1-CHIP_EN)*%
X120904000Y-142138400D02*
X120904000Y-143560800D01*
X126796800Y-136245600D02*
X120904000Y-142138400D01*
X129235200Y-136245600D02*
X126796800Y-136245600D01*
%TO.N,+3.3V*%
X131064000Y-132943600D02*
X130352800Y-132943600D01*
X145034000Y-138887200D02*
X139090400Y-132943600D01*
X130352800Y-132943600D02*
X129997200Y-133299200D01*
X139090400Y-132943600D02*
X131064000Y-132943600D01*
%TO.N,/SPI_CLK*%
X131415301Y-139196299D02*
X131415301Y-141676901D01*
X137677305Y-137464800D02*
X133146800Y-137464800D01*
X140258800Y-140046295D02*
X137677305Y-137464800D01*
X133146800Y-137464800D02*
X131415301Y-139196299D01*
X140258800Y-142290800D02*
X140258800Y-140046295D01*
%TO.N,/SPI_HD*%
X137363200Y-144830800D02*
X132240998Y-144830800D01*
X132240998Y-144830800D02*
X132211299Y-144860499D01*
%TO.N,/SPI_D*%
X141427200Y-142849600D02*
X140868400Y-143408400D01*
X141427200Y-142697200D02*
X141427200Y-142849600D01*
X141427200Y-139649200D02*
X141427200Y-142697200D01*
X138633200Y-136855200D02*
X141427200Y-139649200D01*
X130770061Y-138866805D02*
X132781666Y-136855200D01*
X132781666Y-136855200D02*
X138633200Y-136855200D01*
%TO.N,/SPI_CS*%
X131114800Y-143002000D02*
X130759200Y-143002000D01*
X133197600Y-140919200D02*
X131114800Y-143002000D01*
X133197600Y-138480800D02*
X133197600Y-140919200D01*
%TO.N,/VDD_SPI*%
X129997200Y-146050000D02*
X137617200Y-138430000D01*
X128473200Y-146050000D02*
X129997200Y-146050000D01*
%TO.N,VBUS*%
X145542000Y-147269200D02*
X145491200Y-147320000D01*
X148590000Y-147269200D02*
X145542000Y-147269200D01*
D13*
%TO.N,/XTAL_N*%
X124917200Y-133197600D02*
X124409200Y-133197600D01*
X125476000Y-133756400D02*
X124917200Y-133197600D01*
X125476000Y-135585200D02*
X125476000Y-133756400D01*
%TO.N,/USB_DP_1*%
X147218400Y-151366500D02*
X147015200Y-151569700D01*
X147218400Y-149656800D02*
X147218400Y-151366500D01*
%TO.N,/USB_DN_1*%
X151739600Y-150622000D02*
X147929600Y-154432000D01*
X151739600Y-149961600D02*
X151739600Y-150622000D01*
D12*
%TO.N,VBUS*%
X148285200Y-151434800D02*
X148793200Y-151942800D01*
X148590000Y-147269200D02*
X148285200Y-147574000D01*
X148285200Y-147574000D02*
X148285200Y-151434800D01*
%TD*%
M02*
