%TF.GenerationSoftware,KiCad,Pcbnew,7.0.9*%
%TF.CreationDate,2024-05-05T23:36:38+02:00*%
%TF.ProjectId,esp32_c3_custom_board,65737033-325f-4633-935f-637573746f6d,rev?*%
%TF.SameCoordinates,Original*%
%TF.FileFunction,Copper,L1,Top*%
%TF.FilePolarity,Positive*%
%FSLAX46Y46*%
G04 Gerber Fmt 4.6, Leading zero omitted, Abs format (unit mm)*
G04 Created by KiCad (PCBNEW 7.0.9) date 2024-05-05 23:36:38*
%MOMM*%
%LPD*%
G01*
G04 APERTURE LIST*
G04 Aperture macros list*
%AMRoundRect*
0 Rectangle with rounded corners*
0 $1 Rounding radius*
0 $2 $3 $4 $5 $6 $7 $8 $9 X,Y pos of 4 corners*
0 Add a 4 corners polygon primitive as box body*
4,1,4,$2,$3,$4,$5,$6,$7,$8,$9,$2,$3,0*
0 Add four circle primitives for the rounded corners*
1,1,$1+$1,$2,$3*
1,1,$1+$1,$4,$5*
1,1,$1+$1,$6,$7*
1,1,$1+$1,$8,$9*
0 Add four rect primitives between the rounded corners*
20,1,$1+$1,$2,$3,$4,$5,0*
20,1,$1+$1,$4,$5,$6,$7,0*
20,1,$1+$1,$6,$7,$8,$9,0*
20,1,$1+$1,$8,$9,$2,$3,0*%
G04 Aperture macros list end*
%TA.AperFunction,EtchedComponent*%
%ADD10C,0.001000*%
%TD*%
%TA.AperFunction,SMDPad,CuDef*%
%ADD11R,0.500000X0.350000*%
%TD*%
%TA.AperFunction,SMDPad,CuDef*%
%ADD12RoundRect,0.100000X-0.100000X0.130000X-0.100000X-0.130000X0.100000X-0.130000X0.100000X0.130000X0*%
%TD*%
%TA.AperFunction,SMDPad,CuDef*%
%ADD13RoundRect,0.100000X-0.130000X-0.100000X0.130000X-0.100000X0.130000X0.100000X-0.130000X0.100000X0*%
%TD*%
%TA.AperFunction,SMDPad,CuDef*%
%ADD14R,1.300000X0.500000*%
%TD*%
%TA.AperFunction,SMDPad,CuDef*%
%ADD15R,0.870000X0.500000*%
%TD*%
%TA.AperFunction,SMDPad,CuDef*%
%ADD16R,0.500000X0.500000*%
%TD*%
%TA.AperFunction,SMDPad,CuDef*%
%ADD17R,0.900000X0.500000*%
%TD*%
%TA.AperFunction,SMDPad,CuDef*%
%ADD18RoundRect,0.100000X0.100000X-0.130000X0.100000X0.130000X-0.100000X0.130000X-0.100000X-0.130000X0*%
%TD*%
%TA.AperFunction,SMDPad,CuDef*%
%ADD19R,1.750000X1.200000*%
%TD*%
%TA.AperFunction,SMDPad,CuDef*%
%ADD20RoundRect,0.100000X0.130000X0.100000X-0.130000X0.100000X-0.130000X-0.100000X0.130000X-0.100000X0*%
%TD*%
%TA.AperFunction,ComponentPad*%
%ADD21C,1.200000*%
%TD*%
%TA.AperFunction,SMDPad,CuDef*%
%ADD22R,1.150000X0.600000*%
%TD*%
%TA.AperFunction,SMDPad,CuDef*%
%ADD23R,0.600000X1.200000*%
%TD*%
%TA.AperFunction,SMDPad,CuDef*%
%ADD24R,0.800000X0.300000*%
%TD*%
%TA.AperFunction,SMDPad,CuDef*%
%ADD25R,0.300000X0.800000*%
%TD*%
%TA.AperFunction,SMDPad,CuDef*%
%ADD26R,3.750000X3.750000*%
%TD*%
%TA.AperFunction,SMDPad,CuDef*%
%ADD27R,1.000000X0.900000*%
%TD*%
%TA.AperFunction,SMDPad,CuDef*%
%ADD28R,0.500000X1.300000*%
%TD*%
%TA.AperFunction,SMDPad,CuDef*%
%ADD29R,0.500000X0.870000*%
%TD*%
%TA.AperFunction,SMDPad,CuDef*%
%ADD30R,1.200000X0.600000*%
%TD*%
%TA.AperFunction,SMDPad,CuDef*%
%ADD31R,1.150000X0.300000*%
%TD*%
%TA.AperFunction,SMDPad,CuDef*%
%ADD32R,1.500000X1.500000*%
%TD*%
%TA.AperFunction,SMDPad,CuDef*%
%ADD33R,1.525000X0.650000*%
%TD*%
%TA.AperFunction,ViaPad*%
%ADD34C,0.800000*%
%TD*%
%TA.AperFunction,Conductor*%
%ADD35C,0.250000*%
%TD*%
%TA.AperFunction,Conductor*%
%ADD36C,0.200000*%
%TD*%
G04 APERTURE END LIST*
D10*
%TO.C,MonoAnt1*%
X125316400Y-155651200D02*
X124417200Y-155651200D01*
X124417200Y-155651200D02*
X124417200Y-151227600D01*
X124417200Y-151227600D02*
X125316400Y-151227600D01*
X125316400Y-151227600D02*
X125316400Y-155651200D01*
G36*
X125316400Y-155651200D02*
G01*
X124417200Y-155651200D01*
X124417200Y-151227600D01*
X125316400Y-151227600D01*
X125316400Y-155651200D01*
G37*
X125316400Y-155651200D02*
X120417200Y-155651200D01*
X120417200Y-155651200D02*
X120417200Y-156151200D01*
X120417200Y-156151200D02*
X125316400Y-156151200D01*
X125316400Y-156151200D02*
X125316400Y-155651200D01*
G36*
X125316400Y-155651200D02*
G01*
X120417200Y-155651200D01*
X120417200Y-156151200D01*
X125316400Y-156151200D01*
X125316400Y-155651200D01*
G37*
X123016400Y-155651200D02*
X122516400Y-155651200D01*
X122516400Y-155651200D02*
X122516400Y-151227600D01*
X122516400Y-151227600D02*
X123016400Y-151227600D01*
X123016400Y-151227600D02*
X123016400Y-155651200D01*
G36*
X123016400Y-155651200D02*
G01*
X122516400Y-155651200D01*
X122516400Y-151227600D01*
X123016400Y-151227600D01*
X123016400Y-155651200D01*
G37*
X120417200Y-153511200D02*
X118417200Y-153511200D01*
X118417200Y-153511200D02*
X118417200Y-153011200D01*
X118417200Y-153011200D02*
X120417200Y-153011200D01*
X120417200Y-153011200D02*
X120417200Y-153511200D01*
G36*
X120417200Y-153511200D02*
G01*
X118417200Y-153511200D01*
X118417200Y-153011200D01*
X120417200Y-153011200D01*
X120417200Y-153511200D01*
G37*
X120417200Y-153011200D02*
X120917200Y-153011200D01*
X120917200Y-153011200D02*
X120917200Y-155651200D01*
X120917200Y-155651200D02*
X120417200Y-155651200D01*
X120417200Y-155651200D02*
X120417200Y-153011200D01*
G36*
X120417200Y-153011200D02*
G01*
X120917200Y-153011200D01*
X120917200Y-155651200D01*
X120417200Y-155651200D01*
X120417200Y-153011200D01*
G37*
X118417200Y-156151200D02*
X115717200Y-156151200D01*
X115717200Y-156151200D02*
X115717200Y-155651200D01*
X115717200Y-155651200D02*
X118417200Y-155651200D01*
X118417200Y-155651200D02*
X118417200Y-156151200D01*
G36*
X118417200Y-156151200D02*
G01*
X115717200Y-156151200D01*
X115717200Y-155651200D01*
X118417200Y-155651200D01*
X118417200Y-156151200D01*
G37*
X117917200Y-153011200D02*
X118417200Y-153011200D01*
X118417200Y-153011200D02*
X118417200Y-155651200D01*
X118417200Y-155651200D02*
X117917200Y-155651200D01*
X117917200Y-155651200D02*
X117917200Y-153011200D01*
G36*
X117917200Y-153011200D02*
G01*
X118417200Y-153011200D01*
X118417200Y-155651200D01*
X117917200Y-155651200D01*
X117917200Y-153011200D01*
G37*
X115717200Y-153511200D02*
X113717200Y-153511200D01*
X113717200Y-153511200D02*
X113717200Y-153011200D01*
X113717200Y-153011200D02*
X115717200Y-153011200D01*
X115717200Y-153011200D02*
X115717200Y-153511200D01*
G36*
X115717200Y-153511200D02*
G01*
X113717200Y-153511200D01*
X113717200Y-153011200D01*
X115717200Y-153011200D01*
X115717200Y-153511200D01*
G37*
X115717200Y-153011200D02*
X116217200Y-153011200D01*
X116217200Y-153011200D02*
X116217200Y-155651200D01*
X116217200Y-155651200D02*
X115717200Y-155651200D01*
X115717200Y-155651200D02*
X115717200Y-153011200D01*
G36*
X115717200Y-153011200D02*
G01*
X116217200Y-153011200D01*
X116217200Y-155651200D01*
X115717200Y-155651200D01*
X115717200Y-153011200D01*
G37*
X113717200Y-156151200D02*
X111017200Y-156151200D01*
X111017200Y-156151200D02*
X111017200Y-155651200D01*
X111017200Y-155651200D02*
X113717200Y-155651200D01*
X113717200Y-155651200D02*
X113717200Y-156151200D01*
G36*
X113717200Y-156151200D02*
G01*
X111017200Y-156151200D01*
X111017200Y-155651200D01*
X113717200Y-155651200D01*
X113717200Y-156151200D01*
G37*
X113217200Y-153011200D02*
X113717200Y-153011200D01*
X113717200Y-153011200D02*
X113717200Y-155651200D01*
X113717200Y-155651200D02*
X113217200Y-155651200D01*
X113217200Y-155651200D02*
X113217200Y-153011200D01*
G36*
X113217200Y-153011200D02*
G01*
X113717200Y-153011200D01*
X113717200Y-155651200D01*
X113217200Y-155651200D01*
X113217200Y-153011200D01*
G37*
X111017200Y-155651200D02*
X111517200Y-155651200D01*
X111517200Y-155651200D02*
X111517200Y-151711200D01*
X111517200Y-151711200D02*
X111017200Y-151711200D01*
X111017200Y-151711200D02*
X111017200Y-155651200D01*
G36*
X111017200Y-155651200D02*
G01*
X111517200Y-155651200D01*
X111517200Y-151711200D01*
X111017200Y-151711200D01*
X111017200Y-155651200D01*
G37*
%TD*%
D11*
%TO.P,HM1,1,GND_1*%
%TO.N,GND*%
X134264400Y-146568400D03*
%TO.P,HM1,2,CSB*%
%TO.N,+3.3V*%
X134264400Y-147218400D03*
%TO.P,HM1,3,SDI*%
%TO.N,/SDA*%
X134264400Y-147868400D03*
%TO.P,HM1,4,SCK*%
%TO.N,/SCL*%
X134264400Y-148518400D03*
%TO.P,HM1,5,SDO*%
%TO.N,GND*%
X132214400Y-148518400D03*
%TO.P,HM1,6,VDDIO*%
%TO.N,+3.3V*%
X132214400Y-147868400D03*
%TO.P,HM1,7,GND_2*%
%TO.N,GND*%
X132214400Y-147218400D03*
%TO.P,HM1,8,VDD*%
%TO.N,+3.3V*%
X132214400Y-146568400D03*
%TD*%
D12*
%TO.P,C3,1*%
%TO.N,/LNA_IN*%
X118059200Y-140685600D03*
%TO.P,C3,2*%
%TO.N,GND*%
X118059200Y-141325600D03*
%TD*%
D13*
%TO.P,C4,1*%
%TO.N,Net-(MonoAnt1-Feed)*%
X117368400Y-142463600D03*
%TO.P,C4,2*%
%TO.N,GND*%
X118008400Y-142463600D03*
%TD*%
%TO.P,R12,1*%
%TO.N,+3.3V*%
X130043400Y-134924800D03*
%TO.P,R12,2*%
%TO.N,Net-(IC1-CHIP_EN)*%
X130683400Y-134924800D03*
%TD*%
D14*
%TO.P,D1,1,K*%
%TO.N,Net-(D1-K)*%
X145039800Y-141376400D03*
D15*
%TO.P,D1,2,A*%
%TO.N,+3.3V*%
X146354800Y-141376400D03*
%TD*%
D16*
%TO.P,MonoAnt1,1,Feed*%
%TO.N,Net-(MonoAnt1-Feed)*%
X122766400Y-150977600D03*
D17*
%TO.P,MonoAnt1,2,Gnd*%
%TO.N,GND*%
X124866400Y-150977600D03*
%TD*%
D13*
%TO.P,C7,1*%
%TO.N,+3.3V*%
X146456400Y-144068800D03*
%TO.P,C7,2*%
%TO.N,GND*%
X147096400Y-144068800D03*
%TD*%
%TO.P,R7,1*%
%TO.N,Net-(IC1-GPIO19)*%
X140588600Y-152755600D03*
%TO.P,R7,2*%
%TO.N,/USB_DP*%
X141228600Y-152755600D03*
%TD*%
D12*
%TO.P,C9,1*%
%TO.N,/VBUS_Filt*%
X140650000Y-147594400D03*
%TO.P,C9,2*%
%TO.N,GND*%
X140650000Y-148234400D03*
%TD*%
D13*
%TO.P,R8,1*%
%TO.N,Net-(IC1-GPIO18)*%
X140609800Y-154127200D03*
%TO.P,R8,2*%
%TO.N,/USB_DN*%
X141249800Y-154127200D03*
%TD*%
D18*
%TO.P,C13,1*%
%TO.N,GND*%
X141020800Y-140030600D03*
%TO.P,C13,2*%
%TO.N,/VDD_SPI*%
X141020800Y-139390600D03*
%TD*%
%TO.P,R6,1*%
%TO.N,/XTAL_P*%
X123596400Y-138003200D03*
%TO.P,R6,2*%
%TO.N,Net-(Y1-CRYSTAL_1)*%
X123596400Y-137363200D03*
%TD*%
D13*
%TO.P,R1,1*%
%TO.N,Net-(IC1-SPIHD)*%
X129281400Y-145288000D03*
%TO.P,R1,2*%
%TO.N,/SPI_HD*%
X129921400Y-145288000D03*
%TD*%
D19*
%TO.P,S1,1,COM*%
%TO.N,Net-(IC1-CHIP_EN)*%
X133856400Y-134823200D03*
%TO.P,S1,2,NO*%
%TO.N,GND*%
X140106400Y-134823200D03*
%TD*%
D20*
%TO.P,R9,1*%
%TO.N,/USB_CC_1*%
X144947600Y-150723600D03*
%TO.P,R9,2*%
%TO.N,GND*%
X144307600Y-150723600D03*
%TD*%
D21*
%TO.P,JST1,1,V+*%
%TO.N,Net-(IC3-EN)*%
X154787600Y-134416800D03*
%TO.P,JST1,2,V-*%
%TO.N,GND*%
X154787600Y-136416800D03*
%TD*%
D12*
%TO.P,C5,1*%
%TO.N,/USB_DN*%
X142341600Y-154116600D03*
%TO.P,C5,2*%
%TO.N,GND*%
X142341600Y-154756600D03*
%TD*%
D20*
%TO.P,L3,1,1*%
%TO.N,+3.3V*%
X147345800Y-137312400D03*
%TO.P,L3,2,2*%
%TO.N,Net-(IC3-LX)*%
X146705800Y-137312400D03*
%TD*%
D13*
%TO.P,R5,1*%
%TO.N,Net-(IC1-SPID)*%
X129255600Y-140665200D03*
%TO.P,R5,2*%
%TO.N,/SPI_D*%
X129895600Y-140665200D03*
%TD*%
D22*
%TO.P,U2,1,IN*%
%TO.N,/VBUS_Filt*%
X142472600Y-144099200D03*
%TO.P,U2,2,GND*%
%TO.N,GND*%
X142472600Y-145049200D03*
%TO.P,U2,3,EN*%
%TO.N,/VBUS_Filt*%
X142472600Y-145999200D03*
%TO.P,U2,4,BP*%
%TO.N,Net-(U2-BP)*%
X144972600Y-145999200D03*
%TO.P,U2,5,OUT*%
%TO.N,+3.3V*%
X144972600Y-144099200D03*
%TD*%
D12*
%TO.P,C10,1*%
%TO.N,VBUS*%
X144256800Y-147446600D03*
%TO.P,C10,2*%
%TO.N,GND*%
X144256800Y-148086600D03*
%TD*%
%TO.P,R14,2*%
%TO.N,/SDA*%
X135991600Y-147412800D03*
%TO.P,R14,1*%
%TO.N,+3.3V*%
X135991600Y-146772800D03*
%TD*%
%TO.P,C17,1*%
%TO.N,Net-(IC3-EN)*%
X148386800Y-132888200D03*
%TO.P,C17,2*%
%TO.N,GND*%
X148386800Y-133528200D03*
%TD*%
D13*
%TO.P,R2,1*%
%TO.N,Net-(IC1-SPIQ)*%
X129230600Y-139547600D03*
%TO.P,R2,2*%
%TO.N,/SPI_Q*%
X129870600Y-139547600D03*
%TD*%
D23*
%TO.P,IC3,1,EN*%
%TO.N,Net-(IC3-EN)*%
X144759600Y-135645200D03*
%TO.P,IC3,2,GND*%
%TO.N,GND*%
X145709600Y-135645200D03*
%TO.P,IC3,3,LX*%
%TO.N,Net-(IC3-LX)*%
X146659600Y-135645200D03*
%TO.P,IC3,4,IN*%
%TO.N,Net-(IC3-EN)*%
X146659600Y-133045200D03*
%TO.P,IC3,5,FB*%
%TO.N,Net-(IC3-FB)*%
X144759600Y-133045200D03*
%TD*%
D24*
%TO.P,IC1,1,LNA_IN*%
%TO.N,/LNA_IN*%
X122620400Y-140490000D03*
%TO.P,IC1,2,VDD3P3_1*%
%TO.N,+3.3V*%
X122620400Y-140990000D03*
%TO.P,IC1,3,VDD3P3_2*%
X122620400Y-141490000D03*
%TO.P,IC1,4,XTAL_32K_P*%
%TO.N,unconnected-(IC1-XTAL_32K_P-Pad4)*%
X122620400Y-141990000D03*
%TO.P,IC1,5,XTAL_32K_N*%
%TO.N,unconnected-(IC1-XTAL_32K_N-Pad5)*%
X122620400Y-142490000D03*
%TO.P,IC1,6,GPIO2*%
%TO.N,unconnected-(IC1-GPIO2-Pad6)*%
X122620400Y-142990000D03*
%TO.P,IC1,7,CHIP_EN*%
%TO.N,Net-(IC1-CHIP_EN)*%
X122620400Y-143490000D03*
%TO.P,IC1,8,GPIO3*%
%TO.N,/GPIO3*%
X122620400Y-143990000D03*
D25*
%TO.P,IC1,9,MTMS*%
%TO.N,unconnected-(IC1-MTMS-Pad9)*%
X123370400Y-144740000D03*
%TO.P,IC1,10,MTDI*%
%TO.N,unconnected-(IC1-MTDI-Pad10)*%
X123870400Y-144740000D03*
%TO.P,IC1,11,VDD3P3_RTC*%
%TO.N,unconnected-(IC1-VDD3P3_RTC-Pad11)*%
X124370400Y-144740000D03*
%TO.P,IC1,12,MTCK*%
%TO.N,unconnected-(IC1-MTCK-Pad12)*%
X124870400Y-144740000D03*
%TO.P,IC1,13,MTDO*%
%TO.N,unconnected-(IC1-MTDO-Pad13)*%
X125370400Y-144740000D03*
%TO.P,IC1,14,GPIO8*%
%TO.N,/SCL*%
X125870400Y-144740000D03*
%TO.P,IC1,15,GPIO9*%
%TO.N,/SDA*%
X126370400Y-144740000D03*
%TO.P,IC1,16,GPIO10*%
%TO.N,unconnected-(IC1-GPIO10-Pad16)*%
X126870400Y-144740000D03*
D24*
%TO.P,IC1,17,VDD3P3_CPU*%
%TO.N,+3.3V*%
X127620400Y-143990000D03*
%TO.P,IC1,18,VDD_SPI*%
%TO.N,/VDD_SPI*%
X127620400Y-143490000D03*
%TO.P,IC1,19,SPIHD*%
%TO.N,Net-(IC1-SPIHD)*%
X127620400Y-142990000D03*
%TO.P,IC1,20,SPIWP*%
%TO.N,Net-(IC1-SPIWP)*%
X127620400Y-142490000D03*
%TO.P,IC1,21,SPICS0*%
%TO.N,/SPI_CS*%
X127620400Y-141990000D03*
%TO.P,IC1,22,SPICLK*%
%TO.N,Net-(IC1-SPICLK)*%
X127620400Y-141490000D03*
%TO.P,IC1,23,SPID*%
%TO.N,Net-(IC1-SPID)*%
X127620400Y-140990000D03*
%TO.P,IC1,24,SPIQ*%
%TO.N,Net-(IC1-SPIQ)*%
X127620400Y-140490000D03*
D25*
%TO.P,IC1,25,GPIO18*%
%TO.N,Net-(IC1-GPIO18)*%
X126870400Y-139740000D03*
%TO.P,IC1,26,GPIO19*%
%TO.N,Net-(IC1-GPIO19)*%
X126370400Y-139740000D03*
%TO.P,IC1,27,U0RXD*%
%TO.N,unconnected-(IC1-U0RXD-Pad27)*%
X125870400Y-139740000D03*
%TO.P,IC1,28,U0TXD*%
%TO.N,unconnected-(IC1-U0TXD-Pad28)*%
X125370400Y-139740000D03*
%TO.P,IC1,29,XTAL_N*%
%TO.N,/XTAL_N*%
X124870400Y-139740000D03*
%TO.P,IC1,30,XTAL_P*%
%TO.N,/XTAL_P*%
X124370400Y-139740000D03*
%TO.P,IC1,31,VDDA_1*%
%TO.N,+3.3V*%
X123870400Y-139740000D03*
%TO.P,IC1,32,VDDA_2*%
X123370400Y-139740000D03*
D26*
%TO.P,IC1,33,GND*%
%TO.N,GND*%
X125120400Y-142240000D03*
%TD*%
D13*
%TO.P,R3,1*%
%TO.N,Net-(IC1-SPIWP)*%
X130017600Y-144373600D03*
%TO.P,R3,2*%
%TO.N,/SPI_WP*%
X130657600Y-144373600D03*
%TD*%
D12*
%TO.P,C16,2*%
%TO.N,GND*%
X129590800Y-148408400D03*
%TO.P,C16,1*%
%TO.N,+3.3V*%
X129590800Y-147768400D03*
%TD*%
D13*
%TO.P,C8,1*%
%TO.N,Net-(U2-BP)*%
X146451800Y-146100800D03*
%TO.P,C8,2*%
%TO.N,GND*%
X147091800Y-146100800D03*
%TD*%
%TO.P,C18,1*%
%TO.N,+3.3V*%
X149016800Y-137312400D03*
%TO.P,C18,2*%
%TO.N,GND*%
X149656800Y-137312400D03*
%TD*%
D20*
%TO.P,L2,1,1*%
%TO.N,VBUS*%
X143205200Y-147574000D03*
%TO.P,L2,2,2*%
%TO.N,/VBUS_Filt*%
X142565200Y-147574000D03*
%TD*%
D12*
%TO.P,C11,1*%
%TO.N,/VBUS_Filt*%
X141630400Y-147574000D03*
%TO.P,C11,2*%
%TO.N,GND*%
X141630400Y-148214000D03*
%TD*%
D13*
%TO.P,R10,1*%
%TO.N,GND*%
X144256800Y-149606000D03*
%TO.P,R10,2*%
%TO.N,/USB_CC_2*%
X144896800Y-149606000D03*
%TD*%
D27*
%TO.P,Y1,1,CRYSTAL_1*%
%TO.N,Net-(Y1-CRYSTAL_1)*%
X121387600Y-134416800D03*
%TO.P,Y1,2,GND_1*%
%TO.N,GND*%
X123037600Y-134416800D03*
%TO.P,Y1,3,CRYSTAL_2*%
%TO.N,/XTAL_N*%
X123037600Y-133190800D03*
%TO.P,Y1,4,GND_2*%
%TO.N,GND*%
X121387600Y-133190800D03*
%TD*%
D12*
%TO.P,C15,2*%
%TO.N,GND*%
X130708400Y-148382600D03*
%TO.P,C15,1*%
%TO.N,+3.3V*%
X130708400Y-147742600D03*
%TD*%
D13*
%TO.P,R4,1*%
%TO.N,Net-(IC1-SPICLK)*%
X129535400Y-141681200D03*
%TO.P,R4,2*%
%TO.N,/SPI_CLK*%
X130175400Y-141681200D03*
%TD*%
D12*
%TO.P,C14,1*%
%TO.N,Net-(IC1-CHIP_EN)*%
X130708400Y-136169000D03*
%TO.P,C14,2*%
%TO.N,GND*%
X130708400Y-136809000D03*
%TD*%
D18*
%TO.P,C6,1*%
%TO.N,/USB_DP*%
X142280000Y-152775400D03*
%TO.P,C6,2*%
%TO.N,GND*%
X142280000Y-152135400D03*
%TD*%
D28*
%TO.P,D2,1,K*%
%TO.N,Net-(D2-K)*%
X135331200Y-154223000D03*
D29*
%TO.P,D2,2,A*%
%TO.N,/GPIO3*%
X135331200Y-152908000D03*
%TD*%
D13*
%TO.P,C1,1*%
%TO.N,/XTAL_N*%
X125496400Y-136652000D03*
%TO.P,C1,2*%
%TO.N,GND*%
X126136400Y-136652000D03*
%TD*%
%TO.P,R11,1*%
%TO.N,GND*%
X142083000Y-142290800D03*
%TO.P,R11,2*%
%TO.N,Net-(D1-K)*%
X142723000Y-142290800D03*
%TD*%
D30*
%TO.P,U1,1,I/O1*%
%TO.N,/USB_DP*%
X143905600Y-152466000D03*
%TO.P,U1,2,GND*%
%TO.N,GND*%
X143905600Y-153416000D03*
%TO.P,U1,3,I/O2*%
%TO.N,/USB_DN*%
X143905600Y-154366000D03*
%TO.P,U1,4,I/O2*%
%TO.N,/USB_DN_1*%
X146405600Y-154366000D03*
%TO.P,U1,5,VBUS*%
%TO.N,VBUS*%
X146405600Y-153416000D03*
%TO.P,U1,6,I/O1*%
%TO.N,/USB_DP_1*%
X146405600Y-152466000D03*
%TD*%
D12*
%TO.P,R15,2*%
%TO.N,/SCL*%
X137617200Y-149479400D03*
%TO.P,R15,1*%
%TO.N,+3.3V*%
X137617200Y-148839400D03*
%TD*%
%TO.P,R17,1*%
%TO.N,Net-(IC3-FB)*%
X143357600Y-132791200D03*
%TO.P,R17,2*%
%TO.N,GND*%
X143357600Y-133431200D03*
%TD*%
%TO.P,R13,1*%
%TO.N,GND*%
X133299200Y-154630600D03*
%TO.P,R13,2*%
%TO.N,Net-(D2-K)*%
X133299200Y-155270600D03*
%TD*%
D13*
%TO.P,R16,1*%
%TO.N,Net-(IC3-FB)*%
X144267400Y-137312400D03*
%TO.P,R16,2*%
%TO.N,+3.3V*%
X144907400Y-137312400D03*
%TD*%
%TO.P,C2,1*%
%TO.N,GND*%
X120619600Y-137312400D03*
%TO.P,C2,2*%
%TO.N,Net-(Y1-CRYSTAL_1)*%
X121259600Y-137312400D03*
%TD*%
D22*
%TO.P,J1,A1,GND_1*%
%TO.N,GND*%
X150130200Y-152795200D03*
%TO.P,J1,A4,VBUS_1*%
%TO.N,VBUS*%
X150130200Y-151995200D03*
D31*
%TO.P,J1,A5,CC1*%
%TO.N,/USB_CC_1*%
X150130200Y-150845200D03*
%TO.P,J1,A6,DP1*%
%TO.N,/USB_DP_1*%
X150130200Y-149845200D03*
%TO.P,J1,A7,DN1*%
%TO.N,/USB_DN_1*%
X150130200Y-149345200D03*
%TO.P,J1,A8,SBU1*%
%TO.N,unconnected-(J1-SBU1-PadA8)*%
X150130200Y-148345200D03*
D22*
%TO.P,J1,A9,VBUS_2*%
%TO.N,VBUS*%
X150130200Y-147195200D03*
%TO.P,J1,A12,GND_2*%
%TO.N,GND*%
X150130200Y-146395200D03*
D31*
%TO.P,J1,B5,CC2*%
%TO.N,/USB_CC_2*%
X150130200Y-147845200D03*
%TO.P,J1,B6,DP2*%
%TO.N,/USB_DP_1*%
X150130200Y-148845200D03*
%TO.P,J1,B7,DN2*%
%TO.N,/USB_DN_1*%
X150130200Y-150345200D03*
%TO.P,J1,B8,SBU2*%
%TO.N,unconnected-(J1-SBU2-PadB8)*%
X150130200Y-151345200D03*
D32*
%TO.P,J1,MP1,MP1*%
%TO.N,unconnected-(J1-PadMP1)*%
X150705200Y-154715200D03*
%TO.P,J1,MP2,MP2*%
%TO.N,unconnected-(J1-PadMP2)*%
X150705200Y-144475200D03*
%TO.P,J1,MP3,MP3*%
%TO.N,unconnected-(J1-PadMP3)*%
X154635200Y-154715200D03*
%TO.P,J1,MP4,MP4*%
%TO.N,unconnected-(J1-PadMP4)*%
X154635200Y-144475200D03*
%TD*%
D18*
%TO.P,L1,1,1*%
%TO.N,Net-(MonoAnt1-Feed)*%
X116992400Y-141376400D03*
%TO.P,L1,2,2*%
%TO.N,/LNA_IN*%
X116992400Y-140736400D03*
%TD*%
D33*
%TO.P,IC2,1,CS#*%
%TO.N,/SPI_CS*%
X133666400Y-139750800D03*
%TO.P,IC2,2,SO_(IO1)*%
%TO.N,/SPI_Q*%
X133666400Y-141020800D03*
%TO.P,IC2,3,WP#_(IO2)*%
%TO.N,/SPI_WP*%
X133666400Y-142290800D03*
%TO.P,IC2,4,VSS*%
%TO.N,GND*%
X133666400Y-143560800D03*
%TO.P,IC2,5,SI_(IO0)*%
%TO.N,/SPI_D*%
X139090400Y-143560800D03*
%TO.P,IC2,6,SCLK*%
%TO.N,/SPI_CLK*%
X139090400Y-142290800D03*
%TO.P,IC2,7,HOLD#_(IO3)*%
%TO.N,/SPI_HD*%
X139090400Y-141020800D03*
%TO.P,IC2,8,VCC*%
%TO.N,/VDD_SPI*%
X139090400Y-139750800D03*
%TD*%
D12*
%TO.P,C12,1*%
%TO.N,/VDD_SPI*%
X142087600Y-139390600D03*
%TO.P,C12,2*%
%TO.N,GND*%
X142087600Y-140030600D03*
%TD*%
D34*
%TO.N,+3.3V*%
X121412000Y-138836400D03*
X120396000Y-141478000D03*
%TO.N,/SCL*%
X125868301Y-145962499D03*
X135940800Y-149504400D03*
%TO.N,/SDA*%
X137210800Y-147726400D03*
X126878800Y-145948400D03*
%TO.N,Net-(IC1-GPIO18)*%
X127609600Y-138023600D03*
X139446000Y-154025600D03*
%TO.N,Net-(IC1-GPIO19)*%
X126492000Y-138023600D03*
X137972800Y-151638000D03*
%TO.N,+3.3V*%
X138734800Y-147878800D03*
X129997200Y-133299200D03*
X145034000Y-138887200D03*
%TO.N,Net-(IC1-CHIP_EN)*%
X120904000Y-143560800D03*
X129235200Y-136245600D03*
%TO.N,/SPI_HD*%
X137363200Y-144830800D03*
X132211299Y-144860499D03*
%TO.N,/SPI_D*%
X140868400Y-143408400D03*
X130770061Y-138866805D03*
%TO.N,/SPI_CLK*%
X140258800Y-142290800D03*
X131415301Y-141676901D03*
%TO.N,/VDD_SPI*%
X137617200Y-138430000D03*
X128473200Y-146050000D03*
%TO.N,/SPI_CS*%
X130759200Y-143002000D03*
X133197600Y-138480800D03*
%TO.N,VBUS*%
X145491200Y-147320000D03*
%TO.N,/XTAL_N*%
X124409200Y-133197600D03*
X125476000Y-135585200D03*
%TO.N,GND*%
X129336800Y-137972800D03*
X125120400Y-142189200D03*
%TO.N,/USB_DP_1*%
X147015200Y-151569700D03*
X147218400Y-149656800D03*
%TO.N,/USB_DN_1*%
X151739600Y-149961600D03*
X147929600Y-154432000D03*
%TO.N,VBUS*%
X148590000Y-147269200D03*
X148793200Y-151942800D03*
%TD*%
D35*
%TO.N,+3.3V*%
X122466800Y-138836400D02*
X123370400Y-139740000D01*
X121412000Y-138836400D02*
X122466800Y-138836400D01*
X120408000Y-141490000D02*
X120396000Y-141478000D01*
X122620400Y-141490000D02*
X120408000Y-141490000D01*
X122620400Y-140990000D02*
X122620400Y-141490000D01*
X123870400Y-139740000D02*
X123370400Y-139740000D01*
X127620400Y-146222505D02*
X127620400Y-143990000D01*
X129166295Y-147768400D02*
X127620400Y-146222505D01*
X129590800Y-147768400D02*
X129166295Y-147768400D01*
%TO.N,/SDA*%
X126878800Y-145948400D02*
X126370400Y-145440000D01*
X126370400Y-145440000D02*
X126370400Y-144740000D01*
%TO.N,/SCL*%
X125868301Y-144742099D02*
X125870400Y-144740000D01*
X125868301Y-145962499D02*
X125868301Y-144742099D01*
%TO.N,GND*%
X129544600Y-137972800D02*
X130708400Y-136809000D01*
X129336800Y-137972800D02*
X129544600Y-137972800D01*
%TO.N,Net-(IC1-SPIQ)*%
X128038800Y-140490000D02*
X127620400Y-140490000D01*
X128981200Y-139547600D02*
X128038800Y-140490000D01*
X129230600Y-139547600D02*
X128981200Y-139547600D01*
%TO.N,Net-(Y1-CRYSTAL_1)*%
X121387600Y-137184400D02*
X121259600Y-137312400D01*
X121387600Y-134416800D02*
X121387600Y-137184400D01*
X121716800Y-137312400D02*
X121259600Y-137312400D01*
X121767600Y-137363200D02*
X121716800Y-137312400D01*
%TO.N,+3.3V*%
X138577800Y-147878800D02*
X137617200Y-148839400D01*
X138734800Y-147878800D02*
X138577800Y-147878800D01*
X138734800Y-147878800D02*
X137628800Y-146772800D01*
X137628800Y-146772800D02*
X135991600Y-146772800D01*
%TO.N,/SCL*%
X134264400Y-148518400D02*
X134954800Y-148518400D01*
X134954800Y-148518400D02*
X135940800Y-149504400D01*
%TO.N,/GPIO3*%
X124256800Y-145948400D02*
X131216400Y-152908000D01*
X131216400Y-152908000D02*
X135331200Y-152908000D01*
X121818400Y-145542000D02*
X122224800Y-145948400D01*
X122224800Y-145948400D02*
X124256800Y-145948400D01*
X122049600Y-143990000D02*
X121818400Y-144221200D01*
X122620400Y-143990000D02*
X122049600Y-143990000D01*
X121818400Y-144221200D02*
X121818400Y-145542000D01*
%TO.N,/SCL*%
X137617200Y-149479400D02*
X135965800Y-149479400D01*
X135965800Y-149479400D02*
X135940800Y-149504400D01*
%TO.N,/SDA*%
X136897200Y-147412800D02*
X137210800Y-147726400D01*
X135991600Y-147412800D02*
X136897200Y-147412800D01*
%TO.N,Net-(IC1-GPIO18)*%
X127609600Y-139000800D02*
X126870400Y-139740000D01*
X127609600Y-138023600D02*
X127609600Y-139000800D01*
%TO.N,Net-(IC1-GPIO19)*%
X139471000Y-151638000D02*
X140588600Y-152755600D01*
X137972800Y-151638000D02*
X139471000Y-151638000D01*
%TO.N,Net-(IC1-GPIO18)*%
X139547600Y-154127200D02*
X139446000Y-154025600D01*
X140609800Y-154127200D02*
X139547600Y-154127200D01*
%TO.N,Net-(IC1-GPIO19)*%
X126370400Y-138145200D02*
X126370400Y-139740000D01*
X126492000Y-138023600D02*
X126370400Y-138145200D01*
%TO.N,+3.3V*%
X129997200Y-134878600D02*
X130043400Y-134924800D01*
X129997200Y-133299200D02*
X129997200Y-134878600D01*
X145237200Y-138684000D02*
X145034000Y-138887200D01*
X146279000Y-138684000D02*
X145237200Y-138684000D01*
%TO.N,Net-(IC1-CHIP_EN)*%
X120904000Y-143560800D02*
X120974800Y-143490000D01*
X120974800Y-143490000D02*
X122620400Y-143490000D01*
X129311800Y-136169000D02*
X129235200Y-136245600D01*
X130708400Y-136169000D02*
X129311800Y-136169000D01*
%TO.N,/SPI_Q*%
X129870600Y-138740961D02*
X129870600Y-139547600D01*
X130638761Y-137972800D02*
X129870600Y-138740961D01*
X132029200Y-138785600D02*
X131216400Y-137972800D01*
X131216400Y-137972800D02*
X130638761Y-137972800D01*
X132029200Y-139851100D02*
X132029200Y-138785600D01*
X133666400Y-141020800D02*
X133198900Y-141020800D01*
X133198900Y-141020800D02*
X132029200Y-139851100D01*
%TO.N,/SPI_HD*%
X136855200Y-141782800D02*
X137617200Y-141020800D01*
X137617200Y-141020800D02*
X139090400Y-141020800D01*
X136855200Y-144322800D02*
X136855200Y-141782800D01*
X137363200Y-144830800D02*
X136855200Y-144322800D01*
X131783798Y-145288000D02*
X129921400Y-145288000D01*
X132211299Y-144860499D02*
X131783798Y-145288000D01*
%TO.N,/SPI_D*%
X139242800Y-143408400D02*
X139090400Y-143560800D01*
X140868400Y-143408400D02*
X139242800Y-143408400D01*
X130810000Y-138906744D02*
X130770061Y-138866805D01*
X130810000Y-140208000D02*
X130810000Y-138906744D01*
X130352800Y-140665200D02*
X130810000Y-140208000D01*
X129895600Y-140665200D02*
X130352800Y-140665200D01*
%TO.N,Net-(IC1-SPID)*%
X128930800Y-140990000D02*
X127620400Y-140990000D01*
X129255600Y-140665200D02*
X128930800Y-140990000D01*
%TO.N,Net-(IC1-SPICLK)*%
X129344200Y-141490000D02*
X127620400Y-141490000D01*
X129535400Y-141681200D02*
X129344200Y-141490000D01*
%TO.N,/SPI_CLK*%
X131415301Y-141676901D02*
X130179699Y-141676901D01*
X130179699Y-141676901D02*
X130175400Y-141681200D01*
X139090400Y-142290800D02*
X140258800Y-142290800D01*
%TO.N,/SPI_CS*%
X133197600Y-139282000D02*
X133666400Y-139750800D01*
X133197600Y-138480800D02*
X133197600Y-139282000D01*
%TO.N,/SPI_WP*%
X131146100Y-144373600D02*
X130657600Y-144373600D01*
X133228900Y-142290800D02*
X131146100Y-144373600D01*
X133666400Y-142290800D02*
X133228900Y-142290800D01*
%TO.N,/VDD_SPI*%
X137769600Y-138430000D02*
X139090400Y-139750800D01*
X137617200Y-138430000D02*
X137769600Y-138430000D01*
X128159004Y-143465000D02*
X128473200Y-143779196D01*
X128473200Y-143779196D02*
X128473200Y-146050000D01*
X127645400Y-143465000D02*
X128159004Y-143465000D01*
X127620400Y-143490000D02*
X127645400Y-143465000D01*
%TO.N,Net-(IC1-SPIHD)*%
X128320400Y-142990000D02*
X127620400Y-142990000D01*
X129281400Y-143951000D02*
X128320400Y-142990000D01*
X129281400Y-145288000D02*
X129281400Y-143951000D01*
%TO.N,Net-(IC1-SPIWP)*%
X130017600Y-143987600D02*
X128520000Y-142490000D01*
X128520000Y-142490000D02*
X127620400Y-142490000D01*
X130017600Y-144373600D02*
X130017600Y-143987600D01*
%TO.N,/SPI_CS*%
X128704404Y-141990000D02*
X127620400Y-141990000D01*
X130759200Y-143002000D02*
X129716404Y-143002000D01*
X129716404Y-143002000D02*
X128704404Y-141990000D01*
%TO.N,Net-(IC1-SPIQ)*%
X127648400Y-140462000D02*
X127620400Y-140490000D01*
%TO.N,/VDD_SPI*%
X139450600Y-139390600D02*
X141020800Y-139390600D01*
X139090400Y-139750800D02*
X139450600Y-139390600D01*
X142087600Y-139390600D02*
X141020800Y-139390600D01*
%TO.N,VBUS*%
X144383400Y-147320000D02*
X144256800Y-147446600D01*
X145491200Y-147320000D02*
X144383400Y-147320000D01*
%TO.N,/VBUS_Filt*%
X140877400Y-147594400D02*
X142472600Y-145999200D01*
X140650000Y-147594400D02*
X140877400Y-147594400D01*
%TO.N,VBUS*%
X148412600Y-147446600D02*
X148590000Y-147269200D01*
D36*
%TO.N,/XTAL_N*%
X123044400Y-133197600D02*
X123037600Y-133190800D01*
X124409200Y-133197600D02*
X123044400Y-133197600D01*
X125496400Y-135605600D02*
X125476000Y-135585200D01*
X125496400Y-136652000D02*
X125496400Y-135605600D01*
D35*
%TO.N,GND*%
X125120400Y-142240000D02*
X125120400Y-142189200D01*
%TO.N,Net-(MonoAnt1-Feed)*%
X122766400Y-149538000D02*
X122766400Y-150902100D01*
X117368400Y-144140000D02*
X122766400Y-149538000D01*
X117368400Y-142463600D02*
X117368400Y-144140000D01*
X116992400Y-142087600D02*
X117368400Y-142463600D01*
X116992400Y-141376400D02*
X116992400Y-142087600D01*
%TO.N,/LNA_IN*%
X118059200Y-140685600D02*
X117043200Y-140685600D01*
X117043200Y-140685600D02*
X116992400Y-140736400D01*
X118254800Y-140490000D02*
X122620400Y-140490000D01*
X118059200Y-140685600D02*
X118254800Y-140490000D01*
%TO.N,Net-(IC1-CHIP_EN)*%
X130683400Y-136144000D02*
X130708400Y-136169000D01*
X130683400Y-134924800D02*
X130683400Y-136144000D01*
X130785000Y-134823200D02*
X130683400Y-134924800D01*
X133856400Y-134823200D02*
X130785000Y-134823200D01*
%TO.N,+3.3V*%
X146456400Y-141478000D02*
X146354800Y-141376400D01*
X146456400Y-144068800D02*
X146456400Y-141478000D01*
%TO.N,/VBUS_Filt*%
X141897600Y-144099200D02*
X142472600Y-144099200D01*
X141020800Y-144976000D02*
X141897600Y-144099200D01*
X141528800Y-145999200D02*
X141020800Y-145491200D01*
X142472600Y-145999200D02*
X141528800Y-145999200D01*
X141020800Y-145491200D02*
X141020800Y-144976000D01*
%TO.N,Net-(U2-BP)*%
X146350200Y-145999200D02*
X146451800Y-146100800D01*
X144972600Y-145999200D02*
X146350200Y-145999200D01*
%TO.N,+3.3V*%
X146426000Y-144099200D02*
X146456400Y-144068800D01*
X144972600Y-144099200D02*
X146426000Y-144099200D01*
%TO.N,/VBUS_Filt*%
X140670400Y-147574000D02*
X140650000Y-147594400D01*
X141630400Y-147574000D02*
X140670400Y-147574000D01*
X142565200Y-147574000D02*
X141630400Y-147574000D01*
%TO.N,VBUS*%
X143332600Y-147446600D02*
X143205200Y-147574000D01*
X144256800Y-147446600D02*
X143332600Y-147446600D01*
D36*
%TO.N,/USB_DP*%
X141228600Y-152755600D02*
X142260200Y-152755600D01*
X142260200Y-152755600D02*
X142280000Y-152775400D01*
X143190000Y-152466000D02*
X142880600Y-152775400D01*
X142880600Y-152775400D02*
X142280000Y-152775400D01*
X143905600Y-152466000D02*
X143190000Y-152466000D01*
%TO.N,/USB_DN*%
X141260400Y-154116600D02*
X141249800Y-154127200D01*
X142341600Y-154116600D02*
X141260400Y-154116600D01*
X143656200Y-154116600D02*
X142341600Y-154116600D01*
X143905600Y-154366000D02*
X143656200Y-154116600D01*
D35*
%TO.N,/USB_CC_1*%
X148234400Y-150723600D02*
X144947600Y-150723600D01*
X148356000Y-150845200D02*
X148234400Y-150723600D01*
X150130200Y-150845200D02*
X148356000Y-150845200D01*
%TO.N,/USB_CC_2*%
X145694400Y-149606000D02*
X144896800Y-149606000D01*
D36*
%TO.N,/USB_DP_1*%
X147406800Y-149845200D02*
X147218400Y-149656800D01*
X150130200Y-149845200D02*
X147406800Y-149845200D01*
X147015200Y-151856400D02*
X146405600Y-152466000D01*
X147015200Y-151569700D02*
X147015200Y-151856400D01*
X147980000Y-148895200D02*
X147218400Y-149656800D01*
X150113600Y-148895200D02*
X147980000Y-148895200D01*
X150130200Y-148845200D02*
X150130200Y-148878600D01*
X150130200Y-148878600D02*
X150113600Y-148895200D01*
D35*
%TO.N,/USB_CC_2*%
X147116800Y-148183600D02*
X145694400Y-149606000D01*
X148700905Y-148183600D02*
X147116800Y-148183600D01*
X150130200Y-147845200D02*
X149039305Y-147845200D01*
X149039305Y-147845200D02*
X148700905Y-148183600D01*
D36*
%TO.N,/USB_DN_1*%
X151123200Y-149345200D02*
X151739600Y-149961600D01*
X150130200Y-149345200D02*
X151123200Y-149345200D01*
X146471600Y-154432000D02*
X146405600Y-154366000D01*
X147929600Y-154432000D02*
X146471600Y-154432000D01*
X151356000Y-150345200D02*
X151739600Y-149961600D01*
X150130200Y-150345200D02*
X151356000Y-150345200D01*
D35*
%TO.N,VBUS*%
X147320000Y-153416000D02*
X146405600Y-153416000D01*
X148793200Y-151942800D02*
X147320000Y-153416000D01*
X150056200Y-147269200D02*
X150130200Y-147195200D01*
X148590000Y-147269200D02*
X150056200Y-147269200D01*
X148845600Y-151995200D02*
X148793200Y-151942800D01*
X150130200Y-151995200D02*
X148845600Y-151995200D01*
%TO.N,GND*%
X130682600Y-148408400D02*
X130708400Y-148382600D01*
X131770600Y-154630600D02*
X128042100Y-150902100D01*
X128042100Y-150902100D02*
X125181573Y-150902100D01*
X142087600Y-142286200D02*
X142083000Y-142290800D01*
X141610000Y-148234400D02*
X141630400Y-148214000D01*
X118059200Y-142412800D02*
X118008400Y-142463600D01*
X141681200Y-148209400D02*
X141630400Y-148260200D01*
X133299200Y-154630600D02*
X131770600Y-154630600D01*
%TO.N,+3.3V*%
X132214400Y-147868400D02*
X132088600Y-147742600D01*
X129590800Y-147768400D02*
X130682600Y-147768400D01*
X131155200Y-146568400D02*
X130708400Y-147015200D01*
X146913600Y-139344400D02*
X146354800Y-139903200D01*
X135797788Y-146772800D02*
X135991600Y-146772800D01*
X130682600Y-147768400D02*
X130708400Y-147742600D01*
X144907400Y-137312400D02*
X146279000Y-138684000D01*
X148285200Y-137312400D02*
X149016800Y-137312400D01*
X132088600Y-147742600D02*
X130708400Y-147742600D01*
X133400800Y-145135600D02*
X135534400Y-145135600D01*
X146279000Y-138684000D02*
X146913600Y-138684000D01*
X132214400Y-146568400D02*
X132214400Y-146322000D01*
X135352188Y-147218400D02*
X135797788Y-146772800D01*
X130708400Y-147015200D02*
X130708400Y-147742600D01*
X146431400Y-144099200D02*
X146451800Y-144119600D01*
X147345800Y-137312400D02*
X148285200Y-137312400D01*
X134264400Y-147218400D02*
X135352188Y-147218400D01*
X146913600Y-138684000D02*
X148285200Y-137312400D01*
X132214400Y-146568400D02*
X131155200Y-146568400D01*
X135534400Y-145135600D02*
X135991600Y-145592800D01*
X135991600Y-145592800D02*
X135991600Y-146772800D01*
X146354800Y-139903200D02*
X146354800Y-141376400D01*
X146913600Y-138684000D02*
X146913600Y-139344400D01*
X132214400Y-146322000D02*
X133400800Y-145135600D01*
%TO.N,/SDA*%
X135991600Y-147412800D02*
X135536000Y-147868400D01*
X135536000Y-147868400D02*
X134264400Y-147868400D01*
%TO.N,Net-(U2-BP)*%
X145074200Y-146100800D02*
X144972600Y-145999200D01*
%TO.N,Net-(Y1-CRYSTAL_1)*%
X123596400Y-137363200D02*
X121767600Y-137363200D01*
D36*
%TO.N,/XTAL_N*%
X124870400Y-138883200D02*
X125496400Y-138257200D01*
X125496400Y-138257200D02*
X125496400Y-136652000D01*
X124870400Y-139740000D02*
X124870400Y-138883200D01*
D35*
%TO.N,Net-(D1-K)*%
X144125400Y-142290800D02*
X145039800Y-141376400D01*
X142723000Y-142290800D02*
X144125400Y-142290800D01*
%TO.N,Net-(D2-K)*%
X135331200Y-154223000D02*
X134283600Y-155270600D01*
X134283600Y-155270600D02*
X133299200Y-155270600D01*
D36*
%TO.N,/XTAL_P*%
X123596400Y-138003200D02*
X123931600Y-138003200D01*
X123931600Y-138003200D02*
X124370400Y-138442000D01*
X124370400Y-138442000D02*
X124370400Y-139740000D01*
D35*
%TO.N,Net-(IC3-EN)*%
X148386800Y-132888200D02*
X146816600Y-132888200D01*
X146202400Y-133045200D02*
X144759600Y-134488000D01*
X148386800Y-132888200D02*
X153259000Y-132888200D01*
X153259000Y-132888200D02*
X154787600Y-134416800D01*
X144759600Y-134488000D02*
X144759600Y-135645200D01*
X146816600Y-132888200D02*
X146659600Y-133045200D01*
X146659600Y-133045200D02*
X146202400Y-133045200D01*
%TO.N,Net-(IC3-LX)*%
X146705800Y-135691400D02*
X146659600Y-135645200D01*
X146705800Y-137312400D02*
X146705800Y-135691400D01*
%TO.N,Net-(IC3-FB)*%
X143357600Y-132791200D02*
X144505600Y-132791200D01*
X143357600Y-136855200D02*
X143814800Y-137312400D01*
X143357600Y-134975600D02*
X143357600Y-136855200D01*
X143814800Y-137312400D02*
X144267400Y-137312400D01*
X144505600Y-132791200D02*
X144759600Y-133045200D01*
X144759600Y-133045200D02*
X144759600Y-133573600D01*
X144759600Y-133573600D02*
X143357600Y-134975600D01*
%TD*%
%TA.AperFunction,Conductor*%
%TO.N,GND*%
G36*
X158240139Y-131434985D02*
G01*
X158285894Y-131487789D01*
X158297100Y-131539300D01*
X158297100Y-156090300D01*
X158277415Y-156157339D01*
X158224611Y-156203094D01*
X158173100Y-156214300D01*
X127823734Y-156214300D01*
X127756695Y-156194615D01*
X127710940Y-156141811D01*
X127699846Y-156095572D01*
X127635761Y-154589589D01*
X127508000Y-151587200D01*
X127507999Y-151587199D01*
X127507999Y-151587198D01*
X124002799Y-148183599D01*
X124002800Y-148183599D01*
X121852940Y-147982443D01*
X121788026Y-147956598D01*
X121776811Y-147946663D01*
X117830219Y-144000071D01*
X117796734Y-143938748D01*
X117793900Y-143912390D01*
X117793900Y-142885854D01*
X117813585Y-142818815D01*
X117820778Y-142809889D01*
X117820711Y-142809841D01*
X117826442Y-142801949D01*
X117826450Y-142801942D01*
X117884046Y-142688904D01*
X117884046Y-142688902D01*
X117884047Y-142688901D01*
X117898899Y-142595124D01*
X117898900Y-142595119D01*
X117898899Y-142332082D01*
X117884046Y-142238296D01*
X117826450Y-142125258D01*
X117826446Y-142125254D01*
X117826445Y-142125252D01*
X117736747Y-142035554D01*
X117736744Y-142035552D01*
X117736742Y-142035550D01*
X117643399Y-141987989D01*
X117623701Y-141977952D01*
X117525107Y-141962337D01*
X117525368Y-141960684D01*
X117466883Y-141938394D01*
X117425412Y-141882163D01*
X117417900Y-141839659D01*
X117417900Y-141779515D01*
X117431416Y-141723220D01*
X117478046Y-141631704D01*
X117478046Y-141631702D01*
X117478047Y-141631701D01*
X117492899Y-141537924D01*
X117492900Y-141537919D01*
X117492899Y-141235099D01*
X117512583Y-141168061D01*
X117565387Y-141122306D01*
X117616899Y-141111100D01*
X117636945Y-141111100D01*
X117703984Y-141130785D01*
X117712910Y-141137978D01*
X117712959Y-141137911D01*
X117720853Y-141143645D01*
X117720858Y-141143650D01*
X117822725Y-141195554D01*
X117833898Y-141201247D01*
X117927675Y-141216099D01*
X117927681Y-141216100D01*
X118190718Y-141216099D01*
X118284504Y-141201246D01*
X118397542Y-141143650D01*
X118487250Y-141053942D01*
X118523293Y-140983203D01*
X118571267Y-140932409D01*
X118633777Y-140915500D01*
X119696832Y-140915500D01*
X119763871Y-140935185D01*
X119809626Y-140987989D01*
X119819570Y-141057147D01*
X119798882Y-141109938D01*
X119789334Y-141123773D01*
X119771181Y-141150071D01*
X119710860Y-141309125D01*
X119710859Y-141309130D01*
X119690355Y-141478000D01*
X119710859Y-141646869D01*
X119710860Y-141646874D01*
X119771182Y-141805931D01*
X119823802Y-141882163D01*
X119867817Y-141945929D01*
X119951660Y-142020207D01*
X119995150Y-142058736D01*
X120138327Y-142133881D01*
X120145775Y-142137790D01*
X120310944Y-142178500D01*
X120481056Y-142178500D01*
X120646225Y-142137790D01*
X120796852Y-142058734D01*
X120904801Y-141963100D01*
X120923330Y-141946685D01*
X120986563Y-141916963D01*
X121005557Y-141915500D01*
X121795900Y-141915500D01*
X121862939Y-141935185D01*
X121908694Y-141987989D01*
X121919900Y-142039499D01*
X121919900Y-142184855D01*
X121919902Y-142184882D01*
X121923889Y-142219258D01*
X121922126Y-142219462D01*
X121922126Y-142260540D01*
X121923890Y-142260745D01*
X121919900Y-142295131D01*
X121919900Y-142684856D01*
X121919902Y-142684882D01*
X121923889Y-142719258D01*
X121922126Y-142719462D01*
X121922126Y-142760540D01*
X121923890Y-142760745D01*
X121922815Y-142770008D01*
X121922815Y-142770009D01*
X121919900Y-142795135D01*
X121919900Y-142919133D01*
X121919901Y-142940499D01*
X121900217Y-143007539D01*
X121847413Y-143053294D01*
X121795901Y-143064500D01*
X121447186Y-143064500D01*
X121380147Y-143044815D01*
X121364959Y-143033316D01*
X121342570Y-143013481D01*
X121304852Y-142980066D01*
X121304850Y-142980065D01*
X121304849Y-142980064D01*
X121154226Y-142901010D01*
X120989056Y-142860300D01*
X120818944Y-142860300D01*
X120653773Y-142901010D01*
X120503150Y-142980063D01*
X120375816Y-143092872D01*
X120279182Y-143232868D01*
X120218860Y-143391925D01*
X120218859Y-143391930D01*
X120198355Y-143560800D01*
X120218859Y-143729669D01*
X120218860Y-143729674D01*
X120279182Y-143888731D01*
X120312695Y-143937282D01*
X120375817Y-144028729D01*
X120442804Y-144088074D01*
X120503150Y-144141536D01*
X120628630Y-144207393D01*
X120653775Y-144220590D01*
X120818944Y-144261300D01*
X120989056Y-144261300D01*
X121154225Y-144220590D01*
X121211274Y-144190647D01*
X121279781Y-144176922D01*
X121344835Y-144202414D01*
X121385780Y-144259029D01*
X121392900Y-144300444D01*
X121392900Y-145609394D01*
X121400362Y-145632358D01*
X121404903Y-145651273D01*
X121405420Y-145654536D01*
X121408681Y-145675127D01*
X121419643Y-145696641D01*
X121427088Y-145714615D01*
X121434550Y-145737580D01*
X121448740Y-145757110D01*
X121458908Y-145773703D01*
X121469870Y-145795218D01*
X121469872Y-145795220D01*
X121493846Y-145819194D01*
X121876272Y-146201620D01*
X121971580Y-146296928D01*
X121993100Y-146307893D01*
X122009675Y-146318049D01*
X122029219Y-146332249D01*
X122052181Y-146339709D01*
X122070154Y-146347153D01*
X122091674Y-146358119D01*
X122115524Y-146361895D01*
X122134445Y-146366439D01*
X122156289Y-146373536D01*
X122157407Y-146373900D01*
X122191312Y-146373900D01*
X124029190Y-146373900D01*
X124096229Y-146393585D01*
X124116871Y-146410219D01*
X130867872Y-153161220D01*
X130963180Y-153256528D01*
X130984696Y-153267491D01*
X131001278Y-153277653D01*
X131020819Y-153291850D01*
X131043783Y-153299311D01*
X131061762Y-153306757D01*
X131083274Y-153317719D01*
X131107121Y-153321495D01*
X131126043Y-153326039D01*
X131149001Y-153333499D01*
X131149007Y-153333500D01*
X131182912Y-153333500D01*
X134667718Y-153333500D01*
X134734757Y-153353185D01*
X134780512Y-153405989D01*
X134781217Y-153407560D01*
X134781437Y-153408060D01*
X134790419Y-153477350D01*
X134785558Y-153493871D01*
X134786064Y-153494009D01*
X134783615Y-153503009D01*
X134780700Y-153528131D01*
X134780700Y-154120390D01*
X134761015Y-154187429D01*
X134744381Y-154208071D01*
X134143671Y-154808781D01*
X134082348Y-154842266D01*
X134055990Y-154845100D01*
X133721455Y-154845100D01*
X133654416Y-154825415D01*
X133645489Y-154818221D01*
X133645441Y-154818289D01*
X133637545Y-154812553D01*
X133637542Y-154812550D01*
X133560717Y-154773405D01*
X133524501Y-154754952D01*
X133430724Y-154740100D01*
X133167682Y-154740100D01*
X133086719Y-154752923D01*
X133073896Y-154754954D01*
X132960858Y-154812550D01*
X132960857Y-154812551D01*
X132960852Y-154812554D01*
X132871154Y-154902252D01*
X132871151Y-154902257D01*
X132871150Y-154902258D01*
X132863025Y-154918205D01*
X132813552Y-155015298D01*
X132798700Y-155109075D01*
X132798700Y-155432117D01*
X132809492Y-155500257D01*
X132813554Y-155525904D01*
X132871150Y-155638942D01*
X132871152Y-155638944D01*
X132871154Y-155638947D01*
X132960852Y-155728645D01*
X132960854Y-155728646D01*
X132960858Y-155728650D01*
X133073894Y-155786245D01*
X133073898Y-155786247D01*
X133167675Y-155801099D01*
X133167681Y-155801100D01*
X133430718Y-155801099D01*
X133524504Y-155786246D01*
X133637542Y-155728650D01*
X133637549Y-155728642D01*
X133645441Y-155722911D01*
X133647072Y-155725157D01*
X133695097Y-155698934D01*
X133721455Y-155696100D01*
X134350992Y-155696100D01*
X134350993Y-155696100D01*
X134373960Y-155688636D01*
X134392876Y-155684095D01*
X134416726Y-155680319D01*
X134438236Y-155669357D01*
X134456214Y-155661910D01*
X134479181Y-155654449D01*
X134498718Y-155640253D01*
X134515306Y-155630088D01*
X134536820Y-155619128D01*
X134632128Y-155523820D01*
X134632128Y-155523819D01*
X134645891Y-155510056D01*
X149654700Y-155510056D01*
X149654702Y-155510082D01*
X149657613Y-155535187D01*
X149657615Y-155535191D01*
X149702993Y-155637964D01*
X149702994Y-155637965D01*
X149782435Y-155717406D01*
X149885209Y-155762785D01*
X149910335Y-155765700D01*
X151500064Y-155765699D01*
X151500079Y-155765697D01*
X151500082Y-155765697D01*
X151525187Y-155762786D01*
X151525188Y-155762785D01*
X151525191Y-155762785D01*
X151627965Y-155717406D01*
X151707406Y-155637965D01*
X151752785Y-155535191D01*
X151755700Y-155510065D01*
X151755700Y-155510056D01*
X153584700Y-155510056D01*
X153584702Y-155510082D01*
X153587613Y-155535187D01*
X153587615Y-155535191D01*
X153632993Y-155637964D01*
X153632994Y-155637965D01*
X153712435Y-155717406D01*
X153815209Y-155762785D01*
X153840335Y-155765700D01*
X155430064Y-155765699D01*
X155430079Y-155765697D01*
X155430082Y-155765697D01*
X155455187Y-155762786D01*
X155455188Y-155762785D01*
X155455191Y-155762785D01*
X155557965Y-155717406D01*
X155637406Y-155637965D01*
X155682785Y-155535191D01*
X155685700Y-155510065D01*
X155685699Y-153920336D01*
X155685697Y-153920317D01*
X155682786Y-153895212D01*
X155682785Y-153895210D01*
X155682785Y-153895209D01*
X155637406Y-153792435D01*
X155557965Y-153712994D01*
X155534391Y-153702585D01*
X155455192Y-153667615D01*
X155430065Y-153664700D01*
X153840343Y-153664700D01*
X153840317Y-153664702D01*
X153815212Y-153667613D01*
X153815208Y-153667615D01*
X153712435Y-153712993D01*
X153632994Y-153792434D01*
X153587615Y-153895206D01*
X153587615Y-153895208D01*
X153584700Y-153920331D01*
X153584700Y-155510056D01*
X151755700Y-155510056D01*
X151755699Y-153920336D01*
X151755697Y-153920317D01*
X151752786Y-153895212D01*
X151752785Y-153895210D01*
X151752785Y-153895209D01*
X151707406Y-153792435D01*
X151627965Y-153712994D01*
X151604391Y-153702585D01*
X151525192Y-153667615D01*
X151500065Y-153664700D01*
X149910343Y-153664700D01*
X149910317Y-153664702D01*
X149885212Y-153667613D01*
X149885208Y-153667615D01*
X149782435Y-153712993D01*
X149702994Y-153792434D01*
X149657615Y-153895206D01*
X149657615Y-153895208D01*
X149654700Y-153920331D01*
X149654700Y-155510056D01*
X134645891Y-155510056D01*
X134946130Y-155209816D01*
X135007451Y-155176333D01*
X135033809Y-155173499D01*
X135036326Y-155173499D01*
X135036335Y-155173500D01*
X135626064Y-155173499D01*
X135626079Y-155173497D01*
X135626082Y-155173497D01*
X135651187Y-155170586D01*
X135651188Y-155170585D01*
X135651191Y-155170585D01*
X135753965Y-155125206D01*
X135833406Y-155045765D01*
X135878785Y-154942991D01*
X135881700Y-154917865D01*
X135881699Y-154025600D01*
X138740355Y-154025600D01*
X138760859Y-154194469D01*
X138760860Y-154194474D01*
X138821182Y-154353531D01*
X138875346Y-154432000D01*
X138917817Y-154493529D01*
X139009382Y-154574648D01*
X139045150Y-154606336D01*
X139195773Y-154685389D01*
X139195775Y-154685390D01*
X139360944Y-154726100D01*
X139531056Y-154726100D01*
X139696225Y-154685390D01*
X139785547Y-154638509D01*
X139846845Y-154606338D01*
X139846847Y-154606336D01*
X139846852Y-154606334D01*
X139872192Y-154583885D01*
X139935424Y-154554163D01*
X139954419Y-154552700D01*
X140206684Y-154552700D01*
X140262976Y-154566214D01*
X140346098Y-154608567D01*
X140354498Y-154612847D01*
X140448275Y-154627699D01*
X140448281Y-154627700D01*
X140771318Y-154627699D01*
X140865104Y-154612846D01*
X140873503Y-154608566D01*
X140942168Y-154595667D01*
X140986094Y-154608565D01*
X140994496Y-154612846D01*
X140994498Y-154612846D01*
X140994500Y-154612847D01*
X141088275Y-154627699D01*
X141088281Y-154627700D01*
X141411318Y-154627699D01*
X141505104Y-154612846D01*
X141618142Y-154555250D01*
X141618147Y-154555245D01*
X141619974Y-154553419D01*
X141622742Y-154551907D01*
X141626041Y-154549511D01*
X141626350Y-154549937D01*
X141681297Y-154519934D01*
X141707655Y-154517100D01*
X141894345Y-154517100D01*
X141961384Y-154536785D01*
X141982026Y-154553419D01*
X142003252Y-154574645D01*
X142003254Y-154574646D01*
X142003258Y-154574650D01*
X142107372Y-154627699D01*
X142116298Y-154632247D01*
X142210075Y-154647099D01*
X142210081Y-154647100D01*
X142473118Y-154647099D01*
X142566904Y-154632246D01*
X142679942Y-154574650D01*
X142688377Y-154566215D01*
X142701174Y-154553419D01*
X142762497Y-154519934D01*
X142788855Y-154517100D01*
X142881101Y-154517100D01*
X142948140Y-154536785D01*
X142993895Y-154589589D01*
X143005101Y-154641100D01*
X143005101Y-154710856D01*
X143005102Y-154710882D01*
X143008013Y-154735987D01*
X143008015Y-154735991D01*
X143053393Y-154838764D01*
X143053394Y-154838765D01*
X143132835Y-154918206D01*
X143235609Y-154963585D01*
X143260735Y-154966500D01*
X144550464Y-154966499D01*
X144550479Y-154966497D01*
X144550482Y-154966497D01*
X144575587Y-154963586D01*
X144575588Y-154963585D01*
X144575591Y-154963585D01*
X144678365Y-154918206D01*
X144757806Y-154838765D01*
X144803185Y-154735991D01*
X144806100Y-154710865D01*
X144806099Y-154021136D01*
X144806097Y-154021117D01*
X144803186Y-153996012D01*
X144803185Y-153996010D01*
X144803185Y-153996009D01*
X144757806Y-153893235D01*
X144678365Y-153813794D01*
X144674755Y-153812200D01*
X144575592Y-153768415D01*
X144550468Y-153765500D01*
X144550465Y-153765500D01*
X143890070Y-153765500D01*
X143850333Y-153755962D01*
X143849568Y-153758319D01*
X143840290Y-153755304D01*
X143831650Y-153752497D01*
X143819218Y-153748457D01*
X143801245Y-153741012D01*
X143781507Y-153730955D01*
X143781504Y-153730954D01*
X143759618Y-153727487D01*
X143740707Y-153722946D01*
X143719639Y-153716101D01*
X143719634Y-153716100D01*
X143719633Y-153716100D01*
X143719629Y-153716100D01*
X142788855Y-153716100D01*
X142721816Y-153696415D01*
X142701174Y-153679781D01*
X142679947Y-153658554D01*
X142679944Y-153658552D01*
X142679942Y-153658550D01*
X142580299Y-153607779D01*
X142566901Y-153600952D01*
X142473124Y-153586100D01*
X142210082Y-153586100D01*
X142129119Y-153598923D01*
X142116296Y-153600954D01*
X142003258Y-153658550D01*
X142003257Y-153658551D01*
X142003252Y-153658554D01*
X141982026Y-153679781D01*
X141920703Y-153713266D01*
X141894345Y-153716100D01*
X141681177Y-153716100D01*
X141624882Y-153702585D01*
X141618143Y-153699151D01*
X141618142Y-153699150D01*
X141505104Y-153641554D01*
X141505103Y-153641553D01*
X141505100Y-153641552D01*
X141505101Y-153641552D01*
X141411324Y-153626700D01*
X141088282Y-153626700D01*
X140994493Y-153641554D01*
X140994488Y-153641556D01*
X140986089Y-153645836D01*
X140917420Y-153658730D01*
X140873509Y-153645836D01*
X140865102Y-153641553D01*
X140771324Y-153626700D01*
X140448282Y-153626700D01*
X140367319Y-153639523D01*
X140354496Y-153641554D01*
X140262976Y-153688185D01*
X140206684Y-153701700D01*
X140138679Y-153701700D01*
X140071640Y-153682015D01*
X140036631Y-153648141D01*
X139974183Y-153557671D01*
X139902322Y-153494008D01*
X139846849Y-153444863D01*
X139696226Y-153365810D01*
X139531056Y-153325100D01*
X139360944Y-153325100D01*
X139195773Y-153365810D01*
X139045150Y-153444863D01*
X138917816Y-153557672D01*
X138821182Y-153697668D01*
X138760860Y-153856725D01*
X138760859Y-153856730D01*
X138740355Y-154025600D01*
X135881699Y-154025600D01*
X135881699Y-153528136D01*
X135881349Y-153525116D01*
X135878786Y-153503014D01*
X135876336Y-153494008D01*
X135879085Y-153493259D01*
X135871955Y-153438808D01*
X135876853Y-153422128D01*
X135876337Y-153421988D01*
X135878784Y-153412993D01*
X135878783Y-153412993D01*
X135878785Y-153412991D01*
X135881700Y-153387865D01*
X135881699Y-152428136D01*
X135879432Y-152408586D01*
X135878786Y-152403012D01*
X135878785Y-152403010D01*
X135878785Y-152403009D01*
X135833406Y-152300235D01*
X135753965Y-152220794D01*
X135725311Y-152208142D01*
X135651192Y-152175415D01*
X135626065Y-152172500D01*
X135036343Y-152172500D01*
X135036317Y-152172502D01*
X135011212Y-152175413D01*
X135011208Y-152175415D01*
X134908435Y-152220793D01*
X134828994Y-152300234D01*
X134828993Y-152300236D01*
X134781152Y-152408586D01*
X134736066Y-152461963D01*
X134669280Y-152482490D01*
X134667718Y-152482500D01*
X131444010Y-152482500D01*
X131376971Y-152462815D01*
X131356329Y-152446181D01*
X130548148Y-151638000D01*
X137267155Y-151638000D01*
X137287659Y-151806869D01*
X137287660Y-151806874D01*
X137347982Y-151965931D01*
X137410275Y-152056177D01*
X137444617Y-152105929D01*
X137519762Y-152172501D01*
X137571950Y-152218736D01*
X137702264Y-152287130D01*
X137722575Y-152297790D01*
X137887744Y-152338500D01*
X138057856Y-152338500D01*
X138223025Y-152297790D01*
X138304363Y-152255100D01*
X138373649Y-152218736D01*
X138373650Y-152218734D01*
X138373652Y-152218734D01*
X138500983Y-152105929D01*
X138500985Y-152105925D01*
X138501567Y-152105270D01*
X138502112Y-152104927D01*
X138506597Y-152100955D01*
X138507257Y-152101700D01*
X138560758Y-152068145D01*
X138594380Y-152063500D01*
X139243390Y-152063500D01*
X139310429Y-152083185D01*
X139331071Y-152099819D01*
X140021781Y-152790528D01*
X140055266Y-152851851D01*
X140058100Y-152878200D01*
X140058100Y-152887115D01*
X140062587Y-152915447D01*
X140072954Y-152980904D01*
X140130550Y-153093942D01*
X140130552Y-153093944D01*
X140130554Y-153093947D01*
X140220252Y-153183645D01*
X140220254Y-153183646D01*
X140220258Y-153183650D01*
X140317986Y-153233445D01*
X140333298Y-153241247D01*
X140427075Y-153256099D01*
X140427081Y-153256100D01*
X140750118Y-153256099D01*
X140843904Y-153241246D01*
X140852303Y-153236966D01*
X140920968Y-153224067D01*
X140964894Y-153236965D01*
X140973296Y-153241246D01*
X140973298Y-153241246D01*
X140973300Y-153241247D01*
X141067075Y-153256099D01*
X141067081Y-153256100D01*
X141390118Y-153256099D01*
X141483904Y-153241246D01*
X141596942Y-153183650D01*
X141596947Y-153183645D01*
X141602271Y-153179779D01*
X141668078Y-153156302D01*
X141675152Y-153156100D01*
X141812946Y-153156100D01*
X141879985Y-153175785D01*
X141900628Y-153192420D01*
X141941653Y-153233446D01*
X141941655Y-153233447D01*
X141941658Y-153233450D01*
X142054694Y-153291045D01*
X142054698Y-153291047D01*
X142148475Y-153305899D01*
X142148481Y-153305900D01*
X142411518Y-153305899D01*
X142505304Y-153291046D01*
X142618342Y-153233450D01*
X142627725Y-153224067D01*
X142639574Y-153212219D01*
X142700897Y-153178734D01*
X142727255Y-153175900D01*
X142944031Y-153175900D01*
X142944033Y-153175900D01*
X142965101Y-153169054D01*
X142984017Y-153164512D01*
X143005904Y-153161046D01*
X143025644Y-153150986D01*
X143043611Y-153143544D01*
X143064690Y-153136696D01*
X143082626Y-153123663D01*
X143099188Y-153113514D01*
X143118942Y-153103450D01*
X143124381Y-153098010D01*
X143185700Y-153064521D01*
X143226361Y-153062512D01*
X143235608Y-153063584D01*
X143235609Y-153063585D01*
X143260735Y-153066500D01*
X144550464Y-153066499D01*
X144550479Y-153066497D01*
X144550482Y-153066497D01*
X144575587Y-153063586D01*
X144575588Y-153063585D01*
X144575591Y-153063585D01*
X144678365Y-153018206D01*
X144757806Y-152938765D01*
X144803185Y-152835991D01*
X144806100Y-152810865D01*
X144806099Y-152121136D01*
X144806097Y-152121117D01*
X144803186Y-152096012D01*
X144803185Y-152096010D01*
X144803185Y-152096009D01*
X144757806Y-151993235D01*
X144678365Y-151913794D01*
X144669093Y-151909700D01*
X144575592Y-151868415D01*
X144550465Y-151865500D01*
X143260743Y-151865500D01*
X143260717Y-151865502D01*
X143235612Y-151868413D01*
X143235608Y-151868415D01*
X143132835Y-151913793D01*
X143053395Y-151993233D01*
X143018302Y-152072709D01*
X142973215Y-152126085D01*
X142961171Y-152133102D01*
X142951659Y-152137949D01*
X142929094Y-152160513D01*
X142782375Y-152307232D01*
X142721052Y-152340716D01*
X142651360Y-152335732D01*
X142621814Y-152319872D01*
X142618346Y-152317352D01*
X142505301Y-152259752D01*
X142411524Y-152244900D01*
X142148482Y-152244900D01*
X142067519Y-152257723D01*
X142054696Y-152259754D01*
X141941658Y-152317350D01*
X141941657Y-152317351D01*
X141941652Y-152317354D01*
X141940226Y-152318781D01*
X141938063Y-152319961D01*
X141933759Y-152323089D01*
X141933354Y-152322532D01*
X141878903Y-152352266D01*
X141852545Y-152355100D01*
X141675152Y-152355100D01*
X141608113Y-152335415D01*
X141602271Y-152331421D01*
X141596946Y-152327553D01*
X141596943Y-152327551D01*
X141596942Y-152327550D01*
X141517614Y-152287130D01*
X141483901Y-152269952D01*
X141390124Y-152255100D01*
X141067082Y-152255100D01*
X140973293Y-152269954D01*
X140973288Y-152269956D01*
X140964889Y-152274236D01*
X140896220Y-152287130D01*
X140852309Y-152274236D01*
X140843902Y-152269953D01*
X140750124Y-152255100D01*
X140750119Y-152255100D01*
X140741209Y-152255100D01*
X140674170Y-152235415D01*
X140653528Y-152218781D01*
X140208677Y-151773930D01*
X139748194Y-151313446D01*
X139724220Y-151289472D01*
X139724218Y-151289470D01*
X139702703Y-151278508D01*
X139686110Y-151268340D01*
X139666580Y-151254150D01*
X139643615Y-151246688D01*
X139625641Y-151239243D01*
X139604127Y-151228281D01*
X139599010Y-151227470D01*
X139580273Y-151224503D01*
X139561358Y-151219962D01*
X139538394Y-151212500D01*
X139538393Y-151212500D01*
X139504488Y-151212500D01*
X138594380Y-151212500D01*
X138527341Y-151192815D01*
X138506599Y-151175042D01*
X138506597Y-151175045D01*
X138506427Y-151174894D01*
X138501567Y-151170730D01*
X138500985Y-151170073D01*
X138478714Y-151150343D01*
X138400412Y-151080973D01*
X138373649Y-151057263D01*
X138223026Y-150978210D01*
X138057856Y-150937500D01*
X137887744Y-150937500D01*
X137722573Y-150978210D01*
X137571950Y-151057263D01*
X137444616Y-151170072D01*
X137347982Y-151310068D01*
X137287660Y-151469125D01*
X137287659Y-151469130D01*
X137267155Y-151638000D01*
X130548148Y-151638000D01*
X125784828Y-146874680D01*
X125751343Y-146813357D01*
X125756327Y-146743665D01*
X125798199Y-146687732D01*
X125863663Y-146663315D01*
X125872509Y-146662999D01*
X125953357Y-146662999D01*
X126118526Y-146622289D01*
X126246804Y-146554963D01*
X126269146Y-146543237D01*
X126269147Y-146543235D01*
X126269153Y-146543233D01*
X126299281Y-146516541D01*
X126362510Y-146486821D01*
X126431774Y-146496003D01*
X126463731Y-146516539D01*
X126465553Y-146518153D01*
X126477950Y-146529136D01*
X126628573Y-146608189D01*
X126628575Y-146608190D01*
X126793744Y-146648900D01*
X126963856Y-146648900D01*
X127129025Y-146608190D01*
X127228786Y-146555831D01*
X127297294Y-146542105D01*
X127362347Y-146567597D01*
X127374093Y-146577946D01*
X128817767Y-148021620D01*
X128913075Y-148116928D01*
X128934591Y-148127891D01*
X128951173Y-148138053D01*
X128970714Y-148152250D01*
X128993678Y-148159711D01*
X129011657Y-148167157D01*
X129033169Y-148178119D01*
X129057016Y-148181895D01*
X129075938Y-148186439D01*
X129098896Y-148193899D01*
X129098902Y-148193900D01*
X129132807Y-148193900D01*
X129168545Y-148193900D01*
X129235584Y-148213585D01*
X129244510Y-148220778D01*
X129244559Y-148220711D01*
X129252453Y-148226445D01*
X129252458Y-148226450D01*
X129364271Y-148283422D01*
X129365498Y-148284047D01*
X129452916Y-148297891D01*
X129456976Y-148298535D01*
X129459275Y-148298899D01*
X129459281Y-148298900D01*
X129722318Y-148298899D01*
X129816104Y-148284046D01*
X129929142Y-148226450D01*
X129929149Y-148226442D01*
X129937041Y-148220711D01*
X129938672Y-148222957D01*
X129986697Y-148196734D01*
X130013055Y-148193900D01*
X130327041Y-148193900D01*
X130383334Y-148207414D01*
X130432214Y-148232320D01*
X130483098Y-148258247D01*
X130576875Y-148273099D01*
X130576881Y-148273100D01*
X130839918Y-148273099D01*
X130933704Y-148258246D01*
X131046742Y-148200650D01*
X131046749Y-148200642D01*
X131054641Y-148194911D01*
X131056272Y-148197157D01*
X131104297Y-148170934D01*
X131130655Y-148168100D01*
X131613907Y-148168100D01*
X131680946Y-148187785D01*
X131702955Y-148209153D01*
X131704069Y-148208040D01*
X131712194Y-148216165D01*
X131791635Y-148295606D01*
X131894409Y-148340985D01*
X131919535Y-148343900D01*
X132509264Y-148343899D01*
X132509279Y-148343897D01*
X132509282Y-148343897D01*
X132534387Y-148340986D01*
X132534388Y-148340985D01*
X132534391Y-148340985D01*
X132637165Y-148295606D01*
X132716606Y-148216165D01*
X132761985Y-148113391D01*
X132764900Y-148088265D01*
X132764899Y-147648536D01*
X132762194Y-147625209D01*
X132761986Y-147623412D01*
X132761985Y-147623410D01*
X132761985Y-147623409D01*
X132716606Y-147520635D01*
X132637165Y-147441194D01*
X132618324Y-147432875D01*
X132534392Y-147395815D01*
X132509268Y-147392900D01*
X132509265Y-147392900D01*
X132371472Y-147392900D01*
X132304433Y-147373215D01*
X132298609Y-147369233D01*
X132284181Y-147358751D01*
X132284180Y-147358750D01*
X132284178Y-147358749D01*
X132261215Y-147351288D01*
X132243241Y-147343843D01*
X132221727Y-147332881D01*
X132214231Y-147331694D01*
X132197873Y-147329103D01*
X132178958Y-147324562D01*
X132155994Y-147317100D01*
X132155993Y-147317100D01*
X132122088Y-147317100D01*
X131307610Y-147317100D01*
X131240571Y-147297415D01*
X131194816Y-147244611D01*
X131184872Y-147175453D01*
X131213897Y-147111897D01*
X131219929Y-147105419D01*
X131295129Y-147030219D01*
X131356452Y-146996734D01*
X131382810Y-146993900D01*
X131761615Y-146993900D01*
X131811700Y-147004465D01*
X131894409Y-147040985D01*
X131919535Y-147043900D01*
X132509264Y-147043899D01*
X132509279Y-147043897D01*
X132509282Y-147043897D01*
X132534387Y-147040986D01*
X132534388Y-147040985D01*
X132534391Y-147040985D01*
X132637165Y-146995606D01*
X132716606Y-146916165D01*
X132761985Y-146813391D01*
X132764900Y-146788265D01*
X132764899Y-146424608D01*
X132784583Y-146357570D01*
X132801213Y-146336933D01*
X133540729Y-145597419D01*
X133602052Y-145563934D01*
X133628410Y-145561100D01*
X135306790Y-145561100D01*
X135373829Y-145580785D01*
X135394471Y-145597419D01*
X135529781Y-145732729D01*
X135563266Y-145794052D01*
X135566100Y-145820410D01*
X135566100Y-146351377D01*
X135546415Y-146418416D01*
X135529786Y-146439053D01*
X135525191Y-146443648D01*
X135520594Y-146448246D01*
X135366307Y-146602533D01*
X135212259Y-146756581D01*
X135150936Y-146790066D01*
X135124578Y-146792900D01*
X134717185Y-146792900D01*
X134667099Y-146782334D01*
X134626977Y-146764618D01*
X134584392Y-146745815D01*
X134559265Y-146742900D01*
X133969543Y-146742900D01*
X133969517Y-146742902D01*
X133944412Y-146745813D01*
X133944408Y-146745815D01*
X133841635Y-146791193D01*
X133762194Y-146870634D01*
X133716815Y-146973406D01*
X133716815Y-146973408D01*
X133713900Y-146998531D01*
X133713900Y-147438256D01*
X133713902Y-147438282D01*
X133716813Y-147463385D01*
X133716813Y-147463386D01*
X133730028Y-147493315D01*
X133739097Y-147562594D01*
X133730028Y-147593483D01*
X133716815Y-147623408D01*
X133713900Y-147648531D01*
X133713900Y-148088256D01*
X133713902Y-148088282D01*
X133716813Y-148113385D01*
X133716813Y-148113386D01*
X133716814Y-148113390D01*
X133716815Y-148113391D01*
X133727704Y-148138053D01*
X133730028Y-148143315D01*
X133739097Y-148212594D01*
X133730028Y-148243483D01*
X133716815Y-148273408D01*
X133713900Y-148298531D01*
X133713900Y-148738256D01*
X133713902Y-148738282D01*
X133716813Y-148763387D01*
X133716815Y-148763391D01*
X133762193Y-148866164D01*
X133762194Y-148866165D01*
X133841635Y-148945606D01*
X133944409Y-148990985D01*
X133969535Y-148993900D01*
X134559264Y-148993899D01*
X134559279Y-148993897D01*
X134559282Y-148993897D01*
X134584387Y-148990986D01*
X134584391Y-148990985D01*
X134667099Y-148954466D01*
X134717185Y-148943900D01*
X134727190Y-148943900D01*
X134794229Y-148963585D01*
X134814871Y-148980219D01*
X135203711Y-149369059D01*
X135237196Y-149430382D01*
X135239126Y-149471683D01*
X135235155Y-149504395D01*
X135235155Y-149504399D01*
X135255659Y-149673269D01*
X135255660Y-149673274D01*
X135315982Y-149832331D01*
X135378275Y-149922577D01*
X135412617Y-149972329D01*
X135482284Y-150034048D01*
X135539950Y-150085136D01*
X135690573Y-150164189D01*
X135690575Y-150164190D01*
X135855744Y-150204900D01*
X136025856Y-150204900D01*
X136191025Y-150164190D01*
X136329245Y-150091646D01*
X136341649Y-150085136D01*
X136341650Y-150085134D01*
X136341652Y-150085134D01*
X136468983Y-149972329D01*
X136478556Y-149958459D01*
X136532839Y-149914470D01*
X136580606Y-149904900D01*
X137194945Y-149904900D01*
X137261984Y-149924585D01*
X137270910Y-149931778D01*
X137270959Y-149931711D01*
X137278853Y-149937445D01*
X137278858Y-149937450D01*
X137391894Y-149995045D01*
X137391898Y-149995047D01*
X137485675Y-150009899D01*
X137485681Y-150009900D01*
X137748718Y-150009899D01*
X137842504Y-149995046D01*
X137955542Y-149937450D01*
X138045250Y-149847742D01*
X138101413Y-149737517D01*
X144366300Y-149737517D01*
X144375044Y-149792725D01*
X144381154Y-149831304D01*
X144438750Y-149944342D01*
X144438752Y-149944344D01*
X144438754Y-149944347D01*
X144528452Y-150034045D01*
X144528454Y-150034046D01*
X144528458Y-150034050D01*
X144593632Y-150067257D01*
X144644427Y-150115232D01*
X144661222Y-150183053D01*
X144638684Y-150249188D01*
X144593632Y-150288226D01*
X144579259Y-150295549D01*
X144579252Y-150295554D01*
X144489554Y-150385252D01*
X144489551Y-150385257D01*
X144431952Y-150498298D01*
X144417100Y-150592075D01*
X144417100Y-150855117D01*
X144427803Y-150922692D01*
X144431954Y-150948904D01*
X144489550Y-151061942D01*
X144489552Y-151061944D01*
X144489554Y-151061947D01*
X144579252Y-151151645D01*
X144579254Y-151151646D01*
X144579258Y-151151650D01*
X144692051Y-151209121D01*
X144692298Y-151209247D01*
X144786075Y-151224099D01*
X144786081Y-151224100D01*
X145109118Y-151224099D01*
X145202904Y-151209246D01*
X145294423Y-151162614D01*
X145350716Y-151149100D01*
X146245883Y-151149100D01*
X146312922Y-151168785D01*
X146358677Y-151221589D01*
X146368621Y-151290747D01*
X146361826Y-151317066D01*
X146351462Y-151344392D01*
X146330060Y-151400825D01*
X146330059Y-151400830D01*
X146309555Y-151569700D01*
X146328600Y-151726554D01*
X146317139Y-151795477D01*
X146270235Y-151847263D01*
X146205504Y-151865500D01*
X145760743Y-151865500D01*
X145760717Y-151865502D01*
X145735612Y-151868413D01*
X145735608Y-151868415D01*
X145632835Y-151913793D01*
X145553394Y-151993234D01*
X145508015Y-152096006D01*
X145508015Y-152096008D01*
X145505100Y-152121131D01*
X145505100Y-152810856D01*
X145505102Y-152810882D01*
X145508013Y-152835986D01*
X145508014Y-152835990D01*
X145508015Y-152835991D01*
X145532266Y-152890915D01*
X145541337Y-152960191D01*
X145532266Y-152991084D01*
X145508015Y-153046006D01*
X145508015Y-153046008D01*
X145505100Y-153071131D01*
X145505100Y-153760856D01*
X145505102Y-153760882D01*
X145508013Y-153785986D01*
X145508014Y-153785990D01*
X145508015Y-153785991D01*
X145532266Y-153840915D01*
X145541337Y-153910191D01*
X145532266Y-153941084D01*
X145508015Y-153996006D01*
X145508015Y-153996008D01*
X145505100Y-154021131D01*
X145505100Y-154710856D01*
X145505102Y-154710882D01*
X145508013Y-154735987D01*
X145508015Y-154735991D01*
X145553393Y-154838764D01*
X145553394Y-154838765D01*
X145632835Y-154918206D01*
X145735609Y-154963585D01*
X145760735Y-154966500D01*
X147050464Y-154966499D01*
X147050479Y-154966497D01*
X147050482Y-154966497D01*
X147075587Y-154963586D01*
X147075588Y-154963585D01*
X147075591Y-154963585D01*
X147178365Y-154918206D01*
X147212583Y-154883988D01*
X147273906Y-154850503D01*
X147343598Y-154855487D01*
X147395994Y-154894711D01*
X147396443Y-154894315D01*
X147398369Y-154896489D01*
X147399531Y-154897359D01*
X147401218Y-154899705D01*
X147401413Y-154899925D01*
X147401416Y-154899927D01*
X147401417Y-154899929D01*
X147473269Y-154963584D01*
X147528750Y-155012736D01*
X147679373Y-155091789D01*
X147679375Y-155091790D01*
X147844544Y-155132500D01*
X148014656Y-155132500D01*
X148179825Y-155091790D01*
X148267517Y-155045765D01*
X148330449Y-155012736D01*
X148330450Y-155012734D01*
X148330452Y-155012734D01*
X148457783Y-154899929D01*
X148554418Y-154759930D01*
X148614740Y-154600872D01*
X148635245Y-154432000D01*
X148614740Y-154263128D01*
X148554418Y-154104070D01*
X148457783Y-153964071D01*
X148336620Y-153856730D01*
X148330449Y-153851263D01*
X148179826Y-153772210D01*
X148014656Y-153731500D01*
X147905610Y-153731500D01*
X147838571Y-153711815D01*
X147792816Y-153659011D01*
X147782872Y-153589853D01*
X147811897Y-153526297D01*
X147817929Y-153519819D01*
X148658128Y-152679619D01*
X148719451Y-152646134D01*
X148745809Y-152643300D01*
X148878256Y-152643300D01*
X149043425Y-152602590D01*
X149184040Y-152528789D01*
X149194045Y-152523538D01*
X149194046Y-152523536D01*
X149194052Y-152523534D01*
X149194056Y-152523530D01*
X149200220Y-152519276D01*
X149200960Y-152520348D01*
X149257127Y-152493938D01*
X149326391Y-152503111D01*
X149363820Y-152528791D01*
X149382435Y-152547406D01*
X149485209Y-152592785D01*
X149510335Y-152595700D01*
X150545199Y-152595699D01*
X150612238Y-152615383D01*
X150657993Y-152668187D01*
X150659760Y-152672246D01*
X150690183Y-152745694D01*
X150702502Y-152775433D01*
X150794749Y-152895651D01*
X150914967Y-152987898D01*
X151054964Y-153045887D01*
X151167480Y-153060700D01*
X151167487Y-153060700D01*
X151242913Y-153060700D01*
X151242920Y-153060700D01*
X151355436Y-153045887D01*
X151495433Y-152987898D01*
X151615651Y-152895651D01*
X151707898Y-152775433D01*
X151765887Y-152635436D01*
X151785666Y-152485200D01*
X151765887Y-152334964D01*
X151707898Y-152194967D01*
X151615651Y-152074749D01*
X151495433Y-151982502D01*
X151495429Y-151982500D01*
X151404700Y-151944919D01*
X151355436Y-151924513D01*
X151341371Y-151922661D01*
X151242927Y-151909700D01*
X151242920Y-151909700D01*
X151167480Y-151909700D01*
X151167472Y-151909700D01*
X151145885Y-151912543D01*
X151076849Y-151901778D01*
X151024593Y-151855398D01*
X151005699Y-151789604D01*
X151005699Y-151650343D01*
X151005699Y-151650336D01*
X151005697Y-151650317D01*
X151001711Y-151615942D01*
X151003480Y-151615736D01*
X151003482Y-151574660D01*
X151001710Y-151574455D01*
X151002785Y-151565191D01*
X151005700Y-151540065D01*
X151005699Y-151150336D01*
X151003459Y-151131020D01*
X151001711Y-151115942D01*
X151003480Y-151115736D01*
X151003482Y-151074660D01*
X151001710Y-151074455D01*
X151003704Y-151057266D01*
X151005700Y-151040065D01*
X151005699Y-150869699D01*
X151025383Y-150802661D01*
X151078187Y-150756906D01*
X151129699Y-150745700D01*
X151419431Y-150745700D01*
X151419433Y-150745700D01*
X151440501Y-150738854D01*
X151459417Y-150734312D01*
X151481304Y-150730846D01*
X151501044Y-150720786D01*
X151519011Y-150713344D01*
X151540090Y-150706496D01*
X151558026Y-150693463D01*
X151574588Y-150683314D01*
X151589907Y-150675509D01*
X151647043Y-150664781D01*
X151647043Y-150662100D01*
X151824656Y-150662100D01*
X151989825Y-150621390D01*
X152116634Y-150554835D01*
X152140449Y-150542336D01*
X152140450Y-150542334D01*
X152140452Y-150542334D01*
X152267783Y-150429529D01*
X152364418Y-150289530D01*
X152424740Y-150130472D01*
X152445245Y-149961600D01*
X152424740Y-149792728D01*
X152364418Y-149633670D01*
X152267783Y-149493671D01*
X152140452Y-149380866D01*
X152140449Y-149380863D01*
X151989826Y-149301810D01*
X151824656Y-149261100D01*
X151656854Y-149261100D01*
X151589815Y-149241415D01*
X151569178Y-149224785D01*
X151384109Y-149039716D01*
X151384108Y-149039715D01*
X151382471Y-149038078D01*
X151382456Y-149038064D01*
X151361542Y-149017150D01*
X151361541Y-149017149D01*
X151341800Y-149007090D01*
X151325214Y-148996926D01*
X151307290Y-148983904D01*
X151307291Y-148983904D01*
X151286218Y-148977057D01*
X151268245Y-148969612D01*
X151248507Y-148959555D01*
X151248504Y-148959554D01*
X151226618Y-148956087D01*
X151207707Y-148951546D01*
X151186639Y-148944701D01*
X151186634Y-148944700D01*
X151186633Y-148944700D01*
X151186629Y-148944700D01*
X151129700Y-148944700D01*
X151062661Y-148925015D01*
X151016906Y-148872211D01*
X151005700Y-148820701D01*
X151005699Y-148650344D01*
X151005699Y-148650336D01*
X151003200Y-148628785D01*
X151001711Y-148615942D01*
X151003480Y-148615736D01*
X151003482Y-148574660D01*
X151001710Y-148574455D01*
X151003122Y-148562283D01*
X151005700Y-148540065D01*
X151005699Y-148150336D01*
X151003610Y-148132319D01*
X151001711Y-148115942D01*
X151003480Y-148115736D01*
X151003482Y-148074660D01*
X151001710Y-148074455D01*
X151003428Y-148059645D01*
X151005700Y-148040065D01*
X151005699Y-147650336D01*
X151005420Y-147647930D01*
X151001711Y-147615942D01*
X151003480Y-147615736D01*
X151003482Y-147574660D01*
X151001710Y-147574455D01*
X151004446Y-147550870D01*
X151005700Y-147540065D01*
X151005699Y-147400795D01*
X151025383Y-147333757D01*
X151078187Y-147288002D01*
X151145885Y-147277857D01*
X151167480Y-147280700D01*
X151167487Y-147280700D01*
X151242913Y-147280700D01*
X151242920Y-147280700D01*
X151355436Y-147265887D01*
X151495433Y-147207898D01*
X151615651Y-147115651D01*
X151707898Y-146995433D01*
X151765887Y-146855436D01*
X151785666Y-146705200D01*
X151765887Y-146554964D01*
X151707898Y-146414967D01*
X151615651Y-146294749D01*
X151495433Y-146202502D01*
X151495429Y-146202500D01*
X151389640Y-146158681D01*
X151355436Y-146144513D01*
X151330226Y-146141194D01*
X151242927Y-146129700D01*
X151242920Y-146129700D01*
X151167480Y-146129700D01*
X151167472Y-146129700D01*
X151054964Y-146144513D01*
X151054963Y-146144513D01*
X150914970Y-146202500D01*
X150914967Y-146202501D01*
X150914967Y-146202502D01*
X150794749Y-146294749D01*
X150706146Y-146410219D01*
X150702500Y-146414970D01*
X150659760Y-146518153D01*
X150615919Y-146572557D01*
X150549624Y-146594621D01*
X150545199Y-146594700D01*
X149510343Y-146594700D01*
X149510317Y-146594702D01*
X149485212Y-146597613D01*
X149485208Y-146597615D01*
X149382435Y-146642993D01*
X149302994Y-146722434D01*
X149294583Y-146741483D01*
X149249495Y-146794858D01*
X149182708Y-146815383D01*
X149115427Y-146796543D01*
X149098923Y-146784208D01*
X148990852Y-146688466D01*
X148990850Y-146688464D01*
X148840226Y-146609410D01*
X148675056Y-146568700D01*
X148504944Y-146568700D01*
X148339773Y-146609410D01*
X148189150Y-146688463D01*
X148061816Y-146801272D01*
X147965182Y-146941268D01*
X147904860Y-147100325D01*
X147904859Y-147100330D01*
X147884355Y-147269200D01*
X147904859Y-147438069D01*
X147904859Y-147438071D01*
X147904860Y-147438072D01*
X147953069Y-147565191D01*
X147962527Y-147590129D01*
X147967894Y-147659793D01*
X147934746Y-147721299D01*
X147873608Y-147755120D01*
X147846585Y-147758100D01*
X147049404Y-147758100D01*
X147026439Y-147765562D01*
X147007522Y-147770103D01*
X146983673Y-147773880D01*
X146962158Y-147784843D01*
X146944186Y-147792288D01*
X146921218Y-147799751D01*
X146921216Y-147799752D01*
X146901684Y-147813943D01*
X146885099Y-147824106D01*
X146863582Y-147835069D01*
X146863580Y-147835071D01*
X145554471Y-149144181D01*
X145493148Y-149177666D01*
X145466790Y-149180500D01*
X145299916Y-149180500D01*
X145243623Y-149166985D01*
X145194459Y-149141935D01*
X145152101Y-149120352D01*
X145058324Y-149105500D01*
X144735282Y-149105500D01*
X144654319Y-149118323D01*
X144641496Y-149120354D01*
X144528458Y-149177950D01*
X144528457Y-149177951D01*
X144528452Y-149177954D01*
X144438754Y-149267652D01*
X144438751Y-149267657D01*
X144381152Y-149380698D01*
X144366300Y-149474475D01*
X144366300Y-149737517D01*
X138101413Y-149737517D01*
X138102846Y-149734704D01*
X138102846Y-149734702D01*
X138102847Y-149734701D01*
X138117699Y-149640924D01*
X138117700Y-149640919D01*
X138117699Y-149317882D01*
X138102846Y-149224096D01*
X138098566Y-149215696D01*
X138085667Y-149147032D01*
X138098565Y-149103105D01*
X138102846Y-149094704D01*
X138112427Y-149034215D01*
X138117699Y-149000925D01*
X138117700Y-149000919D01*
X138117699Y-148992015D01*
X138137379Y-148924977D01*
X138154013Y-148904333D01*
X138463349Y-148594997D01*
X138524670Y-148561514D01*
X138580703Y-148562283D01*
X138649743Y-148579300D01*
X138649744Y-148579300D01*
X138819856Y-148579300D01*
X138985025Y-148538590D01*
X139068650Y-148494700D01*
X139135649Y-148459536D01*
X139135650Y-148459534D01*
X139135652Y-148459534D01*
X139262983Y-148346729D01*
X139359618Y-148206730D01*
X139419940Y-148047672D01*
X139440445Y-147878800D01*
X139419940Y-147709928D01*
X139359618Y-147550870D01*
X139262983Y-147410871D01*
X139165560Y-147324562D01*
X139135649Y-147298063D01*
X138985026Y-147219010D01*
X138819856Y-147178300D01*
X138687409Y-147178300D01*
X138620370Y-147158615D01*
X138599728Y-147141981D01*
X138271140Y-146813393D01*
X137905994Y-146448246D01*
X137882020Y-146424272D01*
X137882018Y-146424270D01*
X137860503Y-146413308D01*
X137843910Y-146403140D01*
X137824380Y-146388950D01*
X137801415Y-146381488D01*
X137783441Y-146374043D01*
X137761927Y-146363081D01*
X137756810Y-146362270D01*
X137738073Y-146359303D01*
X137719158Y-146354762D01*
X137696194Y-146347300D01*
X137696193Y-146347300D01*
X137662288Y-146347300D01*
X136541100Y-146347300D01*
X136474061Y-146327615D01*
X136428306Y-146274811D01*
X136417100Y-146223300D01*
X136417100Y-145525408D01*
X136417099Y-145525404D01*
X136409639Y-145502445D01*
X136405095Y-145483521D01*
X136401319Y-145459674D01*
X136390353Y-145438154D01*
X136382908Y-145420178D01*
X136380100Y-145411536D01*
X136375449Y-145397219D01*
X136361249Y-145377675D01*
X136351093Y-145361100D01*
X136340128Y-145339580D01*
X136244820Y-145244272D01*
X135811594Y-144811046D01*
X135787620Y-144787072D01*
X135787618Y-144787070D01*
X135766103Y-144776108D01*
X135749510Y-144765940D01*
X135729980Y-144751750D01*
X135707015Y-144744288D01*
X135689041Y-144736843D01*
X135667527Y-144725881D01*
X135662410Y-144725070D01*
X135643673Y-144722103D01*
X135624758Y-144717562D01*
X135601794Y-144710100D01*
X135601793Y-144710100D01*
X135567888Y-144710100D01*
X133468193Y-144710100D01*
X133333407Y-144710100D01*
X133333404Y-144710100D01*
X133310439Y-144717562D01*
X133291522Y-144722103D01*
X133267673Y-144725880D01*
X133246158Y-144736843D01*
X133228185Y-144744288D01*
X133205217Y-144751751D01*
X133205214Y-144751752D01*
X133185678Y-144765946D01*
X133169093Y-144776110D01*
X133147580Y-144787071D01*
X133136569Y-144798083D01*
X133123606Y-144811046D01*
X133114041Y-144820611D01*
X133052716Y-144854093D01*
X132983024Y-144849104D01*
X132927093Y-144807230D01*
X132903268Y-144747871D01*
X132900598Y-144725880D01*
X132896439Y-144691627D01*
X132891271Y-144678001D01*
X132861507Y-144599519D01*
X132836117Y-144532569D01*
X132832114Y-144526770D01*
X132775038Y-144444082D01*
X132739482Y-144392570D01*
X132736800Y-144390194D01*
X136429700Y-144390194D01*
X136437162Y-144413158D01*
X136441703Y-144432073D01*
X136443603Y-144444068D01*
X136445481Y-144455927D01*
X136456443Y-144477441D01*
X136463888Y-144495415D01*
X136471350Y-144518380D01*
X136485540Y-144537910D01*
X136495708Y-144554503D01*
X136506670Y-144576018D01*
X136626111Y-144695459D01*
X136659596Y-144756782D01*
X136661526Y-144798083D01*
X136657555Y-144830795D01*
X136657555Y-144830799D01*
X136678059Y-144999669D01*
X136678060Y-144999674D01*
X136738382Y-145158731D01*
X136769360Y-145203609D01*
X136835017Y-145298729D01*
X136910671Y-145365752D01*
X136962350Y-145411536D01*
X137112973Y-145490589D01*
X137112975Y-145490590D01*
X137278144Y-145531300D01*
X137448256Y-145531300D01*
X137613425Y-145490590D01*
X137705559Y-145442234D01*
X137764049Y-145411536D01*
X137764050Y-145411534D01*
X137764052Y-145411534D01*
X137891383Y-145298729D01*
X137988018Y-145158730D01*
X138048340Y-144999672D01*
X138068845Y-144830800D01*
X138048340Y-144661928D01*
X138035025Y-144626820D01*
X138014222Y-144571965D01*
X137988018Y-144502870D01*
X137983861Y-144496848D01*
X137947430Y-144444068D01*
X137891383Y-144362871D01*
X137790083Y-144273127D01*
X137764049Y-144250063D01*
X137613426Y-144171010D01*
X137448256Y-144130300D01*
X137404700Y-144130300D01*
X137337661Y-144110615D01*
X137291906Y-144057811D01*
X137280700Y-144006300D01*
X137280700Y-142010410D01*
X137300385Y-141943371D01*
X137317019Y-141922729D01*
X137757129Y-141482619D01*
X137818452Y-141449134D01*
X137844810Y-141446300D01*
X137962988Y-141446300D01*
X138030027Y-141465985D01*
X138068054Y-141509871D01*
X138069201Y-141509086D01*
X138075694Y-141518565D01*
X138125248Y-141568119D01*
X138158733Y-141629442D01*
X138153749Y-141699134D01*
X138125248Y-141743481D01*
X138075694Y-141793034D01*
X138030315Y-141895806D01*
X138030315Y-141895808D01*
X138027400Y-141920931D01*
X138027400Y-142660656D01*
X138027402Y-142660682D01*
X138030313Y-142685787D01*
X138030315Y-142685791D01*
X138075693Y-142788564D01*
X138125248Y-142838119D01*
X138158733Y-142899442D01*
X138153749Y-142969134D01*
X138125248Y-143013481D01*
X138075694Y-143063034D01*
X138030315Y-143165806D01*
X138030315Y-143165808D01*
X138027400Y-143190931D01*
X138027400Y-143930656D01*
X138027402Y-143930682D01*
X138030313Y-143955787D01*
X138030315Y-143955791D01*
X138075693Y-144058564D01*
X138075694Y-144058565D01*
X138155135Y-144138006D01*
X138257909Y-144183385D01*
X138283035Y-144186300D01*
X139897764Y-144186299D01*
X139897779Y-144186297D01*
X139897782Y-144186297D01*
X139922887Y-144183386D01*
X139922888Y-144183385D01*
X139922891Y-144183385D01*
X140025665Y-144138006D01*
X140105106Y-144058565D01*
X140150485Y-143955791D01*
X140150485Y-143955786D01*
X140152335Y-143948991D01*
X140188928Y-143889471D01*
X140251891Y-143859182D01*
X140321234Y-143867742D01*
X140354211Y-143888727D01*
X140429913Y-143955792D01*
X140467547Y-143989133D01*
X140467549Y-143989135D01*
X140598499Y-144057863D01*
X140618175Y-144068190D01*
X140783344Y-144108900D01*
X140953456Y-144108900D01*
X140963087Y-144106526D01*
X141032889Y-144109591D01*
X141089953Y-144149908D01*
X141116161Y-144214676D01*
X141103193Y-144283332D01*
X141080449Y-144314602D01*
X140767580Y-144627472D01*
X140672271Y-144722780D01*
X140661310Y-144744293D01*
X140651146Y-144760878D01*
X140636952Y-144780414D01*
X140636951Y-144780417D01*
X140629488Y-144803385D01*
X140622043Y-144821358D01*
X140611080Y-144842873D01*
X140607303Y-144866722D01*
X140602762Y-144885639D01*
X140595300Y-144908604D01*
X140595300Y-145558594D01*
X140602762Y-145581558D01*
X140607303Y-145600473D01*
X140608716Y-145609393D01*
X140611081Y-145624327D01*
X140622043Y-145645841D01*
X140629488Y-145663815D01*
X140636950Y-145686780D01*
X140651140Y-145706310D01*
X140661308Y-145722903D01*
X140672270Y-145744418D01*
X141275581Y-146347729D01*
X141286966Y-146353530D01*
X141337763Y-146401503D01*
X141354559Y-146469324D01*
X141332023Y-146535459D01*
X141318354Y-146551696D01*
X140842469Y-147027581D01*
X140781146Y-147061066D01*
X140754789Y-147063900D01*
X140518482Y-147063900D01*
X140437519Y-147076723D01*
X140424696Y-147078754D01*
X140311658Y-147136350D01*
X140311657Y-147136351D01*
X140311652Y-147136354D01*
X140221954Y-147226052D01*
X140221951Y-147226057D01*
X140221950Y-147226058D01*
X140215916Y-147237901D01*
X140164352Y-147339098D01*
X140149500Y-147432875D01*
X140149500Y-147755917D01*
X140159599Y-147819678D01*
X140164354Y-147849704D01*
X140221950Y-147962742D01*
X140221952Y-147962744D01*
X140221954Y-147962747D01*
X140311652Y-148052445D01*
X140311654Y-148052446D01*
X140311658Y-148052450D01*
X140424694Y-148110045D01*
X140424698Y-148110047D01*
X140518475Y-148124899D01*
X140518481Y-148124900D01*
X140781518Y-148124899D01*
X140875304Y-148110046D01*
X140988342Y-148052450D01*
X140993123Y-148047669D01*
X141004974Y-148035819D01*
X141066297Y-148002334D01*
X141092655Y-147999500D01*
X141208145Y-147999500D01*
X141275184Y-148019185D01*
X141284110Y-148026378D01*
X141284159Y-148026311D01*
X141292053Y-148032045D01*
X141292058Y-148032050D01*
X141402368Y-148088256D01*
X141405098Y-148089647D01*
X141498875Y-148104499D01*
X141498881Y-148104500D01*
X141761918Y-148104499D01*
X141855704Y-148089646D01*
X141968742Y-148032050D01*
X141968749Y-148032042D01*
X141976641Y-148026311D01*
X141978272Y-148028557D01*
X142026297Y-148002334D01*
X142052655Y-147999500D01*
X142162084Y-147999500D01*
X142218376Y-148013014D01*
X142295769Y-148052448D01*
X142309898Y-148059647D01*
X142403675Y-148074499D01*
X142403681Y-148074500D01*
X142726718Y-148074499D01*
X142820504Y-148059646D01*
X142828903Y-148055366D01*
X142897568Y-148042467D01*
X142941494Y-148055365D01*
X142949896Y-148059646D01*
X142949898Y-148059646D01*
X142949900Y-148059647D01*
X143043675Y-148074499D01*
X143043681Y-148074500D01*
X143366718Y-148074499D01*
X143460504Y-148059646D01*
X143573542Y-148002050D01*
X143663250Y-147912342D01*
X143663251Y-147912339D01*
X143667172Y-147908419D01*
X143728495Y-147874934D01*
X143754854Y-147872100D01*
X143834545Y-147872100D01*
X143901584Y-147891785D01*
X143910510Y-147898978D01*
X143910559Y-147898911D01*
X143918453Y-147904645D01*
X143918458Y-147904650D01*
X144031494Y-147962245D01*
X144031498Y-147962247D01*
X144125275Y-147977099D01*
X144125281Y-147977100D01*
X144388318Y-147977099D01*
X144482104Y-147962246D01*
X144595142Y-147904650D01*
X144684850Y-147814942D01*
X144685736Y-147813204D01*
X144687371Y-147811472D01*
X144690586Y-147807048D01*
X144691157Y-147807463D01*
X144733711Y-147762409D01*
X144796220Y-147745500D01*
X144869620Y-147745500D01*
X144936659Y-147765185D01*
X144957400Y-147782957D01*
X144957403Y-147782955D01*
X144957572Y-147783105D01*
X144962433Y-147787270D01*
X144963014Y-147787926D01*
X144963016Y-147787928D01*
X144963017Y-147787929D01*
X145001483Y-147822007D01*
X145090350Y-147900736D01*
X145235848Y-147977099D01*
X145240975Y-147979790D01*
X145406144Y-148020500D01*
X145576256Y-148020500D01*
X145741425Y-147979790D01*
X145858528Y-147918329D01*
X145892049Y-147900736D01*
X145892050Y-147900734D01*
X145892052Y-147900734D01*
X146019383Y-147787929D01*
X146116018Y-147647930D01*
X146176340Y-147488872D01*
X146196845Y-147320000D01*
X146176340Y-147151128D01*
X146116018Y-146992070D01*
X146113588Y-146988550D01*
X146060530Y-146911682D01*
X146019383Y-146852071D01*
X145892052Y-146739266D01*
X145835891Y-146709790D01*
X145805475Y-146693826D01*
X145755263Y-146645241D01*
X145739289Y-146577222D01*
X145762625Y-146511364D01*
X145775410Y-146496360D01*
X145799806Y-146471965D01*
X145799806Y-146471962D01*
X145807932Y-146463838D01*
X145810368Y-146466275D01*
X145849387Y-146434434D01*
X145897545Y-146424700D01*
X145927946Y-146424700D01*
X145994985Y-146444385D01*
X146015622Y-146461014D01*
X146083458Y-146528850D01*
X146178393Y-146577222D01*
X146196498Y-146586447D01*
X146290275Y-146601299D01*
X146290281Y-146601300D01*
X146613318Y-146601299D01*
X146707104Y-146586446D01*
X146820142Y-146528850D01*
X146909850Y-146439142D01*
X146967446Y-146326104D01*
X146967446Y-146326102D01*
X146967447Y-146326101D01*
X146982299Y-146232324D01*
X146982300Y-146232319D01*
X146982299Y-145969282D01*
X146967446Y-145875496D01*
X146909850Y-145762458D01*
X146909846Y-145762454D01*
X146909845Y-145762452D01*
X146820147Y-145672754D01*
X146820144Y-145672752D01*
X146820142Y-145672750D01*
X146734694Y-145629212D01*
X146707101Y-145615152D01*
X146613324Y-145600300D01*
X146613319Y-145600300D01*
X146534330Y-145600300D01*
X146493277Y-145590443D01*
X146492610Y-145592497D01*
X146483329Y-145589481D01*
X146472587Y-145587780D01*
X146459473Y-145585703D01*
X146440558Y-145581162D01*
X146417594Y-145573700D01*
X146417593Y-145573700D01*
X146383688Y-145573700D01*
X145897545Y-145573700D01*
X145830506Y-145554015D01*
X145809180Y-145533310D01*
X145807931Y-145534560D01*
X145720365Y-145446994D01*
X145617592Y-145401615D01*
X145592465Y-145398700D01*
X144352743Y-145398700D01*
X144352717Y-145398702D01*
X144327612Y-145401613D01*
X144327608Y-145401615D01*
X144224835Y-145446993D01*
X144145394Y-145526434D01*
X144100015Y-145629206D01*
X144100015Y-145629208D01*
X144097100Y-145654331D01*
X144097100Y-146344056D01*
X144097102Y-146344082D01*
X144100013Y-146369187D01*
X144100015Y-146369191D01*
X144145393Y-146471964D01*
X144145394Y-146471965D01*
X144224835Y-146551406D01*
X144327609Y-146596785D01*
X144352735Y-146599700D01*
X144920925Y-146599699D01*
X144987963Y-146619383D01*
X145033718Y-146672187D01*
X145043662Y-146741346D01*
X145014637Y-146804902D01*
X145003152Y-146816514D01*
X144963015Y-146852072D01*
X144962433Y-146852730D01*
X144961886Y-146853072D01*
X144957404Y-146857044D01*
X144956743Y-146856298D01*
X144903242Y-146889855D01*
X144869620Y-146894500D01*
X144316004Y-146894500D01*
X144293039Y-146901962D01*
X144274123Y-146906503D01*
X144240639Y-146911807D01*
X144240619Y-146911682D01*
X144212725Y-146916100D01*
X144125282Y-146916100D01*
X144044319Y-146928923D01*
X144031496Y-146930954D01*
X143918458Y-146988550D01*
X143918457Y-146988551D01*
X143910559Y-146994289D01*
X143908927Y-146992042D01*
X143860903Y-147018266D01*
X143834545Y-147021100D01*
X143399993Y-147021100D01*
X143265207Y-147021100D01*
X143265204Y-147021101D01*
X143242235Y-147028563D01*
X143223322Y-147033103D01*
X143199474Y-147036880D01*
X143177959Y-147047842D01*
X143159989Y-147055285D01*
X143127740Y-147065764D01*
X143127063Y-147063681D01*
X143086152Y-147073500D01*
X143043683Y-147073500D01*
X142949893Y-147088354D01*
X142949888Y-147088356D01*
X142941489Y-147092636D01*
X142872820Y-147105530D01*
X142828909Y-147092636D01*
X142820502Y-147088353D01*
X142726724Y-147073500D01*
X142403681Y-147073500D01*
X142301018Y-147089760D01*
X142231725Y-147080804D01*
X142178274Y-147035807D01*
X142157635Y-146969055D01*
X142176361Y-146901742D01*
X142193937Y-146879609D01*
X142437529Y-146636018D01*
X142498852Y-146602533D01*
X142525210Y-146599699D01*
X143092456Y-146599699D01*
X143092464Y-146599699D01*
X143092479Y-146599697D01*
X143092482Y-146599697D01*
X143117587Y-146596786D01*
X143117588Y-146596785D01*
X143117591Y-146596785D01*
X143220365Y-146551406D01*
X143299806Y-146471965D01*
X143345185Y-146369191D01*
X143348100Y-146344065D01*
X143348099Y-145654336D01*
X143347114Y-145645841D01*
X143345186Y-145629212D01*
X143345185Y-145629210D01*
X143345185Y-145629209D01*
X143299806Y-145526435D01*
X143220365Y-145446994D01*
X143209585Y-145442234D01*
X143117592Y-145401615D01*
X143092465Y-145398700D01*
X141852743Y-145398700D01*
X141852717Y-145398702D01*
X141827612Y-145401613D01*
X141827608Y-145401615D01*
X141724830Y-145446995D01*
X141722833Y-145448364D01*
X141718635Y-145449731D01*
X141714324Y-145451635D01*
X141714131Y-145451198D01*
X141656399Y-145470004D01*
X141588811Y-145452291D01*
X141565086Y-145433738D01*
X141482619Y-145351271D01*
X141449134Y-145289948D01*
X141446995Y-145270056D01*
X149654700Y-145270056D01*
X149654702Y-145270082D01*
X149657613Y-145295187D01*
X149657615Y-145295191D01*
X149702993Y-145397964D01*
X149702994Y-145397965D01*
X149782435Y-145477406D01*
X149885209Y-145522785D01*
X149910335Y-145525700D01*
X151500064Y-145525699D01*
X151500079Y-145525697D01*
X151500082Y-145525697D01*
X151525187Y-145522786D01*
X151525188Y-145522785D01*
X151525191Y-145522785D01*
X151627965Y-145477406D01*
X151707406Y-145397965D01*
X151752785Y-145295191D01*
X151755700Y-145270065D01*
X151755700Y-145270056D01*
X153584700Y-145270056D01*
X153584702Y-145270082D01*
X153587613Y-145295187D01*
X153587615Y-145295191D01*
X153632993Y-145397964D01*
X153632994Y-145397965D01*
X153712435Y-145477406D01*
X153815209Y-145522785D01*
X153840335Y-145525700D01*
X155430064Y-145525699D01*
X155430079Y-145525697D01*
X155430082Y-145525697D01*
X155455187Y-145522786D01*
X155455188Y-145522785D01*
X155455191Y-145522785D01*
X155557965Y-145477406D01*
X155637406Y-145397965D01*
X155682785Y-145295191D01*
X155685700Y-145270065D01*
X155685699Y-143680336D01*
X155685697Y-143680317D01*
X155682786Y-143655212D01*
X155682785Y-143655210D01*
X155682785Y-143655209D01*
X155637406Y-143552435D01*
X155557965Y-143472994D01*
X155522023Y-143457124D01*
X155455192Y-143427615D01*
X155430065Y-143424700D01*
X153840343Y-143424700D01*
X153840317Y-143424702D01*
X153815212Y-143427613D01*
X153815208Y-143427615D01*
X153712435Y-143472993D01*
X153632994Y-143552434D01*
X153587615Y-143655206D01*
X153587615Y-143655208D01*
X153584700Y-143680331D01*
X153584700Y-145270056D01*
X151755700Y-145270056D01*
X151755699Y-143680336D01*
X151755697Y-143680317D01*
X151752786Y-143655212D01*
X151752785Y-143655210D01*
X151752785Y-143655209D01*
X151707406Y-143552435D01*
X151627965Y-143472994D01*
X151592023Y-143457124D01*
X151525192Y-143427615D01*
X151500065Y-143424700D01*
X149910343Y-143424700D01*
X149910317Y-143424702D01*
X149885212Y-143427613D01*
X149885208Y-143427615D01*
X149782435Y-143472993D01*
X149702994Y-143552434D01*
X149657615Y-143655206D01*
X149657615Y-143655208D01*
X149654700Y-143680331D01*
X149654700Y-145270056D01*
X141446995Y-145270056D01*
X141446300Y-145263590D01*
X141446300Y-145203609D01*
X141465985Y-145136570D01*
X141482615Y-145115932D01*
X141862529Y-144736017D01*
X141923852Y-144702533D01*
X141950210Y-144699699D01*
X143092456Y-144699699D01*
X143092464Y-144699699D01*
X143092479Y-144699697D01*
X143092482Y-144699697D01*
X143117587Y-144696786D01*
X143117588Y-144696785D01*
X143117591Y-144696785D01*
X143220365Y-144651406D01*
X143299806Y-144571965D01*
X143345185Y-144469191D01*
X143348100Y-144444065D01*
X143348099Y-143754336D01*
X143348097Y-143754317D01*
X143345186Y-143729212D01*
X143345185Y-143729210D01*
X143345185Y-143729209D01*
X143299806Y-143626435D01*
X143220365Y-143546994D01*
X143151015Y-143516373D01*
X143117592Y-143501615D01*
X143092465Y-143498700D01*
X141852743Y-143498700D01*
X141852717Y-143498702D01*
X141827613Y-143501613D01*
X141800332Y-143513658D01*
X141747183Y-143537126D01*
X141677906Y-143546197D01*
X141614722Y-143516373D01*
X141577691Y-143457124D01*
X141574549Y-143415901D01*
X141574045Y-143415901D01*
X141574045Y-143409293D01*
X141574003Y-143408743D01*
X141574045Y-143408400D01*
X141553540Y-143239528D01*
X141493218Y-143080470D01*
X141481183Y-143063035D01*
X141458876Y-143030718D01*
X141396583Y-142940471D01*
X141275420Y-142833130D01*
X141269249Y-142827663D01*
X141118626Y-142748610D01*
X140994560Y-142718031D01*
X140934179Y-142682875D01*
X140902391Y-142620656D01*
X140908292Y-142553667D01*
X140943940Y-142459672D01*
X140948476Y-142422317D01*
X142192500Y-142422317D01*
X142203292Y-142490457D01*
X142207354Y-142516104D01*
X142264950Y-142629142D01*
X142264952Y-142629144D01*
X142264954Y-142629147D01*
X142354652Y-142718845D01*
X142354654Y-142718846D01*
X142354658Y-142718850D01*
X142455063Y-142770009D01*
X142467698Y-142776447D01*
X142561475Y-142791299D01*
X142561481Y-142791300D01*
X142884518Y-142791299D01*
X142978304Y-142776446D01*
X143069823Y-142729814D01*
X143126116Y-142716300D01*
X144192792Y-142716300D01*
X144192793Y-142716300D01*
X144215760Y-142708836D01*
X144234676Y-142704295D01*
X144258526Y-142700519D01*
X144280036Y-142689557D01*
X144298014Y-142682110D01*
X144320981Y-142674649D01*
X144340518Y-142660453D01*
X144357106Y-142650288D01*
X144378620Y-142639328D01*
X144473928Y-142544020D01*
X145054729Y-141963217D01*
X145116052Y-141929733D01*
X145142410Y-141926899D01*
X145734656Y-141926899D01*
X145734664Y-141926899D01*
X145734679Y-141926897D01*
X145734682Y-141926897D01*
X145759785Y-141923986D01*
X145759786Y-141923985D01*
X145759791Y-141923985D01*
X145759794Y-141923983D01*
X145768792Y-141921536D01*
X145769540Y-141924287D01*
X145823978Y-141917153D01*
X145840671Y-141922053D01*
X145840812Y-141921537D01*
X145849806Y-141923984D01*
X145849809Y-141923985D01*
X145874935Y-141926900D01*
X145906899Y-141926899D01*
X145973937Y-141946582D01*
X146019693Y-141999384D01*
X146030900Y-142050899D01*
X146030900Y-143549700D01*
X146011215Y-143616739D01*
X145958411Y-143662494D01*
X145906900Y-143673700D01*
X145897545Y-143673700D01*
X145830506Y-143654015D01*
X145809180Y-143633310D01*
X145807931Y-143634560D01*
X145720365Y-143546994D01*
X145617592Y-143501615D01*
X145592465Y-143498700D01*
X144352743Y-143498700D01*
X144352717Y-143498702D01*
X144327612Y-143501613D01*
X144327608Y-143501615D01*
X144224835Y-143546993D01*
X144145394Y-143626434D01*
X144100015Y-143729206D01*
X144100015Y-143729208D01*
X144097100Y-143754331D01*
X144097100Y-144444056D01*
X144097102Y-144444082D01*
X144100013Y-144469187D01*
X144100015Y-144469191D01*
X144145393Y-144571964D01*
X144145394Y-144571965D01*
X144224835Y-144651406D01*
X144327609Y-144696785D01*
X144352735Y-144699700D01*
X145592464Y-144699699D01*
X145592479Y-144699697D01*
X145592482Y-144699697D01*
X145617587Y-144696786D01*
X145617588Y-144696785D01*
X145617591Y-144696785D01*
X145720365Y-144651406D01*
X145799806Y-144571965D01*
X145799806Y-144571964D01*
X145807931Y-144563840D01*
X145810367Y-144566276D01*
X145849387Y-144534434D01*
X145897545Y-144524700D01*
X146112946Y-144524700D01*
X146169238Y-144538213D01*
X146201096Y-144554446D01*
X146201097Y-144554446D01*
X146201099Y-144554447D01*
X146294875Y-144569299D01*
X146294881Y-144569300D01*
X146617918Y-144569299D01*
X146711704Y-144554446D01*
X146824742Y-144496850D01*
X146914450Y-144407142D01*
X146972046Y-144294104D01*
X146972046Y-144294102D01*
X146972047Y-144294101D01*
X146985779Y-144207394D01*
X146986900Y-144200319D01*
X146986899Y-143937282D01*
X146972046Y-143843496D01*
X146914450Y-143730458D01*
X146914445Y-143730453D01*
X146908711Y-143722559D01*
X146910957Y-143720927D01*
X146884734Y-143672903D01*
X146881900Y-143646545D01*
X146881900Y-141995021D01*
X146901585Y-141927982D01*
X146954389Y-141882227D01*
X146955750Y-141881615D01*
X146962565Y-141878606D01*
X147042006Y-141799165D01*
X147087385Y-141696391D01*
X147090300Y-141671265D01*
X147090299Y-141081536D01*
X147090147Y-141080222D01*
X147087386Y-141056412D01*
X147087385Y-141056410D01*
X147087385Y-141056409D01*
X147042006Y-140953635D01*
X146962565Y-140874194D01*
X146962563Y-140874193D01*
X146854213Y-140826351D01*
X146800837Y-140781265D01*
X146780310Y-140714478D01*
X146780300Y-140712917D01*
X146780300Y-140130810D01*
X146799985Y-140063771D01*
X146816619Y-140043129D01*
X147036196Y-139823552D01*
X147238154Y-139621594D01*
X147262128Y-139597620D01*
X147273093Y-139576098D01*
X147283252Y-139559520D01*
X147297450Y-139539980D01*
X147304914Y-139517005D01*
X147312351Y-139499050D01*
X147323319Y-139477526D01*
X147327096Y-139453671D01*
X147331634Y-139434766D01*
X147339100Y-139411793D01*
X147339100Y-139277007D01*
X147339100Y-138911610D01*
X147358785Y-138844571D01*
X147375419Y-138823929D01*
X148425129Y-137774219D01*
X148486452Y-137740734D01*
X148512810Y-137737900D01*
X148613684Y-137737900D01*
X148669976Y-137751414D01*
X148728511Y-137781239D01*
X148761498Y-137798047D01*
X148855275Y-137812899D01*
X148855281Y-137812900D01*
X149178318Y-137812899D01*
X149272104Y-137798046D01*
X149385142Y-137740450D01*
X149474850Y-137650742D01*
X149532446Y-137537704D01*
X149532446Y-137537702D01*
X149532447Y-137537701D01*
X149544022Y-137464616D01*
X149547300Y-137443919D01*
X149547299Y-137180882D01*
X149532446Y-137087096D01*
X149474850Y-136974058D01*
X149474846Y-136974054D01*
X149474845Y-136974052D01*
X149385147Y-136884354D01*
X149385144Y-136884352D01*
X149385142Y-136884350D01*
X149283774Y-136832700D01*
X149272101Y-136826752D01*
X149178324Y-136811900D01*
X148855282Y-136811900D01*
X148774319Y-136824723D01*
X148761496Y-136826754D01*
X148669976Y-136873385D01*
X148613684Y-136886900D01*
X147748916Y-136886900D01*
X147692623Y-136873385D01*
X147612774Y-136832700D01*
X147601101Y-136826752D01*
X147507324Y-136811900D01*
X147255300Y-136811900D01*
X147188261Y-136792215D01*
X147142506Y-136739411D01*
X147131300Y-136687900D01*
X147131300Y-136549833D01*
X147150985Y-136482794D01*
X147167619Y-136462152D01*
X147211806Y-136417965D01*
X147257185Y-136315191D01*
X147260100Y-136290065D01*
X147260099Y-135000336D01*
X147258614Y-134987528D01*
X147257186Y-134975212D01*
X147257185Y-134975210D01*
X147257185Y-134975209D01*
X147211806Y-134872435D01*
X147132365Y-134792994D01*
X147131629Y-134792669D01*
X147029592Y-134747615D01*
X147004465Y-134744700D01*
X146314743Y-134744700D01*
X146314717Y-134744702D01*
X146289612Y-134747613D01*
X146289608Y-134747615D01*
X146186835Y-134792993D01*
X146107394Y-134872434D01*
X146062015Y-134975206D01*
X146062015Y-134975208D01*
X146059100Y-135000331D01*
X146059100Y-136290056D01*
X146059102Y-136290082D01*
X146062013Y-136315187D01*
X146062015Y-136315191D01*
X146107393Y-136417964D01*
X146107394Y-136417965D01*
X146186835Y-136497406D01*
X146186837Y-136497407D01*
X146186839Y-136497408D01*
X146206384Y-136506038D01*
X146259761Y-136551123D01*
X146280290Y-136617908D01*
X146280300Y-136619473D01*
X146280300Y-136890145D01*
X146260615Y-136957184D01*
X146253421Y-136966110D01*
X146253489Y-136966159D01*
X146247751Y-136974057D01*
X146247750Y-136974058D01*
X146237152Y-136994858D01*
X146190152Y-137087098D01*
X146175300Y-137180875D01*
X146175300Y-137443917D01*
X146185758Y-137509949D01*
X146190154Y-137537704D01*
X146247750Y-137650742D01*
X146247752Y-137650744D01*
X146247754Y-137650747D01*
X146337452Y-137740445D01*
X146337454Y-137740446D01*
X146337458Y-137740450D01*
X146432152Y-137788699D01*
X146450498Y-137798047D01*
X146544275Y-137812899D01*
X146544281Y-137812900D01*
X146867318Y-137812899D01*
X146867323Y-137812899D01*
X146872180Y-137812517D01*
X146872304Y-137814097D01*
X146934681Y-137822141D01*
X146988145Y-137867124D01*
X147008802Y-137933870D01*
X146990094Y-138001188D01*
X146972497Y-138023354D01*
X146912041Y-138083810D01*
X146773669Y-138222182D01*
X146712349Y-138255666D01*
X146685990Y-138258500D01*
X146506610Y-138258500D01*
X146439571Y-138238815D01*
X146418929Y-138222181D01*
X145474218Y-137277470D01*
X145440733Y-137216147D01*
X145437899Y-137189789D01*
X145437899Y-137180882D01*
X145437898Y-137180875D01*
X145423046Y-137087096D01*
X145365450Y-136974058D01*
X145365446Y-136974054D01*
X145365445Y-136974052D01*
X145275747Y-136884354D01*
X145275744Y-136884352D01*
X145275742Y-136884350D01*
X145174374Y-136832700D01*
X145162701Y-136826752D01*
X145068924Y-136811900D01*
X144745882Y-136811900D01*
X144652093Y-136826754D01*
X144652088Y-136826756D01*
X144643689Y-136831036D01*
X144575020Y-136843930D01*
X144531109Y-136831036D01*
X144522702Y-136826753D01*
X144428924Y-136811900D01*
X144105881Y-136811900D01*
X144004404Y-136827972D01*
X143935111Y-136819016D01*
X143897327Y-136793179D01*
X143819419Y-136715271D01*
X143785934Y-136653948D01*
X143783100Y-136627590D01*
X143783100Y-135203210D01*
X143802785Y-135136171D01*
X143819413Y-135115534D01*
X143947422Y-134987525D01*
X144008741Y-134954043D01*
X144078433Y-134959027D01*
X144134367Y-135000898D01*
X144158784Y-135066362D01*
X144159100Y-135075209D01*
X144159100Y-136290056D01*
X144159102Y-136290082D01*
X144162013Y-136315187D01*
X144162015Y-136315191D01*
X144207393Y-136417964D01*
X144207394Y-136417965D01*
X144286835Y-136497406D01*
X144389609Y-136542785D01*
X144414735Y-136545700D01*
X145104464Y-136545699D01*
X145104479Y-136545697D01*
X145104482Y-136545697D01*
X145129587Y-136542786D01*
X145129588Y-136542785D01*
X145129591Y-136542785D01*
X145232365Y-136497406D01*
X145311806Y-136417965D01*
X145357185Y-136315191D01*
X145360100Y-136290065D01*
X145360099Y-135000336D01*
X145358614Y-134987528D01*
X145357186Y-134975212D01*
X145357185Y-134975210D01*
X145357185Y-134975209D01*
X145311806Y-134872435D01*
X145232365Y-134792994D01*
X145232040Y-134792669D01*
X145198555Y-134731346D01*
X145203539Y-134661654D01*
X145232038Y-134617309D01*
X145981708Y-133867638D01*
X146043029Y-133834155D01*
X146112720Y-133839139D01*
X146157067Y-133867639D01*
X146171961Y-133882532D01*
X146186835Y-133897406D01*
X146289609Y-133942785D01*
X146314735Y-133945700D01*
X147004464Y-133945699D01*
X147004479Y-133945697D01*
X147004482Y-133945697D01*
X147029587Y-133942786D01*
X147029588Y-133942785D01*
X147029591Y-133942785D01*
X147132365Y-133897406D01*
X147211806Y-133817965D01*
X147257185Y-133715191D01*
X147260100Y-133690065D01*
X147260100Y-133437700D01*
X147279785Y-133370661D01*
X147332589Y-133324906D01*
X147384100Y-133313700D01*
X147964545Y-133313700D01*
X148031584Y-133333385D01*
X148040510Y-133340578D01*
X148040559Y-133340511D01*
X148048453Y-133346245D01*
X148048458Y-133346250D01*
X148161494Y-133403845D01*
X148161498Y-133403847D01*
X148255275Y-133418699D01*
X148255281Y-133418700D01*
X148518318Y-133418699D01*
X148612104Y-133403846D01*
X148725142Y-133346250D01*
X148725149Y-133346242D01*
X148733041Y-133340511D01*
X148734672Y-133342757D01*
X148782697Y-133316534D01*
X148809055Y-133313700D01*
X153031390Y-133313700D01*
X153098429Y-133333385D01*
X153119071Y-133350019D01*
X153871656Y-134102604D01*
X153905141Y-134163927D01*
X153902240Y-134221968D01*
X153903276Y-134222189D01*
X153901926Y-134228539D01*
X153882172Y-134416496D01*
X153882140Y-134416800D01*
X153901926Y-134605056D01*
X153901927Y-134605059D01*
X153960418Y-134785077D01*
X153960421Y-134785084D01*
X154055067Y-134949016D01*
X154160726Y-135066362D01*
X154181729Y-135089688D01*
X154334865Y-135200948D01*
X154334870Y-135200951D01*
X154507792Y-135277942D01*
X154507797Y-135277944D01*
X154692954Y-135317300D01*
X154692955Y-135317300D01*
X154882244Y-135317300D01*
X154882246Y-135317300D01*
X155067403Y-135277944D01*
X155240330Y-135200951D01*
X155393471Y-135089688D01*
X155520133Y-134949016D01*
X155614779Y-134785084D01*
X155673274Y-134605056D01*
X155693060Y-134416800D01*
X155673274Y-134228544D01*
X155614779Y-134048516D01*
X155520133Y-133884584D01*
X155393471Y-133743912D01*
X155393470Y-133743911D01*
X155240334Y-133632651D01*
X155240329Y-133632648D01*
X155067407Y-133555657D01*
X155067402Y-133555655D01*
X154904306Y-133520989D01*
X154882246Y-133516300D01*
X154692954Y-133516300D01*
X154692949Y-133516300D01*
X154590480Y-133538080D01*
X154520813Y-133532764D01*
X154477019Y-133504471D01*
X153512218Y-132539670D01*
X153490703Y-132528708D01*
X153474110Y-132518540D01*
X153454580Y-132504350D01*
X153431615Y-132496888D01*
X153413641Y-132489443D01*
X153392127Y-132478481D01*
X153387010Y-132477670D01*
X153368273Y-132474703D01*
X153349358Y-132470162D01*
X153326394Y-132462700D01*
X153326393Y-132462700D01*
X153292488Y-132462700D01*
X148809055Y-132462700D01*
X148742016Y-132443015D01*
X148733089Y-132435821D01*
X148733041Y-132435889D01*
X148725145Y-132430153D01*
X148725142Y-132430150D01*
X148646758Y-132390211D01*
X148612101Y-132372552D01*
X148518324Y-132357700D01*
X148255282Y-132357700D01*
X148174319Y-132370523D01*
X148161496Y-132372554D01*
X148048458Y-132430150D01*
X148048457Y-132430151D01*
X148040559Y-132435889D01*
X148038927Y-132433642D01*
X147990903Y-132459866D01*
X147964545Y-132462700D01*
X147375759Y-132462700D01*
X147308720Y-132443015D01*
X147262965Y-132390211D01*
X147259142Y-132379640D01*
X147211806Y-132272435D01*
X147132365Y-132192994D01*
X147029592Y-132147615D01*
X147004465Y-132144700D01*
X146314743Y-132144700D01*
X146314717Y-132144702D01*
X146289612Y-132147613D01*
X146289608Y-132147615D01*
X146186835Y-132192993D01*
X146107394Y-132272434D01*
X146062015Y-132375206D01*
X146062015Y-132375208D01*
X146059100Y-132400331D01*
X146059100Y-132560185D01*
X146039415Y-132627224D01*
X146007983Y-132660505D01*
X145987284Y-132675543D01*
X145970699Y-132685706D01*
X145949182Y-132696669D01*
X145949180Y-132696671D01*
X145925205Y-132720647D01*
X145571780Y-133074071D01*
X145510457Y-133107556D01*
X145440765Y-133102572D01*
X145384832Y-133060700D01*
X145360415Y-132995236D01*
X145360099Y-132986390D01*
X145360099Y-132400343D01*
X145360099Y-132400336D01*
X145357699Y-132379640D01*
X145357186Y-132375212D01*
X145357185Y-132375210D01*
X145357185Y-132375209D01*
X145311806Y-132272435D01*
X145232365Y-132192994D01*
X145232363Y-132192993D01*
X145129592Y-132147615D01*
X145104465Y-132144700D01*
X144414743Y-132144700D01*
X144414717Y-132144702D01*
X144389612Y-132147613D01*
X144389608Y-132147615D01*
X144286835Y-132192993D01*
X144207395Y-132272433D01*
X144207394Y-132272434D01*
X144207394Y-132272435D01*
X144198849Y-132291786D01*
X144153766Y-132345162D01*
X144086980Y-132365690D01*
X144085416Y-132365700D01*
X143779855Y-132365700D01*
X143712816Y-132346015D01*
X143703889Y-132338821D01*
X143703841Y-132338889D01*
X143695945Y-132333153D01*
X143695942Y-132333150D01*
X143614759Y-132291785D01*
X143582901Y-132275552D01*
X143489124Y-132260700D01*
X143226082Y-132260700D01*
X143151990Y-132272435D01*
X143132296Y-132275554D01*
X143019258Y-132333150D01*
X143019257Y-132333151D01*
X143019252Y-132333154D01*
X142929554Y-132422852D01*
X142929551Y-132422857D01*
X142929550Y-132422858D01*
X142919179Y-132443213D01*
X142871952Y-132535898D01*
X142857100Y-132629675D01*
X142857100Y-132952717D01*
X142867892Y-133020857D01*
X142871954Y-133046504D01*
X142929550Y-133159542D01*
X142929552Y-133159544D01*
X142929554Y-133159547D01*
X143019252Y-133249245D01*
X143019254Y-133249246D01*
X143019258Y-133249250D01*
X143117290Y-133299200D01*
X143132298Y-133306847D01*
X143226075Y-133321699D01*
X143226081Y-133321700D01*
X143489118Y-133321699D01*
X143582904Y-133306846D01*
X143695942Y-133249250D01*
X143695949Y-133249242D01*
X143703841Y-133243511D01*
X143705472Y-133245757D01*
X143753497Y-133219534D01*
X143779855Y-133216700D01*
X144035101Y-133216700D01*
X144102140Y-133236385D01*
X144147895Y-133289189D01*
X144159100Y-133340699D01*
X144159100Y-133437700D01*
X144159100Y-133520989D01*
X144139415Y-133588028D01*
X144122781Y-133608669D01*
X143104380Y-134627072D01*
X143009071Y-134722380D01*
X142998110Y-134743893D01*
X142987946Y-134760478D01*
X142973752Y-134780014D01*
X142973751Y-134780017D01*
X142966288Y-134802985D01*
X142958843Y-134820958D01*
X142947880Y-134842473D01*
X142944103Y-134866322D01*
X142939562Y-134885239D01*
X142932100Y-134908204D01*
X142932100Y-136922594D01*
X142939562Y-136945558D01*
X142944103Y-136964473D01*
X142947070Y-136983210D01*
X142947881Y-136988327D01*
X142958843Y-137009841D01*
X142966288Y-137027815D01*
X142973750Y-137050780D01*
X142987940Y-137070310D01*
X142998108Y-137086903D01*
X143009070Y-137108418D01*
X143009072Y-137108420D01*
X143033046Y-137132394D01*
X143466272Y-137565620D01*
X143561580Y-137660928D01*
X143583100Y-137671893D01*
X143599675Y-137682049D01*
X143619219Y-137696249D01*
X143642181Y-137703709D01*
X143660154Y-137711153D01*
X143681674Y-137722119D01*
X143705524Y-137725895D01*
X143724445Y-137730439D01*
X143746289Y-137737536D01*
X143747407Y-137737900D01*
X143781312Y-137737900D01*
X143864284Y-137737900D01*
X143920576Y-137751414D01*
X143979111Y-137781239D01*
X144012098Y-137798047D01*
X144105875Y-137812899D01*
X144105881Y-137812900D01*
X144428918Y-137812899D01*
X144522704Y-137798046D01*
X144531103Y-137793766D01*
X144599768Y-137780867D01*
X144643694Y-137793765D01*
X144652096Y-137798046D01*
X144652098Y-137798046D01*
X144652100Y-137798047D01*
X144745874Y-137812899D01*
X144745875Y-137812899D01*
X144745881Y-137812900D01*
X144754782Y-137812899D01*
X144821821Y-137832579D01*
X144842470Y-137849218D01*
X144978809Y-137985557D01*
X145012294Y-138046880D01*
X145007310Y-138116572D01*
X144965438Y-138172505D01*
X144920804Y-138193635D01*
X144783772Y-138227410D01*
X144633150Y-138306463D01*
X144505816Y-138419272D01*
X144409182Y-138559268D01*
X144348860Y-138718325D01*
X144348859Y-138718330D01*
X144328355Y-138887200D01*
X144348859Y-139056069D01*
X144348860Y-139056074D01*
X144409182Y-139215131D01*
X144466535Y-139298219D01*
X144505817Y-139355129D01*
X144575809Y-139417136D01*
X144633150Y-139467936D01*
X144783773Y-139546989D01*
X144783775Y-139546990D01*
X144948944Y-139587700D01*
X145119056Y-139587700D01*
X145284225Y-139546990D01*
X145381017Y-139496189D01*
X145434849Y-139467936D01*
X145434850Y-139467934D01*
X145434852Y-139467934D01*
X145562183Y-139355129D01*
X145658818Y-139215130D01*
X145668527Y-139189528D01*
X145710705Y-139133826D01*
X145776303Y-139109769D01*
X145784469Y-139109500D01*
X146211607Y-139109500D01*
X146245512Y-139109500D01*
X146247390Y-139109500D01*
X146314429Y-139129185D01*
X146360184Y-139181989D01*
X146370128Y-139251147D01*
X146341103Y-139314703D01*
X146335071Y-139321181D01*
X146101580Y-139554672D01*
X146006271Y-139649980D01*
X145995310Y-139671493D01*
X145985146Y-139688078D01*
X145970952Y-139707614D01*
X145970951Y-139707617D01*
X145963488Y-139730585D01*
X145956043Y-139748558D01*
X145945080Y-139770073D01*
X145941303Y-139793922D01*
X145936762Y-139812839D01*
X145929300Y-139835804D01*
X145929300Y-140712917D01*
X145909615Y-140779956D01*
X145856811Y-140825711D01*
X145855346Y-140826369D01*
X145854845Y-140826590D01*
X145785563Y-140835637D01*
X145768930Y-140830751D01*
X145768791Y-140831264D01*
X145759792Y-140828815D01*
X145759791Y-140828815D01*
X145734665Y-140825900D01*
X144344943Y-140825900D01*
X144344917Y-140825902D01*
X144319812Y-140828813D01*
X144319808Y-140828815D01*
X144217035Y-140874193D01*
X144137594Y-140953634D01*
X144092215Y-141056406D01*
X144092215Y-141056408D01*
X144089300Y-141081531D01*
X144089300Y-141673787D01*
X144069615Y-141740826D01*
X144052983Y-141761467D01*
X143985472Y-141828980D01*
X143924149Y-141862466D01*
X143897789Y-141865300D01*
X143126116Y-141865300D01*
X143069823Y-141851785D01*
X143020659Y-141826735D01*
X142978301Y-141805152D01*
X142884524Y-141790300D01*
X142561482Y-141790300D01*
X142480519Y-141803123D01*
X142467696Y-141805154D01*
X142354658Y-141862750D01*
X142354657Y-141862751D01*
X142354652Y-141862754D01*
X142264954Y-141952452D01*
X142264951Y-141952457D01*
X142264950Y-141952458D01*
X142251960Y-141977952D01*
X142207352Y-142065498D01*
X142192500Y-142159275D01*
X142192500Y-142422317D01*
X140948476Y-142422317D01*
X140964445Y-142290800D01*
X140943940Y-142121928D01*
X140936534Y-142102401D01*
X140911182Y-142035551D01*
X140883618Y-141962870D01*
X140876430Y-141952457D01*
X140827954Y-141882227D01*
X140786983Y-141822871D01*
X140670028Y-141719258D01*
X140659649Y-141710063D01*
X140509026Y-141631010D01*
X140343856Y-141590300D01*
X140263733Y-141590300D01*
X140196694Y-141570615D01*
X140150939Y-141517811D01*
X140140995Y-141448653D01*
X140150298Y-141416214D01*
X140150485Y-141415791D01*
X140153400Y-141390665D01*
X140153399Y-140650936D01*
X140151777Y-140636948D01*
X140150486Y-140625812D01*
X140150485Y-140625810D01*
X140150485Y-140625809D01*
X140105106Y-140523035D01*
X140055552Y-140473481D01*
X140022067Y-140412158D01*
X140027051Y-140342466D01*
X140055552Y-140298119D01*
X140078280Y-140275391D01*
X140105106Y-140248565D01*
X140150485Y-140145791D01*
X140153400Y-140120665D01*
X140153400Y-139940100D01*
X140173085Y-139873061D01*
X140225889Y-139827306D01*
X140277400Y-139816100D01*
X140598545Y-139816100D01*
X140665584Y-139835785D01*
X140674510Y-139842978D01*
X140674559Y-139842911D01*
X140682453Y-139848645D01*
X140682458Y-139848650D01*
X140779024Y-139897853D01*
X140795498Y-139906247D01*
X140889275Y-139921099D01*
X140889281Y-139921100D01*
X141152318Y-139921099D01*
X141246104Y-139906246D01*
X141359142Y-139848650D01*
X141359149Y-139848642D01*
X141367041Y-139842911D01*
X141368672Y-139845157D01*
X141416697Y-139818934D01*
X141443055Y-139816100D01*
X141665345Y-139816100D01*
X141732384Y-139835785D01*
X141741310Y-139842978D01*
X141741359Y-139842911D01*
X141749253Y-139848645D01*
X141749258Y-139848650D01*
X141845824Y-139897853D01*
X141862298Y-139906247D01*
X141956075Y-139921099D01*
X141956081Y-139921100D01*
X142219118Y-139921099D01*
X142312904Y-139906246D01*
X142425942Y-139848650D01*
X142515650Y-139758942D01*
X142573246Y-139645904D01*
X142573246Y-139645902D01*
X142573247Y-139645901D01*
X142586930Y-139559508D01*
X142588100Y-139552119D01*
X142588099Y-139229082D01*
X142573246Y-139135296D01*
X142515650Y-139022258D01*
X142515646Y-139022254D01*
X142515645Y-139022252D01*
X142425947Y-138932554D01*
X142425944Y-138932552D01*
X142425942Y-138932550D01*
X142336938Y-138887200D01*
X142312901Y-138874952D01*
X142219124Y-138860100D01*
X141956082Y-138860100D01*
X141875119Y-138872923D01*
X141862296Y-138874954D01*
X141749258Y-138932550D01*
X141749257Y-138932551D01*
X141741359Y-138938289D01*
X141739727Y-138936042D01*
X141691703Y-138962266D01*
X141665345Y-138965100D01*
X141443055Y-138965100D01*
X141376016Y-138945415D01*
X141367089Y-138938221D01*
X141367041Y-138938289D01*
X141359145Y-138932553D01*
X141359142Y-138932550D01*
X141270138Y-138887200D01*
X141246101Y-138874952D01*
X141152324Y-138860100D01*
X140889282Y-138860100D01*
X140808319Y-138872923D01*
X140795496Y-138874954D01*
X140682458Y-138932550D01*
X140682457Y-138932551D01*
X140674559Y-138938289D01*
X140672927Y-138936042D01*
X140624903Y-138962266D01*
X140598545Y-138965100D01*
X139517993Y-138965100D01*
X139383207Y-138965100D01*
X139383204Y-138965101D01*
X139360235Y-138972563D01*
X139341322Y-138977103D01*
X139317474Y-138980880D01*
X139295959Y-138991842D01*
X139277989Y-138999285D01*
X139255021Y-139006748D01*
X139255017Y-139006749D01*
X139235480Y-139020944D01*
X139218898Y-139031106D01*
X139197383Y-139042069D01*
X139197382Y-139042070D01*
X139178077Y-139061374D01*
X139116752Y-139094856D01*
X139047061Y-139089869D01*
X139002718Y-139061370D01*
X138346398Y-138405050D01*
X138312913Y-138343727D01*
X138310983Y-138332314D01*
X138308508Y-138311928D01*
X138302340Y-138261128D01*
X138300267Y-138255663D01*
X138276301Y-138192469D01*
X138242018Y-138102070D01*
X138145383Y-137962071D01*
X138038210Y-137867124D01*
X138018049Y-137849263D01*
X137867426Y-137770210D01*
X137702256Y-137729500D01*
X137532144Y-137729500D01*
X137366973Y-137770210D01*
X137216350Y-137849263D01*
X137089016Y-137962072D01*
X136992382Y-138102068D01*
X136932060Y-138261125D01*
X136932059Y-138261130D01*
X136911555Y-138430000D01*
X136932059Y-138598869D01*
X136932060Y-138598874D01*
X136992382Y-138757931D01*
X137037938Y-138823929D01*
X137089017Y-138897929D01*
X137182650Y-138980880D01*
X137216350Y-139010736D01*
X137366973Y-139089789D01*
X137366975Y-139089790D01*
X137532144Y-139130500D01*
X137702258Y-139130500D01*
X137702258Y-139130499D01*
X137767603Y-139114393D01*
X137837404Y-139117461D01*
X137884960Y-139147108D01*
X137994496Y-139256644D01*
X138027981Y-139317967D01*
X138029989Y-139358614D01*
X138027400Y-139380926D01*
X138027400Y-140120656D01*
X138027402Y-140120682D01*
X138030313Y-140145787D01*
X138030315Y-140145791D01*
X138075693Y-140248564D01*
X138125248Y-140298119D01*
X138158733Y-140359442D01*
X138153749Y-140429134D01*
X138125248Y-140473481D01*
X138075694Y-140523034D01*
X138069201Y-140532514D01*
X138067821Y-140531568D01*
X138031336Y-140574763D01*
X137964550Y-140595290D01*
X137962988Y-140595300D01*
X137684593Y-140595300D01*
X137549807Y-140595300D01*
X137549804Y-140595301D01*
X137526835Y-140602763D01*
X137507922Y-140607303D01*
X137484074Y-140611080D01*
X137462559Y-140622042D01*
X137444589Y-140629485D01*
X137421621Y-140636948D01*
X137421617Y-140636949D01*
X137402080Y-140651144D01*
X137385498Y-140661306D01*
X137363983Y-140672269D01*
X137363980Y-140672271D01*
X136601980Y-141434272D01*
X136506671Y-141529580D01*
X136495710Y-141551093D01*
X136485546Y-141567678D01*
X136471352Y-141587214D01*
X136471351Y-141587217D01*
X136463888Y-141610185D01*
X136456443Y-141628158D01*
X136445480Y-141649673D01*
X136441703Y-141673522D01*
X136437162Y-141692439D01*
X136429700Y-141715404D01*
X136429700Y-144390194D01*
X132736800Y-144390194D01*
X132628943Y-144294641D01*
X132612148Y-144279762D01*
X132461525Y-144200709D01*
X132296355Y-144159999D01*
X132260810Y-144159999D01*
X132193771Y-144140314D01*
X132148016Y-144087510D01*
X132138072Y-144018352D01*
X132167097Y-143954796D01*
X132173129Y-143948318D01*
X133168829Y-142952618D01*
X133230152Y-142919133D01*
X133256510Y-142916299D01*
X134473756Y-142916299D01*
X134473764Y-142916299D01*
X134473779Y-142916297D01*
X134473782Y-142916297D01*
X134498887Y-142913386D01*
X134498888Y-142913385D01*
X134498891Y-142913385D01*
X134601665Y-142868006D01*
X134681106Y-142788565D01*
X134726485Y-142685791D01*
X134729400Y-142660665D01*
X134729399Y-141920936D01*
X134729397Y-141920917D01*
X134726486Y-141895812D01*
X134726485Y-141895810D01*
X134726485Y-141895809D01*
X134681106Y-141793035D01*
X134631552Y-141743481D01*
X134598067Y-141682158D01*
X134603051Y-141612466D01*
X134631552Y-141568119D01*
X134648578Y-141551093D01*
X134681106Y-141518565D01*
X134726485Y-141415791D01*
X134729400Y-141390665D01*
X134729399Y-140650936D01*
X134727777Y-140636948D01*
X134726486Y-140625812D01*
X134726485Y-140625810D01*
X134726485Y-140625809D01*
X134681106Y-140523035D01*
X134631552Y-140473481D01*
X134598067Y-140412158D01*
X134603051Y-140342466D01*
X134631552Y-140298119D01*
X134654280Y-140275391D01*
X134681106Y-140248565D01*
X134726485Y-140145791D01*
X134729400Y-140120665D01*
X134729399Y-139380936D01*
X134729185Y-139379089D01*
X134726486Y-139355812D01*
X134726485Y-139355810D01*
X134726485Y-139355809D01*
X134681106Y-139253035D01*
X134601665Y-139173594D01*
X134564844Y-139157336D01*
X134498892Y-139128215D01*
X134473768Y-139125300D01*
X134473765Y-139125300D01*
X133840167Y-139125300D01*
X133773128Y-139105615D01*
X133727373Y-139052811D01*
X133717429Y-138983653D01*
X133738117Y-138930860D01*
X133822418Y-138808730D01*
X133882740Y-138649672D01*
X133903245Y-138480800D01*
X133882740Y-138311928D01*
X133880667Y-138306463D01*
X133837878Y-138193635D01*
X133822418Y-138152870D01*
X133810704Y-138135900D01*
X133779924Y-138091307D01*
X133725783Y-138012871D01*
X133598452Y-137900066D01*
X133598449Y-137900063D01*
X133447826Y-137821010D01*
X133282656Y-137780300D01*
X133112544Y-137780300D01*
X132947373Y-137821010D01*
X132796750Y-137900063D01*
X132669416Y-138012872D01*
X132572782Y-138152868D01*
X132512460Y-138311925D01*
X132512459Y-138311930D01*
X132504699Y-138375841D01*
X132477076Y-138440018D01*
X132419142Y-138479074D01*
X132349289Y-138480609D01*
X132293922Y-138448574D01*
X131469618Y-137624270D01*
X131448103Y-137613308D01*
X131431510Y-137603140D01*
X131411980Y-137588950D01*
X131389015Y-137581488D01*
X131371041Y-137574043D01*
X131349527Y-137563081D01*
X131344410Y-137562270D01*
X131325673Y-137559303D01*
X131306758Y-137554762D01*
X131283794Y-137547300D01*
X131283793Y-137547300D01*
X131249888Y-137547300D01*
X130706154Y-137547300D01*
X130571368Y-137547300D01*
X130571365Y-137547301D01*
X130548396Y-137554763D01*
X130529483Y-137559303D01*
X130505635Y-137563080D01*
X130484120Y-137574042D01*
X130466150Y-137581485D01*
X130443182Y-137588948D01*
X130443178Y-137588949D01*
X130423641Y-137603144D01*
X130407059Y-137613306D01*
X130385544Y-137624269D01*
X130385541Y-137624271D01*
X129617380Y-138392433D01*
X129522071Y-138487741D01*
X129511110Y-138509254D01*
X129500946Y-138525839D01*
X129486752Y-138545375D01*
X129486751Y-138545378D01*
X129479288Y-138568346D01*
X129471843Y-138586319D01*
X129460880Y-138607834D01*
X129457103Y-138631683D01*
X129452562Y-138650600D01*
X129445100Y-138673565D01*
X129445100Y-138923100D01*
X129425415Y-138990139D01*
X129372611Y-139035894D01*
X129321100Y-139047100D01*
X129069082Y-139047100D01*
X128975295Y-139061954D01*
X128862259Y-139119548D01*
X128862257Y-139119549D01*
X128854717Y-139127090D01*
X128805360Y-139157336D01*
X128785617Y-139163751D01*
X128785614Y-139163752D01*
X128766078Y-139177946D01*
X128749493Y-139188110D01*
X128727980Y-139199071D01*
X128715993Y-139211058D01*
X128704006Y-139223046D01*
X128114212Y-139812839D01*
X127923870Y-140003181D01*
X127862547Y-140036666D01*
X127836189Y-140039500D01*
X127744492Y-140039500D01*
X127725094Y-140037973D01*
X127715794Y-140036500D01*
X127715793Y-140036500D01*
X127581007Y-140036500D01*
X127581006Y-140036500D01*
X127571697Y-140037974D01*
X127552304Y-140039500D01*
X127472009Y-140039500D01*
X127404970Y-140019815D01*
X127359215Y-139967011D01*
X127349271Y-139897853D01*
X127378296Y-139834297D01*
X127384328Y-139827819D01*
X127636041Y-139576107D01*
X127934154Y-139277994D01*
X127958128Y-139254020D01*
X127969090Y-139232505D01*
X127979252Y-139215921D01*
X127993450Y-139196381D01*
X128000911Y-139173414D01*
X128008360Y-139155433D01*
X128019318Y-139133929D01*
X128019318Y-139133928D01*
X128019318Y-139133927D01*
X128019319Y-139133926D01*
X128023096Y-139110073D01*
X128027635Y-139091166D01*
X128035100Y-139068193D01*
X128035100Y-138933407D01*
X128035100Y-138638305D01*
X128054785Y-138571266D01*
X128076874Y-138545489D01*
X128137782Y-138491530D01*
X128140309Y-138487870D01*
X128234418Y-138351530D01*
X128294740Y-138192472D01*
X128315245Y-138023600D01*
X128294740Y-137854728D01*
X128292667Y-137849263D01*
X128266729Y-137780867D01*
X128234418Y-137695670D01*
X128225019Y-137682054D01*
X128190498Y-137632042D01*
X128137783Y-137555671D01*
X128035003Y-137464616D01*
X128010449Y-137442863D01*
X127859826Y-137363810D01*
X127694656Y-137323100D01*
X127524544Y-137323100D01*
X127359373Y-137363810D01*
X127208750Y-137442863D01*
X127133027Y-137509949D01*
X127069794Y-137539670D01*
X127000530Y-137530486D01*
X126968573Y-137509949D01*
X126892849Y-137442863D01*
X126742226Y-137363810D01*
X126577056Y-137323100D01*
X126406944Y-137323100D01*
X126241773Y-137363810D01*
X126084507Y-137446351D01*
X126083897Y-137445188D01*
X126024980Y-137464616D01*
X125957329Y-137447148D01*
X125909862Y-137395878D01*
X125896900Y-137340683D01*
X125896900Y-137099254D01*
X125916585Y-137032215D01*
X125933215Y-137011576D01*
X125954450Y-136990342D01*
X126012046Y-136877304D01*
X126012046Y-136877302D01*
X126012047Y-136877301D01*
X126026899Y-136783524D01*
X126026900Y-136783519D01*
X126026899Y-136520482D01*
X126012046Y-136426696D01*
X125954450Y-136313658D01*
X125954446Y-136313654D01*
X125954445Y-136313652D01*
X125933219Y-136292426D01*
X125907650Y-136245600D01*
X128529555Y-136245600D01*
X128550059Y-136414469D01*
X128550060Y-136414474D01*
X128610382Y-136573531D01*
X128631462Y-136604070D01*
X128707017Y-136713529D01*
X128796924Y-136793179D01*
X128834350Y-136826336D01*
X128979813Y-136902681D01*
X128984975Y-136905390D01*
X129150144Y-136946100D01*
X129320256Y-136946100D01*
X129485425Y-136905390D01*
X129583035Y-136854160D01*
X129636049Y-136826336D01*
X129636050Y-136826334D01*
X129636052Y-136826334D01*
X129763383Y-136713529D01*
X129808573Y-136648059D01*
X129862856Y-136604070D01*
X129910623Y-136594500D01*
X130286145Y-136594500D01*
X130353184Y-136614185D01*
X130362110Y-136621378D01*
X130362159Y-136621311D01*
X130370053Y-136627045D01*
X130370058Y-136627050D01*
X130471921Y-136678952D01*
X130483098Y-136684647D01*
X130576875Y-136699499D01*
X130576881Y-136699500D01*
X130839918Y-136699499D01*
X130933704Y-136684646D01*
X131046742Y-136627050D01*
X131136450Y-136537342D01*
X131194046Y-136424304D01*
X131194046Y-136424302D01*
X131194047Y-136424301D01*
X131208899Y-136330524D01*
X131208900Y-136330519D01*
X131208899Y-136007482D01*
X131194046Y-135913696D01*
X131136450Y-135800658D01*
X131136447Y-135800655D01*
X131136446Y-135800653D01*
X131132579Y-135795329D01*
X131109102Y-135729522D01*
X131108900Y-135722448D01*
X131108900Y-135372700D01*
X131128585Y-135305661D01*
X131181389Y-135259906D01*
X131232900Y-135248700D01*
X132556901Y-135248700D01*
X132623940Y-135268385D01*
X132669695Y-135321189D01*
X132680901Y-135372700D01*
X132680901Y-135468056D01*
X132680902Y-135468082D01*
X132683813Y-135493187D01*
X132683815Y-135493191D01*
X132729193Y-135595964D01*
X132729194Y-135595965D01*
X132808635Y-135675406D01*
X132911409Y-135720785D01*
X132936535Y-135723700D01*
X134776264Y-135723699D01*
X134776279Y-135723697D01*
X134776282Y-135723697D01*
X134801387Y-135720786D01*
X134801388Y-135720785D01*
X134801391Y-135720785D01*
X134904165Y-135675406D01*
X134983606Y-135595965D01*
X135028985Y-135493191D01*
X135031900Y-135468065D01*
X135031899Y-134178336D01*
X135029348Y-134156335D01*
X135028986Y-134153212D01*
X135028985Y-134153210D01*
X135028985Y-134153209D01*
X134983606Y-134050435D01*
X134904165Y-133970994D01*
X134904163Y-133970993D01*
X134801392Y-133925615D01*
X134776265Y-133922700D01*
X132936543Y-133922700D01*
X132936517Y-133922702D01*
X132911412Y-133925613D01*
X132911408Y-133925615D01*
X132808635Y-133970993D01*
X132729194Y-134050434D01*
X132683815Y-134153206D01*
X132683815Y-134153208D01*
X132680900Y-134178331D01*
X132680900Y-134273700D01*
X132661215Y-134340739D01*
X132608411Y-134386494D01*
X132556900Y-134397700D01*
X130717604Y-134397700D01*
X130694639Y-134405162D01*
X130675723Y-134409703D01*
X130651877Y-134413480D01*
X130642596Y-134416496D01*
X130641929Y-134414445D01*
X130600871Y-134424300D01*
X130546700Y-134424300D01*
X130479661Y-134404615D01*
X130433906Y-134351811D01*
X130422700Y-134300300D01*
X130422700Y-133913905D01*
X130442385Y-133846866D01*
X130464474Y-133821089D01*
X130525382Y-133767130D01*
X130526690Y-133765236D01*
X130622018Y-133627130D01*
X130682340Y-133468072D01*
X130702845Y-133299200D01*
X130682340Y-133130328D01*
X130622018Y-132971270D01*
X130609212Y-132952718D01*
X130551888Y-132869670D01*
X130525383Y-132831271D01*
X130398052Y-132718466D01*
X130398049Y-132718463D01*
X130247426Y-132639410D01*
X130082256Y-132598700D01*
X129912144Y-132598700D01*
X129746973Y-132639410D01*
X129596350Y-132718463D01*
X129469016Y-132831272D01*
X129372382Y-132971268D01*
X129312060Y-133130325D01*
X129312059Y-133130330D01*
X129291555Y-133299200D01*
X129312059Y-133468069D01*
X129312060Y-133468074D01*
X129372382Y-133627131D01*
X129469017Y-133767130D01*
X129529926Y-133821089D01*
X129567053Y-133880278D01*
X129571700Y-133913905D01*
X129571700Y-134583477D01*
X129558185Y-134639771D01*
X129527752Y-134699498D01*
X129512900Y-134793275D01*
X129512900Y-135056317D01*
X129522278Y-135115529D01*
X129527754Y-135150104D01*
X129585350Y-135263142D01*
X129585352Y-135263144D01*
X129585354Y-135263147D01*
X129675052Y-135352845D01*
X129675054Y-135352846D01*
X129675058Y-135352850D01*
X129788096Y-135410446D01*
X129788098Y-135410447D01*
X129881875Y-135425299D01*
X129881881Y-135425300D01*
X130133900Y-135425299D01*
X130200939Y-135444983D01*
X130246694Y-135497787D01*
X130257900Y-135549299D01*
X130257900Y-135619500D01*
X130238215Y-135686539D01*
X130185411Y-135732294D01*
X130133900Y-135743500D01*
X129771839Y-135743500D01*
X129704800Y-135723815D01*
X129689612Y-135712316D01*
X129636052Y-135664866D01*
X129636050Y-135664865D01*
X129636049Y-135664864D01*
X129485426Y-135585810D01*
X129320256Y-135545100D01*
X129150144Y-135545100D01*
X128984973Y-135585810D01*
X128834350Y-135664863D01*
X128707016Y-135777672D01*
X128610382Y-135917668D01*
X128550060Y-136076725D01*
X128550059Y-136076730D01*
X128529555Y-136245600D01*
X125907650Y-136245600D01*
X125899734Y-136231103D01*
X125896900Y-136204745D01*
X125896900Y-136203981D01*
X125916585Y-136136942D01*
X125938671Y-136111167D01*
X126004183Y-136053129D01*
X126100818Y-135913130D01*
X126161140Y-135754072D01*
X126181645Y-135585200D01*
X126161140Y-135416328D01*
X126100818Y-135257270D01*
X126004183Y-135117271D01*
X125876852Y-135004466D01*
X125876849Y-135004463D01*
X125726226Y-134925410D01*
X125561056Y-134884700D01*
X125390944Y-134884700D01*
X125225773Y-134925410D01*
X125075150Y-135004463D01*
X124947816Y-135117272D01*
X124851182Y-135257268D01*
X124790860Y-135416325D01*
X124790859Y-135416330D01*
X124770355Y-135585200D01*
X124790859Y-135754069D01*
X124790860Y-135754074D01*
X124851182Y-135913131D01*
X124947818Y-136053130D01*
X125035366Y-136130691D01*
X125072493Y-136189880D01*
X125071725Y-136259745D01*
X125044083Y-136305754D01*
X125044089Y-136305759D01*
X125044042Y-136305822D01*
X125040820Y-136311187D01*
X125038354Y-136313652D01*
X125038351Y-136313657D01*
X125038350Y-136313658D01*
X125019151Y-136351337D01*
X124980752Y-136426698D01*
X124965900Y-136520475D01*
X124965900Y-136783517D01*
X124976042Y-136847552D01*
X124980754Y-136877304D01*
X125038350Y-136990342D01*
X125059581Y-137011573D01*
X125093066Y-137072894D01*
X125095900Y-137099254D01*
X125095900Y-138039945D01*
X125076215Y-138106984D01*
X125059585Y-138127621D01*
X124983551Y-138203656D01*
X124917509Y-138269698D01*
X124856186Y-138303182D01*
X124786494Y-138298198D01*
X124730561Y-138256326D01*
X124729551Y-138254957D01*
X124718669Y-138239980D01*
X124708506Y-138223394D01*
X124707888Y-138222181D01*
X124698450Y-138203658D01*
X124677798Y-138183006D01*
X124677780Y-138182986D01*
X124190887Y-137696093D01*
X124190856Y-137696064D01*
X124169942Y-137675150D01*
X124169941Y-137675149D01*
X124169940Y-137675148D01*
X124160574Y-137670376D01*
X124109781Y-137622400D01*
X124092988Y-137554578D01*
X124094402Y-137540490D01*
X124094844Y-137537701D01*
X124096900Y-137524719D01*
X124096899Y-137201682D01*
X124082046Y-137107896D01*
X124024450Y-136994858D01*
X124024446Y-136994854D01*
X124024445Y-136994852D01*
X123934747Y-136905154D01*
X123934744Y-136905152D01*
X123934742Y-136905150D01*
X123845577Y-136859718D01*
X123821701Y-136847552D01*
X123727924Y-136832700D01*
X123464882Y-136832700D01*
X123383919Y-136845523D01*
X123371096Y-136847554D01*
X123258058Y-136905150D01*
X123258057Y-136905151D01*
X123250159Y-136910889D01*
X123248527Y-136908642D01*
X123200503Y-136934866D01*
X123174145Y-136937700D01*
X121960108Y-136937700D01*
X121922588Y-136928718D01*
X121921663Y-136931566D01*
X121898783Y-136924132D01*
X121841107Y-136884695D01*
X121813908Y-136820337D01*
X121813100Y-136806201D01*
X121813100Y-135291237D01*
X121832785Y-135224198D01*
X121885589Y-135178443D01*
X121929967Y-135167442D01*
X121932437Y-135167299D01*
X121932464Y-135167299D01*
X121936458Y-135166835D01*
X121957587Y-135164386D01*
X121957588Y-135164385D01*
X121957591Y-135164385D01*
X122060365Y-135119006D01*
X122139806Y-135039565D01*
X122185185Y-134936791D01*
X122188100Y-134911665D01*
X122188099Y-134005269D01*
X122207783Y-133938231D01*
X122260587Y-133892476D01*
X122329746Y-133882532D01*
X122362186Y-133891836D01*
X122364834Y-133893005D01*
X122364835Y-133893006D01*
X122467609Y-133938385D01*
X122492735Y-133941300D01*
X123582464Y-133941299D01*
X123582479Y-133941297D01*
X123582482Y-133941297D01*
X123607587Y-133938386D01*
X123607588Y-133938385D01*
X123607591Y-133938385D01*
X123710365Y-133893006D01*
X123789806Y-133813565D01*
X123793859Y-133804385D01*
X123838941Y-133751010D01*
X123905726Y-133730480D01*
X123973009Y-133749316D01*
X123989518Y-133761652D01*
X124008348Y-133778334D01*
X124158975Y-133857390D01*
X124324144Y-133898100D01*
X124494256Y-133898100D01*
X124659425Y-133857390D01*
X124780137Y-133794035D01*
X124810049Y-133778336D01*
X124810050Y-133778334D01*
X124810052Y-133778334D01*
X124937383Y-133665529D01*
X125034018Y-133525530D01*
X125094340Y-133366472D01*
X125114845Y-133197600D01*
X125094340Y-133028728D01*
X125034018Y-132869670D01*
X124937383Y-132729671D01*
X124842516Y-132645626D01*
X124810049Y-132616863D01*
X124659426Y-132537810D01*
X124494256Y-132497100D01*
X124324144Y-132497100D01*
X124158973Y-132537810D01*
X124008349Y-132616864D01*
X124008347Y-132616866D01*
X123993834Y-132629723D01*
X123930600Y-132659442D01*
X123861337Y-132650257D01*
X123808035Y-132605083D01*
X123798176Y-132586991D01*
X123789806Y-132568035D01*
X123710365Y-132488594D01*
X123607592Y-132443215D01*
X123582465Y-132440300D01*
X122492743Y-132440300D01*
X122492717Y-132440302D01*
X122467612Y-132443213D01*
X122467608Y-132443215D01*
X122364835Y-132488593D01*
X122285394Y-132568034D01*
X122240015Y-132670806D01*
X122240015Y-132670808D01*
X122237100Y-132695931D01*
X122237100Y-133602329D01*
X122217415Y-133669368D01*
X122164611Y-133715123D01*
X122095453Y-133725067D01*
X122063014Y-133715763D01*
X121957596Y-133669216D01*
X121957591Y-133669215D01*
X121932465Y-133666300D01*
X120842743Y-133666300D01*
X120842717Y-133666302D01*
X120817612Y-133669213D01*
X120817608Y-133669215D01*
X120714835Y-133714593D01*
X120635394Y-133794034D01*
X120590015Y-133896806D01*
X120590015Y-133896808D01*
X120587100Y-133921931D01*
X120587100Y-134911656D01*
X120587102Y-134911682D01*
X120590013Y-134936787D01*
X120590015Y-134936791D01*
X120635393Y-135039564D01*
X120635394Y-135039565D01*
X120714835Y-135119006D01*
X120817609Y-135164385D01*
X120842735Y-135167300D01*
X120842750Y-135167299D01*
X120845247Y-135167445D01*
X120845853Y-135167661D01*
X120846294Y-135167713D01*
X120846282Y-135167814D01*
X120911040Y-135190961D01*
X120953676Y-135246314D01*
X120962100Y-135291239D01*
X120962100Y-136772267D01*
X120942415Y-136839306D01*
X120899077Y-136878516D01*
X120899150Y-136878617D01*
X120898216Y-136879294D01*
X120894398Y-136882750D01*
X120892998Y-136883463D01*
X120891257Y-136884350D01*
X120891252Y-136884354D01*
X120801554Y-136974052D01*
X120801551Y-136974057D01*
X120801550Y-136974058D01*
X120790952Y-136994858D01*
X120743952Y-137087098D01*
X120729100Y-137180875D01*
X120729100Y-137443917D01*
X120739558Y-137509949D01*
X120743954Y-137537704D01*
X120801550Y-137650742D01*
X120801552Y-137650744D01*
X120801554Y-137650747D01*
X120891252Y-137740445D01*
X120891254Y-137740446D01*
X120891258Y-137740450D01*
X120985952Y-137788699D01*
X121004298Y-137798047D01*
X121098075Y-137812899D01*
X121098081Y-137812900D01*
X121421118Y-137812899D01*
X121514904Y-137798046D01*
X121545809Y-137782298D01*
X121614476Y-137769401D01*
X121624806Y-137771571D01*
X121624835Y-137771392D01*
X121634472Y-137772918D01*
X121634474Y-137772919D01*
X121658324Y-137776695D01*
X121677245Y-137781239D01*
X121699089Y-137788336D01*
X121700207Y-137788700D01*
X121734112Y-137788700D01*
X122971900Y-137788700D01*
X123038939Y-137808385D01*
X123084694Y-137861189D01*
X123095900Y-137912700D01*
X123095900Y-138164717D01*
X123105830Y-138227410D01*
X123110754Y-138258504D01*
X123168350Y-138371542D01*
X123168352Y-138371544D01*
X123168354Y-138371547D01*
X123258052Y-138461245D01*
X123258054Y-138461246D01*
X123258058Y-138461250D01*
X123369642Y-138518105D01*
X123371098Y-138518847D01*
X123464875Y-138533699D01*
X123464881Y-138533700D01*
X123727918Y-138533699D01*
X123727922Y-138533699D01*
X123787303Y-138524294D01*
X123810362Y-138520642D01*
X123879656Y-138529597D01*
X123917441Y-138555434D01*
X123933581Y-138571574D01*
X123967066Y-138632897D01*
X123969900Y-138659255D01*
X123969900Y-138915500D01*
X123950215Y-138982539D01*
X123897411Y-139028294D01*
X123845901Y-139039500D01*
X123675544Y-139039500D01*
X123675517Y-139039502D01*
X123641142Y-139043489D01*
X123640937Y-139041727D01*
X123599859Y-139041725D01*
X123599655Y-139043490D01*
X123590391Y-139042415D01*
X123584444Y-139041725D01*
X123565268Y-139039500D01*
X123565265Y-139039500D01*
X123323010Y-139039500D01*
X123255971Y-139019815D01*
X123235329Y-139003181D01*
X122720018Y-138487870D01*
X122698503Y-138476908D01*
X122681910Y-138466740D01*
X122662380Y-138452550D01*
X122639415Y-138445088D01*
X122621441Y-138437643D01*
X122599927Y-138426681D01*
X122594810Y-138425870D01*
X122576073Y-138422903D01*
X122557158Y-138418362D01*
X122534194Y-138410900D01*
X122534193Y-138410900D01*
X122500288Y-138410900D01*
X122033580Y-138410900D01*
X121966541Y-138391215D01*
X121945799Y-138373442D01*
X121945797Y-138373445D01*
X121945627Y-138373294D01*
X121940767Y-138369130D01*
X121940185Y-138368473D01*
X121921061Y-138351531D01*
X121819020Y-138261130D01*
X121812849Y-138255663D01*
X121662226Y-138176610D01*
X121497056Y-138135900D01*
X121326944Y-138135900D01*
X121161773Y-138176610D01*
X121011150Y-138255663D01*
X120883816Y-138368472D01*
X120787182Y-138508468D01*
X120726860Y-138667525D01*
X120726859Y-138667530D01*
X120706355Y-138836400D01*
X120726859Y-139005269D01*
X120726860Y-139005274D01*
X120787182Y-139164331D01*
X120822789Y-139215916D01*
X120883817Y-139304329D01*
X120970288Y-139380935D01*
X121011150Y-139417136D01*
X121126210Y-139477524D01*
X121161775Y-139496190D01*
X121326944Y-139536900D01*
X121497056Y-139536900D01*
X121662225Y-139496190D01*
X121779290Y-139434749D01*
X121812849Y-139417136D01*
X121812850Y-139417134D01*
X121812852Y-139417134D01*
X121940183Y-139304329D01*
X121940185Y-139304325D01*
X121940767Y-139303670D01*
X121941312Y-139303327D01*
X121945797Y-139299355D01*
X121946457Y-139300100D01*
X121999958Y-139266545D01*
X122033580Y-139261900D01*
X122239190Y-139261900D01*
X122306229Y-139281585D01*
X122326871Y-139298219D01*
X122856471Y-139827819D01*
X122889956Y-139889142D01*
X122884972Y-139958834D01*
X122843100Y-140014767D01*
X122777636Y-140039184D01*
X122768790Y-140039500D01*
X122175543Y-140039500D01*
X122175517Y-140039502D01*
X122150412Y-140042413D01*
X122150410Y-140042414D01*
X122124318Y-140053935D01*
X122074233Y-140064500D01*
X118187404Y-140064500D01*
X118164439Y-140071962D01*
X118145522Y-140076503D01*
X118121673Y-140080280D01*
X118100158Y-140091243D01*
X118082185Y-140098688D01*
X118059219Y-140106150D01*
X118039684Y-140120343D01*
X118023098Y-140130506D01*
X118001357Y-140141584D01*
X117945067Y-140155100D01*
X117927684Y-140155100D01*
X117851545Y-140167158D01*
X117833896Y-140169954D01*
X117720858Y-140227550D01*
X117720857Y-140227551D01*
X117712959Y-140233289D01*
X117711327Y-140231042D01*
X117663303Y-140257266D01*
X117636945Y-140260100D01*
X117324695Y-140260100D01*
X117268401Y-140246585D01*
X117217701Y-140220752D01*
X117123924Y-140205900D01*
X116860882Y-140205900D01*
X116779919Y-140218723D01*
X116767096Y-140220754D01*
X116654058Y-140278350D01*
X116654057Y-140278351D01*
X116654052Y-140278354D01*
X116564354Y-140368052D01*
X116564351Y-140368057D01*
X116564350Y-140368058D01*
X116550469Y-140395301D01*
X116506752Y-140481098D01*
X116491900Y-140574875D01*
X116491900Y-140897917D01*
X116506754Y-140991706D01*
X116506755Y-140991707D01*
X116511035Y-141000107D01*
X116523930Y-141068776D01*
X116511037Y-141112688D01*
X116506753Y-141121095D01*
X116506753Y-141121097D01*
X116491900Y-141214875D01*
X116491900Y-141537917D01*
X116499709Y-141587219D01*
X116506754Y-141631704D01*
X116553385Y-141723223D01*
X116566900Y-141779515D01*
X116566900Y-142154994D01*
X116574362Y-142177958D01*
X116578903Y-142196873D01*
X116580981Y-142209991D01*
X116582681Y-142220727D01*
X116593643Y-142242241D01*
X116601088Y-142260215D01*
X116608550Y-142283180D01*
X116622740Y-142302710D01*
X116632908Y-142319303D01*
X116643870Y-142340818D01*
X116801581Y-142498529D01*
X116835066Y-142559852D01*
X116837900Y-142586201D01*
X116837900Y-142595115D01*
X116846638Y-142650286D01*
X116852754Y-142688904D01*
X116910350Y-142801942D01*
X116910353Y-142801945D01*
X116916089Y-142809841D01*
X116913840Y-142811474D01*
X116940062Y-142859477D01*
X116942900Y-142885854D01*
X116942900Y-144207394D01*
X116950362Y-144230358D01*
X116954903Y-144249273D01*
X116956808Y-144261300D01*
X116958681Y-144273127D01*
X116969643Y-144294641D01*
X116977088Y-144312615D01*
X116984550Y-144335580D01*
X116998740Y-144355110D01*
X117008908Y-144371703D01*
X117019870Y-144393218D01*
X120237517Y-147610865D01*
X120271002Y-147672188D01*
X120266018Y-147741880D01*
X120224146Y-147797813D01*
X120158682Y-147822230D01*
X120138284Y-147822007D01*
X115428448Y-147381321D01*
X115363534Y-147355476D01*
X115322897Y-147298639D01*
X115316000Y-147257860D01*
X115316000Y-144785078D01*
X115335685Y-144718039D01*
X115388489Y-144672284D01*
X115395529Y-144669691D01*
X115396938Y-144668990D01*
X115402462Y-144667138D01*
X115406070Y-144665810D01*
X115408424Y-144665140D01*
X115417940Y-144661950D01*
X115426431Y-144658661D01*
X115426433Y-144658661D01*
X115459965Y-144637897D01*
X115464919Y-144635138D01*
X115500228Y-144617558D01*
X115500229Y-144617557D01*
X115507523Y-144612048D01*
X115515197Y-144605676D01*
X115521949Y-144599521D01*
X115521949Y-144599520D01*
X115521952Y-144599519D01*
X115545715Y-144568049D01*
X115549341Y-144563682D01*
X115575916Y-144534533D01*
X115575918Y-144534527D01*
X115580721Y-144526770D01*
X115585586Y-144518035D01*
X115589654Y-144509867D01*
X115589654Y-144509866D01*
X115589656Y-144509864D01*
X115600449Y-144471930D01*
X115602252Y-144466547D01*
X115616500Y-144429773D01*
X115616500Y-144429770D01*
X115616501Y-144429768D01*
X115618172Y-144420825D01*
X115619561Y-144410876D01*
X115620401Y-144401807D01*
X115616765Y-144362564D01*
X115616500Y-144356841D01*
X115616500Y-131539300D01*
X115636185Y-131472261D01*
X115688989Y-131426506D01*
X115740500Y-131415300D01*
X158173100Y-131415300D01*
X158240139Y-131434985D01*
G37*
%TD.AperFunction*%
%TA.AperFunction,Conductor*%
G36*
X126650407Y-140437584D02*
G01*
X126650409Y-140437585D01*
X126675535Y-140440500D01*
X126795900Y-140440499D01*
X126862939Y-140460183D01*
X126908694Y-140512987D01*
X126919900Y-140564498D01*
X126919900Y-140684857D01*
X126919902Y-140684880D01*
X126923889Y-140719257D01*
X126922126Y-140719461D01*
X126922126Y-140760540D01*
X126923890Y-140760745D01*
X126919900Y-140795131D01*
X126919900Y-141184856D01*
X126919902Y-141184882D01*
X126923889Y-141219258D01*
X126922126Y-141219462D01*
X126922126Y-141260540D01*
X126923890Y-141260745D01*
X126919900Y-141295131D01*
X126919900Y-141684856D01*
X126919902Y-141684882D01*
X126923889Y-141719258D01*
X126922126Y-141719462D01*
X126922126Y-141760540D01*
X126923890Y-141760745D01*
X126919900Y-141795131D01*
X126919900Y-142184856D01*
X126919902Y-142184882D01*
X126923889Y-142219258D01*
X126922126Y-142219462D01*
X126922126Y-142260540D01*
X126923890Y-142260745D01*
X126919900Y-142295131D01*
X126919900Y-142684856D01*
X126919902Y-142684882D01*
X126923889Y-142719258D01*
X126922126Y-142719462D01*
X126922126Y-142760540D01*
X126923890Y-142760745D01*
X126919900Y-142795131D01*
X126919900Y-143184856D01*
X126919902Y-143184882D01*
X126923889Y-143219258D01*
X126922126Y-143219462D01*
X126922126Y-143260540D01*
X126923890Y-143260745D01*
X126919900Y-143295131D01*
X126919900Y-143684856D01*
X126919902Y-143684882D01*
X126923889Y-143719258D01*
X126922126Y-143719462D01*
X126922126Y-143760540D01*
X126923890Y-143760745D01*
X126919900Y-143795131D01*
X126919900Y-143915500D01*
X126900215Y-143982539D01*
X126847411Y-144028294D01*
X126795901Y-144039500D01*
X126675542Y-144039500D01*
X126675519Y-144039502D01*
X126641143Y-144043489D01*
X126640938Y-144041727D01*
X126599859Y-144041725D01*
X126599655Y-144043490D01*
X126590391Y-144042415D01*
X126565265Y-144039500D01*
X126175543Y-144039500D01*
X126175517Y-144039502D01*
X126141142Y-144043489D01*
X126140937Y-144041727D01*
X126099859Y-144041725D01*
X126099655Y-144043490D01*
X126090391Y-144042415D01*
X126065265Y-144039500D01*
X125675543Y-144039500D01*
X125675517Y-144039502D01*
X125641142Y-144043489D01*
X125640937Y-144041727D01*
X125599859Y-144041725D01*
X125599655Y-144043490D01*
X125590391Y-144042415D01*
X125565265Y-144039500D01*
X125175543Y-144039500D01*
X125175517Y-144039502D01*
X125141142Y-144043489D01*
X125140937Y-144041727D01*
X125099859Y-144041725D01*
X125099655Y-144043490D01*
X125090391Y-144042415D01*
X125065265Y-144039500D01*
X124675543Y-144039500D01*
X124675517Y-144039502D01*
X124641142Y-144043489D01*
X124640937Y-144041727D01*
X124599859Y-144041725D01*
X124599655Y-144043490D01*
X124590391Y-144042415D01*
X124565265Y-144039500D01*
X124175543Y-144039500D01*
X124175517Y-144039502D01*
X124141142Y-144043489D01*
X124140937Y-144041727D01*
X124099859Y-144041725D01*
X124099655Y-144043490D01*
X124090391Y-144042415D01*
X124065265Y-144039500D01*
X123675543Y-144039500D01*
X123675517Y-144039502D01*
X123641142Y-144043489D01*
X123640937Y-144041727D01*
X123599859Y-144041725D01*
X123599655Y-144043490D01*
X123590391Y-144042415D01*
X123584444Y-144041725D01*
X123565268Y-144039500D01*
X123565265Y-144039500D01*
X123444899Y-144039500D01*
X123377860Y-144019815D01*
X123332105Y-143967011D01*
X123320899Y-143915500D01*
X123320899Y-143795143D01*
X123320899Y-143795136D01*
X123320538Y-143792019D01*
X123316911Y-143760742D01*
X123318680Y-143760536D01*
X123318682Y-143719460D01*
X123316910Y-143719255D01*
X123318854Y-143702500D01*
X123320900Y-143684865D01*
X123320899Y-143295136D01*
X123320287Y-143289860D01*
X123316911Y-143260742D01*
X123318680Y-143260536D01*
X123318682Y-143219460D01*
X123316910Y-143219255D01*
X123317985Y-143209991D01*
X123320900Y-143184865D01*
X123320899Y-142795136D01*
X123318732Y-142776446D01*
X123316911Y-142760742D01*
X123318680Y-142760536D01*
X123318682Y-142719460D01*
X123316910Y-142719255D01*
X123317985Y-142709991D01*
X123320900Y-142684865D01*
X123320899Y-142295136D01*
X123319513Y-142283181D01*
X123316911Y-142260742D01*
X123318680Y-142260536D01*
X123318682Y-142219460D01*
X123316910Y-142219255D01*
X123317985Y-142209991D01*
X123320900Y-142184865D01*
X123320899Y-141795136D01*
X123320897Y-141795117D01*
X123316911Y-141760742D01*
X123318680Y-141760536D01*
X123318682Y-141719460D01*
X123316910Y-141719255D01*
X123317985Y-141709991D01*
X123320900Y-141684865D01*
X123320899Y-141295136D01*
X123320897Y-141295117D01*
X123316911Y-141260742D01*
X123318680Y-141260536D01*
X123318682Y-141219460D01*
X123316910Y-141219255D01*
X123317987Y-141209973D01*
X123320900Y-141184865D01*
X123320899Y-140795136D01*
X123320897Y-140795117D01*
X123316911Y-140760742D01*
X123318680Y-140760536D01*
X123318682Y-140719460D01*
X123316910Y-140719255D01*
X123317985Y-140709991D01*
X123320900Y-140684865D01*
X123320900Y-140564498D01*
X123340585Y-140497460D01*
X123393389Y-140451705D01*
X123444900Y-140440499D01*
X123565256Y-140440499D01*
X123565264Y-140440499D01*
X123565279Y-140440497D01*
X123565282Y-140440497D01*
X123599658Y-140436511D01*
X123599863Y-140438281D01*
X123640940Y-140438281D01*
X123641145Y-140436510D01*
X123650407Y-140437584D01*
X123650409Y-140437585D01*
X123675535Y-140440500D01*
X124065264Y-140440499D01*
X124065279Y-140440497D01*
X124065282Y-140440497D01*
X124099658Y-140436511D01*
X124099863Y-140438281D01*
X124140940Y-140438281D01*
X124141145Y-140436510D01*
X124150407Y-140437584D01*
X124150409Y-140437585D01*
X124175535Y-140440500D01*
X124565264Y-140440499D01*
X124565279Y-140440497D01*
X124565282Y-140440497D01*
X124599658Y-140436511D01*
X124599863Y-140438281D01*
X124640940Y-140438281D01*
X124641145Y-140436510D01*
X124650407Y-140437584D01*
X124650409Y-140437585D01*
X124675535Y-140440500D01*
X125065264Y-140440499D01*
X125065279Y-140440497D01*
X125065282Y-140440497D01*
X125099658Y-140436511D01*
X125099863Y-140438281D01*
X125140940Y-140438281D01*
X125141145Y-140436510D01*
X125150407Y-140437584D01*
X125150409Y-140437585D01*
X125175535Y-140440500D01*
X125565264Y-140440499D01*
X125565279Y-140440497D01*
X125565282Y-140440497D01*
X125599658Y-140436511D01*
X125599863Y-140438281D01*
X125640940Y-140438281D01*
X125641145Y-140436510D01*
X125650407Y-140437584D01*
X125650409Y-140437585D01*
X125675535Y-140440500D01*
X126065264Y-140440499D01*
X126065279Y-140440497D01*
X126065282Y-140440497D01*
X126099658Y-140436511D01*
X126099863Y-140438281D01*
X126140940Y-140438281D01*
X126141145Y-140436510D01*
X126150407Y-140437584D01*
X126150409Y-140437585D01*
X126175535Y-140440500D01*
X126565264Y-140440499D01*
X126565279Y-140440497D01*
X126565282Y-140440497D01*
X126599658Y-140436511D01*
X126599863Y-140438281D01*
X126640940Y-140438281D01*
X126641145Y-140436510D01*
X126650407Y-140437584D01*
G37*
%TD.AperFunction*%
%TD*%
M02*
